<svg xmlns="http://www.w3.org/2000/svg" viewBox="0 0 612 612" id="targeting" width="100%" fill="#ffffff" height="100%"><path d="M611.1 60.5c-1.9-3.8-6-5.9-10.2-5.2l-52.2 8 8-52.2c.6-4.2-1.5-8.3-5.2-10.2-3.8-1.9-8.3-1.2-11.3 1.8l-60.5 60.5c-1.5 1.5-2.4 3.4-2.7 5.4l-9.6 62.2-34.7 34.7C385 121.2 323.2 96.9 257.6 96.9c-68.9 0-133.5 26.8-182.2 75.4C26.8 220.9 0 285.6 0 354.4S26.8 488 75.4 536.6C124 585.2 188.7 612 257.6 612c68.9 0 133.5-26.8 182.2-75.4 48.6-48.6 75.4-113.3 75.4-182.2 0-54.8-16.9-107-48.9-151.2-3.2-4.4-9.3-5.3-13.6-2.2-4.4 3.2-5.3 9.3-2.2 13.6 29.6 40.8 45.2 89.1 45.2 139.7 0 131.2-106.8 238-238 238s-238-106.8-238-238 106.8-238 238-238c60.4 0 117.3 22.3 161.3 62.9L374.2 224c-32.1-28.8-73.2-44.5-116.6-44.5-96.5 0-175 78.5-175 175s78.5 175 175 175 175-78.5 175-175c0-32.2-8.8-63.7-25.5-91-2.8-4.6-8.8-6.1-13.4-3.3s-6.1 8.8-3.3 13.4c14.8 24.3 22.6 52.2 22.6 80.8 0 85.7-69.7 155.4-155.4 155.4s-155.4-69.7-155.4-155.4S171.9 199 257.6 199c38.2 0 74.4 13.7 102.8 38.8l-44.8 44.8c-16.4-13.3-36.7-20.5-58.1-20.5-50.9 0-92.4 41.4-92.4 92.4 0 50.9 41.4 92.4 92.4 92.4 50.9 0 92.4-41.4 92.4-92.4 0-9.1-1.3-18-3.9-26.7-1.6-5.2-7-8.1-12.2-6.5-5.2 1.6-8.1 7-6.5 12.2 2 6.8 3.1 13.9 3.1 21 0 40.2-32.7 72.8-72.8 72.8s-72.8-32.7-72.8-72.8c0-40.2 32.7-72.8 72.8-72.8 16.2 0 31.5 5.2 44.1 14.9l-51 51c-3.8 3.8-3.8 10 0 13.8 1.9 1.9 4.4 2.9 6.9 2.9s5-1 6.9-2.9l175.2-175.2 41.5-41.5 62.2-9.6c2.1-.3 4-1.3 5.4-2.7l60.5-60.5c3-3.1 3.7-7.7 1.8-11.4zM495.7 74.8l37.2-37.2-5 32.7-37.2 37.2 5-32.7zm41.5 41.5l-32.7 5 37.2-37.2 32.7-5-37.2 37.2z"></path></svg>
