<?xml version="1.0" encoding="utf-8"?>
<!-- Generator: Adobe Illustrator 18.1.1, SVG Export Plug-In . SVG Version: 6.00 Build 0)  -->
<svg version="1.1" id="Layer_1" xmlns="http://www.w3.org/2000/svg" xmlns:xlink="http://www.w3.org/1999/xlink" x="0px" y="0px"
	 viewBox="0 0 17 17" enable-background="new 0 0 17 17" xml:space="preserve">
<path fill-rule="evenodd" clip-rule="evenodd" fill="none" d="M2.1,2.7V0.5C2.1,0.2,2.4,0,2.7,0c0.3,0,0.5,0.2,0.5,0.5v2.1
	c0,0.3-0.2,0.5-0.5,0.5C2.4,3.2,2.1,2.9,2.1,2.7z M11.2,3.2c0.3,0,0.5-0.2,0.5-0.5V0.5c0-0.3-0.2-0.5-0.5-0.5
	c-0.3,0-0.5,0.2-0.5,0.5v2.1C10.6,2.9,10.9,3.2,11.2,3.2z M17,12.7c0,2.3-1.9,4.3-4.3,4.3c-2.3,0-4.3-1.9-4.3-4.3s1.9-4.2,4.3-4.2
	C15.1,8.5,17,10.4,17,12.7z M15.9,12.7c0-1.8-1.4-3.2-3.2-3.2S9.6,11,9.6,12.7c0,1.8,1.4,3.2,3.2,3.2S15.9,14.5,15.9,12.7z M4.2,6.4
	H2.1v2.1h2.1V6.4z M2.1,11.7h2.1V9.6H2.1V11.7z M5.3,8.5h2.1V6.4H5.3V8.5z M5.3,11.7h2.1V9.6H5.3V11.7z M1.1,12.6V5.3h11.7v2.1h1.1
	V3.3c0-0.6-0.5-1.2-1.2-1.2h-0.4v0.5c0,0.6-0.5,1.1-1.1,1.1c-0.6,0-1.1-0.5-1.1-1.1V2.1H3.7v0.5c0,0.6-0.5,1.1-1.1,1.1
	c-0.6,0-1.1-0.5-1.1-1.1V2.1H1.2C0.5,2.1,0,2.6,0,3.3v9.4c0,0.6,0.5,1.2,1.2,1.2h6.3v-1.1H1.2C1.1,12.7,1.1,12.7,1.1,12.6z
	 M10.6,8.5V6.4H8.5v2.1H10.6z M14.3,12.7h-1.6v-1.6c0-0.3-0.2-0.5-0.5-0.5c-0.3,0-0.5,0.2-0.5,0.5v2.1c0,0.3,0.2,0.5,0.5,0.5h2.1
	c0.3,0,0.5-0.2,0.5-0.5C14.9,13,14.6,12.7,14.3,12.7z"/>
</svg>
