<?xml version="1.0" encoding="utf-8"?>
<!-- Generator: Adobe Illustrator 18.1.1, SVG Export Plug-In . SVG Version: 6.00 Build 0)  -->
<svg version="1.1" id="Layer_1" xmlns="http://www.w3.org/2000/svg" xmlns:xlink="http://www.w3.org/1999/xlink" x="0px" y="0px"
	 viewBox="0 0 27 27" enable-background="new 0 0 27 27" xml:space="preserve">
<path fill-rule="evenodd" clip-rule="evenodd" d="M23.1,14.5c-2.1,0-3.9-1.7-3.9-3.9c0-2.1,1.7-3.9,3.9-3.9c2.1,0,3.9,1.7,3.9,3.9
	C27,12.7,25.3,14.5,23.1,14.5z M23.1,9.6h1.2v-1h-2.1L21.9,11c0.3-0.1,0.5-0.1,0.7-0.1c0.2,0,0.4,0,0.5,0.1c0.1,0.1,0.2,0.2,0.2,0.3
	c0,0.1-0.1,0.2-0.2,0.3c-0.1,0.1-0.2,0.1-0.4,0.1c-0.3,0-0.6-0.1-0.9-0.3l-0.1,1c0.4,0.2,0.8,0.3,1.1,0.3c0.5,0,0.8-0.1,1.1-0.4
	c0.3-0.3,0.5-0.6,0.5-1.1c0-0.4-0.1-0.7-0.4-0.9c-0.2-0.2-0.5-0.4-0.9-0.4c0,0-0.1,0-0.2,0L23.1,9.6z M19.3,5.8
	c-1.6,0-2.9-1.3-2.9-2.9c0-1.6,1.3-2.9,2.9-2.9c1.6,0,2.9,1.3,2.9,2.9C22.2,4.5,20.9,5.8,19.3,5.8z M19.8,1.3h-1.2v0.8h0.4v2.5h0.9
	V1.3z M11.7,6.2l2.7-2.7l1.4,1.4l-2.7,2.7L11.7,6.2z M13.5,8.7h3.9v1.9h-3.9V8.7z M17,17.6c0,0,0.1,0.1,0.1,0.1c0.3,0.3,0.3,0.7,0,1
	l-6.6,6.6l0,0C9.4,26.3,7.9,27,6.2,27C2.8,27,0,24.2,0,20.8v-3.2c0-0.7,0.4-1.3,1-1.7l4.2-2.4c0.3-0.2,0.7-0.4,1.1-0.4
	c0.6,0,1.1,0.3,1.5,0.7V9.6c0-1.1,0.9-1.9,1.9-1.9s1.9,0.9,1.9,1.9v9.2l0.7-0.7C13.6,16.8,15.5,16.6,17,17.6z M8.7,1.9h1.9v3.9H8.7
	V1.9z M5.8,10.6H1.9V8.7h3.9V10.6z M3.5,4.9l1.4-1.4l2.7,2.7L6.2,7.6L3.5,4.9z"/>
</svg>
