<?xml version="1.0" encoding="utf-8"?>
<!-- Generator: Adobe Illustrator 18.1.1, SVG Export Plug-In . SVG Version: 6.00 Build 0)  -->
<svg version="1.1" id="Layer_1" xmlns="http://www.w3.org/2000/svg" xmlns:xlink="http://www.w3.org/1999/xlink" x="0px" y="0px"
	 viewBox="0 0 61 49" enable-background="new 0 0 61 49" xml:space="preserve">
<path fill-rule="evenodd" clip-rule="evenodd" d="M59.2,40.3H39.1c0.8,3.8,2.6,5.7,2.6,5.7c0.5,0.5,0.6,1.3,0.4,1.9
	c-0.3,0.6-0.9,1.1-1.6,1.1H20.6c-0.7,0-1.3-0.4-1.6-1.1c-0.3-0.6-0.1-1.4,0.4-1.9c0,0,1.8-2,2.6-5.7H1.8c-1,0-1.8-0.8-1.8-1.8V1.7
	C0,0.8,0.8,0,1.8,0h57.5c1,0,1.8,0.8,1.8,1.7v36.8C61,39.5,60.2,40.3,59.2,40.3z M57.5,3.5h-54v33.3h20.4h13.1h8.7v-0.5
	c0-1,0.8-1.8,1.8-1.8c1,0,1.8,0.8,1.8,1.8v0.5h1.8v-0.5c0-1,0.8-1.8,1.8-1.8c1,0,1.8,0.8,1.8,1.8v0.5h2.9V3.5z M42.6,17.9h7.2v14
	h-7.2V17.9z M11.2,7.5h38.5v6H11.2V7.5z M37.6,32H11.2v-14h26.3V32z"/>
</svg>
