<?xml version="1.0" encoding="utf-8"?>
<!-- Generator: Adobe Illustrator 18.1.1, SVG Export Plug-In . SVG Version: 6.00 Build 0)  -->
<svg version="1.1" id="Layer_1" xmlns="http://www.w3.org/2000/svg" xmlns:xlink="http://www.w3.org/1999/xlink" x="0px" y="0px"
	 viewBox="0 0 612 612" enable-background="new 0 0 612 612" xml:space="preserve">
<path fill="none" d="M609.2,558.5L449.8,399.2c-3.8-3.8-10-3.8-13.8,0l-11.5,11.5l-23.2-23.2c39.4-42.8,60.9-97.9,60.9-156.4
	c0-61.7-24-119.8-67.7-163.4S292.9,0,231.1,0S111.4,24,67.7,67.7C24,111.4,0,169.4,0,231.1s24,119.8,67.7,163.4
	c43.7,43.7,101.7,67.7,163.4,67.7c58.5,0,113.6-21.6,156.4-60.9l23.2,23.2L399.2,436c-3.8,3.8-3.8,10,0,13.8l159.3,159.3
	c1.9,1.9,4.4,2.9,6.9,2.9c2.5,0,5-1,6.9-2.9l36.8-36.8C613,568.5,613,562.3,609.2,558.5z M81.5,380.7c-40-40-62-93.1-62-149.6
	c0-56.5,22-109.7,62-149.6c40-40,93.1-62,149.6-62c56.5,0,109.7,22,149.6,62c40,40,62,93.1,62,149.6c0,56.5-22,109.7-62,149.6
	c-40,40-93.1,62-149.6,62C174.6,442.7,121.5,420.7,81.5,380.7z M565.4,588.4L419.9,442.9l23-23l145.5,145.5L565.4,588.4z"/>
<path fill="none" d="M231.1,182.3c-26.9,0-48.8,21.9-48.8,48.8s21.9,48.8,48.8,48.8c26.9,0,48.8-21.9,48.8-48.8
	S258.1,182.3,231.1,182.3z M231.1,260.4c-16.2,0-29.3-13.1-29.3-29.3s13.1-29.3,29.3-29.3c16.2,0,29.3,13.1,29.3,29.3
	S247.3,260.4,231.1,260.4z"/>
<path fill="none" d="M310.5,193.2l23.1-23.1c3.4-3.4,3.8-8.7,1-12.6c-8.3-11.6-18.3-21.7-29.9-29.9c-3.9-2.8-9.2-2.3-12.6,1
	L269,151.8c-2.8-1.3-5.7-2.5-8.6-3.6v-32.7c0-4.8-3.4-8.8-8.1-9.6c-7.1-1.2-14.2-1.8-21.2-1.8c-7,0-14.1,0.6-21.2,1.8
	c-4.7,0.8-8.1,4.9-8.1,9.6v32.7c-2.9,1-5.8,2.2-8.6,3.6l-23.1-23.1c-3.4-3.4-8.7-3.8-12.6-1.1c-11.6,8.3-21.7,18.3-29.9,29.9
	c-2.8,3.9-2.3,9.2,1.1,12.6l23.1,23.1c-1.3,2.8-2.5,5.7-3.6,8.6h-32.7c-4.8,0-8.8,3.4-9.6,8.1c-1.2,7.1-1.8,14.2-1.8,21.2
	c0,7,0.6,14.1,1.8,21.1c0.8,4.7,4.9,8.1,9.6,8.1h32.7c1,2.9,2.2,5.8,3.6,8.6l-23.1,23.1c-3.4,3.4-3.8,8.7-1,12.6
	c8.3,11.6,18.3,21.7,29.9,29.9c3.9,2.8,9.2,2.3,12.6-1l23.1-23.1c2.8,1.3,5.7,2.5,8.6,3.6v32.7c0,4.8,3.4,8.8,8.1,9.6
	c7.1,1.2,14.2,1.8,21.2,1.8c7,0,14.1-0.6,21.2-1.8c4.7-0.8,8.1-4.9,8.1-9.6V314c2.9-1,5.8-2.2,8.6-3.6l23.1,23.1
	c3.4,3.4,8.7,3.8,12.6,1c11.6-8.3,21.7-18.3,29.9-29.9c2.8-3.9,2.3-9.2-1-12.6L310.5,269c1.3-2.8,2.5-5.7,3.6-8.6h32.7
	c4.8,0,8.8-3.4,9.6-8.1c1.2-7.1,1.8-14.2,1.8-21.1c0-7-0.6-14.1-1.8-21.1c-0.8-4.7-4.9-8.1-9.6-8.1H314
	C313,198.9,311.8,196,310.5,193.2z M338.6,231.1c0,3.2-0.2,6.5-0.5,9.8h-31.3c-4.5,0-8.3,3-9.5,7.3c-1.6,6.1-4,12.1-7.3,17.6
	c-2.3,3.8-1.6,8.7,1.5,11.9l22.1,22.1c-4.2,5-8.8,9.6-13.8,13.8l-22.1-22.1c-3.2-3.2-8-3.8-11.9-1.5c-5.5,3.3-11.5,5.7-17.6,7.3
	c-4.3,1.1-7.3,5-7.3,9.5v31.3c-6.6,0.6-13,0.6-19.5,0v-31.3c0-4.5-3-8.3-7.3-9.5c-6.1-1.6-12.1-4-17.6-7.3
	c-3.8-2.3-8.7-1.6-11.9,1.5l-22.1,22.1c-5-4.2-9.6-8.8-13.8-13.8l22.1-22.1c3.2-3.2,3.8-8,1.5-11.9c-3.3-5.5-5.7-11.5-7.3-17.6
	c-1.1-4.3-5-7.3-9.5-7.3h-31.3c-0.3-3.3-0.5-6.5-0.5-9.8c0-3.2,0.2-6.5,0.5-9.8h31.3c4.5,0,8.3-3,9.5-7.3c1.6-6.1,4-12.1,7.3-17.6
	c2.3-3.8,1.6-8.7-1.5-11.9l-22.1-22.1c4.2-5,8.8-9.6,13.8-13.8l22.1,22.1c3.2,3.2,8,3.8,11.9,1.5c5.5-3.3,11.5-5.7,17.6-7.3
	c4.3-1.1,7.3-5,7.3-9.5v-31.3c6.6-0.6,13-0.6,19.5,0v31.3c0,4.5,3,8.3,7.3,9.5c6.1,1.6,12.1,4,17.6,7.3c3.8,2.3,8.7,1.6,11.9-1.5
	l22.1-22.1c5,4.2,9.6,8.8,13.8,13.8l-22.1,22.1c-3.2,3.2-3.8,8-1.5,11.9c3.3,5.5,5.7,11.5,7.3,17.6c1.1,4.3,5,7.3,9.5,7.3h31.3
	C338.4,224.6,338.6,227.9,338.6,231.1z"/>
<path fill="none" d="M371.5,120c-3.4-4.2-9.5-4.9-13.7-1.6c-4.2,3.4-4.9,9.5-1.6,13.7c50.3,63.4,45.1,154.5-12.3,211.8
	c-62.2,62.2-163.4,62.2-225.6,0c-62.2-62.2-62.2-163.4,0-225.6c57.3-57.3,148.4-62.6,211.8-12.3c4.2,3.4,10.4,2.6,13.7-1.6
	c3.4-4.2,2.6-10.4-1.6-13.7c-71.2-56.5-173.4-50.6-237.8,13.8c-69.8,69.8-69.8,183.4,0,253.2c34.9,34.9,80.8,52.4,126.6,52.4
	c45.9,0,91.7-17.5,126.6-52.4C422.1,293.4,428,191.2,371.5,120z"/>
</svg>
