<?xml version="1.0" encoding="utf-8"?>
<!-- Generator: Adobe Illustrator 18.1.1, SVG Export Plug-In . SVG Version: 6.00 Build 0)  -->
<svg version="1.1" id="Layer_1" xmlns="http://www.w3.org/2000/svg" xmlns:xlink="http://www.w3.org/1999/xlink" x="0px" y="0px"
	 viewBox="0 0 443 612" enable-background="new 0 0 443 612" xml:space="preserve">
<path fill="none" d="M396.8,441.2c-5.4,0-9.8,4.4-9.8,9.8v141.5H260c-5.4,0-9.8,4.4-9.8,9.8c0,5.4,4.4,9.8,9.8,9.8h136.7
	c5.4,0,9.8-4.4,9.8-9.8V450.9C406.5,445.6,402.2,441.2,396.8,441.2z"/>
<path fill="none" d="M441.7,408.1l-36-86.4c-1.5-3.6-5.1-6-9-6H45.2c-3.9,0-7.5,2.4-9,6l-36,86.4c-1.3,3-0.9,6.5,0.9,9.2
	c1.8,2.7,4.9,4.3,8.1,4.3h26.2v180.6c0,5.4,4.4,9.8,9.8,9.8H221c5.4,0,9.8-4.4,9.8-9.8V374.4l17.2,41.3c1.5,3.6,5.1,6,9,6h175.8
	c3.3,0,6.3-1.6,8.1-4.3C442.7,414.6,443,411.1,441.7,408.1z M51.7,335.3h154.6l-27.8,66.8H23.9L51.7,335.3z M55,592.5V421.6H185
	c3.9,0,7.5-2.4,9-6l17.2-41.3v218.1H55z M263.5,402.1l-27.8-66.8h154.6l27.8,66.8H263.5z"/>
<path fill="none" d="M156,228l5.4,21.7c1.1,4.4,5,7.4,9.5,7.4h100.2c4.5,0,8.4-3.1,9.5-7.4L286,228c36-22.4,58.2-62.2,58.2-104.8
	C344.2,55.3,288.9,0,221,0S97.8,55.3,97.8,123.3C97.8,165.9,120,205.6,156,228z M221,19.5c57.2,0,103.7,46.5,103.7,103.7
	c0,37-20,71.5-52.1,90c-2.3,1.3-4,3.5-4.6,6.1l-4.5,18.3h-84.9l-4.5-18.3c-0.6-2.6-2.3-4.8-4.6-6.1c-32.1-18.5-52.1-53-52.1-90
	C117.3,66.1,163.8,19.5,221,19.5z"/>
<path fill="none" d="M271.1,276.7H170.9c-5.4,0-9.8,4.4-9.8,9.8c0,5.4,4.4,9.8,9.8,9.8h100.2c5.4,0,9.8-4.4,9.8-9.8
	C280.8,281.1,276.5,276.7,271.1,276.7z"/>
<path fill="none" d="M192,210.7c1.1,4.4,5.1,7.4,9.5,7.4c0.8,0,1.6-0.1,2.4-0.3c5.2-1.3,8.4-6.6,7.1-11.8l-8.6-34.8h37.4L231,206
	c-1.3,5.2,1.9,10.5,7.1,11.8c0.8,0.2,1.6,0.3,2.4,0.3c4.4,0,8.4-3,9.5-7.4l11.6-46.9c0-0.1,0-0.1,0-0.2c0-0.2,0.1-0.4,0.1-0.6
	c0-0.1,0-0.3,0.1-0.4c0-0.2,0-0.3,0-0.5c0-0.2,0-0.4,0-0.6c0-0.1,0-0.1,0-0.2c0-0.1,0-0.2,0-0.2c0-0.2,0-0.4,0-0.6
	c0-0.1,0-0.3,0-0.4c0-0.2,0-0.4-0.1-0.5c0-0.2-0.1-0.3-0.1-0.5c0-0.2-0.1-0.3-0.1-0.4c0-0.2-0.1-0.3-0.2-0.5c0-0.1-0.1-0.3-0.1-0.4
	c-0.1-0.2-0.1-0.3-0.2-0.5c-0.1-0.1-0.1-0.2-0.2-0.3c-0.1-0.2-0.2-0.3-0.3-0.5c-0.1-0.1-0.1-0.2-0.2-0.3c-0.1-0.1-0.2-0.3-0.3-0.4
	c-0.1-0.1-0.2-0.2-0.3-0.4c-0.1-0.1-0.2-0.2-0.3-0.4c-0.1-0.1-0.2-0.2-0.3-0.4c-0.1-0.1-0.2-0.2-0.3-0.3c-0.1-0.1-0.3-0.2-0.4-0.4
	c-0.1-0.1-0.2-0.2-0.3-0.3c-0.1-0.1-0.3-0.2-0.4-0.3c-0.1-0.1-0.2-0.2-0.4-0.2c-0.1-0.1-0.3-0.2-0.4-0.3c-0.1-0.1-0.3-0.2-0.4-0.2
	c-0.1-0.1-0.3-0.1-0.4-0.2c-0.2-0.1-0.3-0.1-0.5-0.2c-0.1,0-0.2-0.1-0.4-0.1c-0.2-0.1-0.4-0.1-0.6-0.2c-0.1,0-0.1,0-0.2-0.1
	c-0.1,0-0.1,0-0.2,0c-0.2,0-0.4-0.1-0.6-0.1c-0.2,0-0.3-0.1-0.5-0.1c-0.1,0-0.3,0-0.4,0c-0.2,0-0.4,0-0.6,0c0,0-0.1,0-0.1,0h-62.3
	c-3,0-5.8,1.4-7.7,3.8c-1.9,2.4-2.5,5.5-1.8,8.4L192,210.7z"/>
</svg>
