<?xml version="1.0" encoding="utf-8"?>
<!-- Generator: Adobe Illustrator 18.1.1, SVG Export Plug-In . SVG Version: 6.00 Build 0)  -->
<svg version="1.1" id="Layer_1" xmlns="http://www.w3.org/2000/svg" xmlns:xlink="http://www.w3.org/1999/xlink" x="0px" y="0px"
	 viewBox="0 0 512 417" enable-background="new 0 0 512 417" xml:space="preserve">
<path fill="none" d="M435.7,63.2c-21,0-38,16.8-38,37.5c0,20.7,17.1,37.5,38,37.5c21,0,38-16.8,38-37.5
	C473.8,80,456.7,63.2,435.7,63.2z M435.7,123.3c-12.7,0-23-10.1-23-22.5c0-12.4,10.3-22.5,23-22.5c12.7,0,23,10.1,23,22.5
	S448.4,123.3,435.7,123.3z"/>
<path fill="none" d="M478.1,300.4H477c-0.4-7.8-2.9-15-6.9-21.1c8-22.1,12.4-45.9,12.4-70.7c0-15.5-1.7-30.5-4.9-45.1
	c21.1-13.7,34.4-37.3,34.4-62.7c0-18-6.6-35.4-18.5-49c-2.7-3.1-7.5-3.4-10.6-0.7c-3.1,2.7-3.4,7.5-0.7,10.6
	c9.5,10.9,14.8,24.8,14.8,39.1c0,24.7-15.8,47.2-39.3,56.1c-1.6,0.6-2.9,1.7-3.8,3.2l-18.2,31l-18.2-31c-0.9-1.5-2.2-2.6-3.8-3.2
	c-23.5-8.9-39.3-31.4-39.3-56.1c0-33.1,27.5-60.1,61.3-60.1c6.5,0,12.9,1,19,2.9c3.9,1.3,8.2-0.9,9.4-4.9c1.3-3.9-0.9-8.2-4.9-9.4
	c-7.6-2.4-15.5-3.7-23.6-3.7c-15.5,0-29.9,4.6-41.9,12.4c-34-23.9-75.4-38-120-38C184.6,0,108.3,56.2,78.5,135.1
	c-22.3,4.8-39.2,24.4-39.7,48H36c-19.8,0-36,16.1-36,35.9c0,19.8,16.1,35.9,36,35.9h34.4c8.5,37.3,27.1,70.8,52.6,97.5
	c0.4,0.6,1,1.2,1.6,1.6c37.9,38.8,90.8,62.9,149.3,62.9c54.2,0,103.6-20.7,140.7-54.7h63.6c17.1,0,31-13.9,31-31
	C509.1,314.3,495.2,300.4,478.1,300.4z M464.1,172.3c1.8,9.4,2.9,19,3.3,28.7h-20.1L464.1,172.3z M405.9,169.8l18.3,31.2h-41.6
	c-0.3-17.4-1.7-34.5-4.2-50.9C385.8,158.5,395.2,165.3,405.9,169.8z M382.6,216h84.8c-0.7,17.8-3.8,35-9,51.3
	c-6.9-4.7-15.2-7.4-24.1-7.4c-15,0-28.9,8-36.5,20.6c-3-0.9-6.2-1.4-9.4-1.4c-4.4,0-8.6,0.9-12.5,2.4
	C379.9,260.7,382.1,238.7,382.6,216z M381.6,47.8c-8.1,8-14.4,17.9-18.2,28.9c-1.5,0.3-3.1,0.6-4.6,0.9c-2.1-5-4.3-9.9-6.7-14.5
	c-8.8-17.5-19-31.5-30.1-41.9C343.6,26.6,363.7,35.7,381.6,47.8z M281.3,15.6c21.3,3.6,41.5,22.5,57.4,54.1
	c1.7,3.3,3.3,6.8,4.8,10.3c-19.7,2.8-40.6,4.4-62.2,4.7V15.6z M281.3,99.7c23.6-0.3,46.5-2.2,67.9-5.4c11.2,31,17.6,67.8,18.3,106.7
	h-86.2V99.7z M266.3,99.7V201h-49.3c-6.2-10.7-17.8-17.9-31.1-17.9h-5c0-0.1-0.1-0.2-0.1-0.3c2.1-32.1,8.1-62.3,17.5-88.5
	C219.8,97.6,242.7,99.4,266.3,99.7z M266.3,15.6v69.1c-21.6-0.3-42.6-1.9-62.2-4.7c1.5-3.5,3.1-7,4.8-10.3
	C224.8,38.1,245,19.2,266.3,15.6z M225.6,21.1c-11.1,10.4-21.3,24.5-30.1,41.9c-2.4,4.7-4.6,9.5-6.7,14.6
	c-16.5-3-31.9-6.9-45.9-11.6C166.1,44.8,194.3,29.1,225.6,21.1z M131.2,77.7c15.6,5.8,33.2,10.5,52.2,14.1
	c-7.7,22.1-13.1,46.8-16,72.9c-6.4-4.7-14.3-7.4-22.8-7.4c-4.1,0-8.2,0.7-12.1,1.9c-7.9-13.6-21.9-22.9-37.6-24.8
	C103.7,113.4,116,94.2,131.2,77.7z M85.8,254.9H118c4.1,0,7.5-3.4,7.5-7.5c0-4.1-3.4-7.5-7.5-7.5H36c-11.6,0-21-9.4-21-20.9
	c0-11.5,9.4-20.9,21-20.9h10.8c2.2,0,4.3-1,5.7-2.6c1.4-1.7,2.1-3.9,1.7-6c-0.3-1.8-0.4-3.5-0.4-5.3c0-19.4,15.8-35.1,35.2-35.1
	c14.5,0,27.7,9.1,32.9,22.7c0.8,2.1,2.4,3.7,4.5,4.4c2.1,0.7,4.4,0.5,6.3-0.6c3.6-2.1,7.7-3.2,11.9-3.2c11.5,0,21.3,8.2,23.2,19.6
	c0.6,3.6,3.7,6.3,7.4,6.3H186c11.6,0,21,9.4,21,20.9c0,11.5-9.4,20.9-21,20.9h-31c-4.1,0-7.5,3.4-7.5,7.5c0,4.1,3.4,7.5,7.5,7.5
	h12.7c2.9,25.2,8.2,48.9,15.7,70.3c-19,3.6-36.6,8.3-52.2,14.1C109.6,315.8,93.7,286.9,85.8,254.9z M143,351
	c13.9-4.7,29.4-8.6,45.9-11.6c2.1,5,4.3,9.9,6.7,14.6c8.8,17.5,19,31.5,30.1,41.9C194.3,387.9,166.1,372.2,143,351z M266.3,401.4
	c-21.3-3.6-41.5-22.5-57.4-54.1c-1.7-3.3-3.3-6.8-4.8-10.3c19.7-2.8,40.6-4.4,62.2-4.7V401.4z M273.8,296.9c-4.1,0-7.5,3.4-7.5,7.5
	v12.9c-23.6,0.3-46.5,2.2-67.9,5.4c-7.4-20.4-12.7-43.4-15.6-67.7h3.2c19.8,0,36-16.1,36-35.9c0-1-0.1-2-0.1-3h44.5v47.5
	c0,4.1,3.4,7.5,7.5,7.5s7.5-3.4,7.5-7.5V216h86.2c-0.6,29.9-4.5,58.6-11.3,84.4h-2c-13,0-24.1,8-28.7,19.4
	c-14.3-1.4-29.1-2.2-44.1-2.4v-12.9C281.3,300.3,278,296.9,273.8,296.9z M281.3,401.4v-69.1c14.4,0.2,28.4,1,42,2.3
	c0.9,8.3,5,15.6,11.1,20.6C319.3,382,300.8,398.1,281.3,401.4z M322.1,395.9c9.4-8.8,18.2-20.3,26-34.3c2,0.4,4.1,0.6,6.2,0.6h37.1
	C371,377.8,347.5,389.4,322.1,395.9z M478.1,347.3H354.2c-8.8,0-16-7.2-16-16c0-8.8,7.2-16,16-16h8.9c3.7,0,6.8-2.6,7.4-6.3
	c1.5-8.7,9-15.1,17.9-15.1c3.2,0,6.4,0.9,9.2,2.5c1.9,1.1,4.2,1.3,6.3,0.6c2.1-0.7,3.7-2.3,4.5-4.4c4.1-10.7,14.5-17.9,26-17.9
	c15.3,0,27.8,12.4,27.8,27.7c0,1.4-0.1,2.8-0.3,4.2c-0.3,2.2,0.3,4.4,1.7,6c1.4,1.7,3.5,2.6,5.7,2.6h8.9c8.8,0,16,7.2,16,16
	C494.1,340.1,487,347.3,478.1,347.3z"/>
</svg>
