<?xml version="1.0" encoding="utf-8"?>
<!-- Generator: Adobe Illustrator 18.1.1, SVG Export Plug-In . SVG Version: 6.00 Build 0)  -->
<svg version="1.1" id="Layer_1" xmlns="http://www.w3.org/2000/svg" xmlns:xlink="http://www.w3.org/1999/xlink" x="0px" y="0px"
	 viewBox="0 0 26 33" enable-background="new 0 0 26 33" xml:space="preserve">
<path fill-rule="evenodd" clip-rule="evenodd" d="M24.7,7.6L24.7,7.6h-3.9v-2h1.8C17,0.5,8.2,0.7,2.8,6.2L2.1,6.9L0.7,5.5l0.7-0.7
	C4.6,1.6,8.8,0,13,0c4,0,7.9,1.4,11,4.3V2.4H26v3.8v0v1.3H24.7z M3.6,16.5c0-2.5,1-4.8,2.6-6.5c1.7-1.8,4.2-3,6.9-3
	c5.2,0,9.4,4.3,9.4,9.5c0,5.2-4.2,9.5-9.4,9.5C7.8,26,3.6,21.7,3.6,16.5z M13.8,22.6c0-0.3,0-0.6,0-0.8c0-0.3,0.1-0.4,0.4-0.5
	c0.6-0.2,1.2-0.5,1.6-1c1.1-1.4,0.7-3.4-0.9-4.3c-0.5-0.3-1-0.5-1.6-0.7c-0.3-0.1-0.6-0.3-0.9-0.5c-0.5-0.4-0.4-1.1,0.2-1.4
	c0.2-0.1,0.4-0.1,0.5-0.1c0.7,0,1.4,0.1,2,0.4c0.3,0.2,0.4,0.1,0.5-0.2c0.1-0.4,0.2-0.7,0.3-1.1c0.1-0.2,0-0.4-0.2-0.5
	c-0.4-0.2-0.8-0.3-1.3-0.4c-0.6-0.1-0.6-0.1-0.6-0.7c0-0.8,0-0.8-0.8-0.8c-0.1,0-0.2,0-0.4,0c-0.4,0-0.4,0.1-0.5,0.5
	c0,0.2,0,0.3,0,0.5c0,0.5,0,0.5-0.5,0.7c-1.2,0.4-1.9,1.2-2,2.5c-0.1,1.1,0.5,1.9,1.5,2.5c0.6,0.4,1.2,0.6,1.8,0.8
	c0.2,0.1,0.5,0.2,0.7,0.4c0.6,0.5,0.5,1.3-0.2,1.6c-0.4,0.2-0.8,0.2-1.2,0.2c-0.6-0.1-1.2-0.2-1.8-0.5c-0.3-0.2-0.4-0.1-0.5,0.2
	c-0.1,0.3-0.2,0.6-0.3,0.9C9.6,20.7,9.6,20.8,10,21c0.5,0.2,1,0.4,1.6,0.5c0.4,0.1,0.4,0.1,0.4,0.5c0,0.2,0,0.4,0,0.6
	c0,0.3,0.1,0.4,0.4,0.4c0.3,0,0.6,0,0.9,0C13.6,23,13.8,22.9,13.8,22.6z M1.3,25.4h3.8v2H3.3c5.7,5.1,14.4,4.9,19.9-0.6l0.7-0.7
	l1.4,1.4l-0.7,0.7C21.4,31.4,17.2,33,13,33c-4,0-7.9-1.4-11-4.3v1.9H0v-3.9v0v-1.3H1.3L1.3,25.4z"/>
</svg>
