<?xml version="1.0" encoding="utf-8"?>
<!-- Generator: Adobe Illustrator 18.1.1, SVG Export Plug-In . SVG Version: 6.00 Build 0)  -->
<svg version="1.1" id="Layer_1" xmlns="http://www.w3.org/2000/svg" xmlns:xlink="http://www.w3.org/1999/xlink" x="0px" y="0px"
	 viewBox="0 0 54 54" enable-background="new 0 0 54 54" xml:space="preserve">
<path fill-rule="evenodd" clip-rule="evenodd" d="M47.6,44.6l3.9,3.9H38.3V35.3l3.8,3.8c4.5-5.2,5.4-12.5,2.6-18.6l7-3.3
	C55.8,26.1,54.5,37,47.6,44.6z M39.1,11.9c-5.2-4.5-12.5-5.4-18.6-2.6l-3.3-7C26.1-1.8,37-0.5,44.6,6.4l3.9-3.9v13.2H35.3L39.1,11.9
	z M27,16.4c5.8,0,10.6,4.7,10.6,10.6c0,5.8-4.7,10.6-10.6,10.6c-5.8,0-10.6-4.7-10.6-10.6C16.4,21.2,21.2,16.4,27,16.4z M9.3,33.5
	l-7,3.3C-1.8,27.9-0.5,17,6.4,9.4L2.5,5.5h13.2v13.2l-3.8-3.8C7.4,20.2,6.5,27.5,9.3,33.5z M14.9,42.1c5.2,4.5,12.6,5.4,18.6,2.6
	l3.3,7c-8.9,4.2-19.8,2.8-27.4-4.1l-3.9,3.9V38.3h13.2L14.9,42.1z"/>
</svg>
