<?xml version="1.0" encoding="utf-8"?>
<!-- Generator: Adobe Illustrator 18.1.1, SVG Export Plug-In . SVG Version: 6.00 Build 0)  -->
<svg version="1.1" id="Layer_1" xmlns="http://www.w3.org/2000/svg" xmlns:xlink="http://www.w3.org/1999/xlink" x="0px" y="0px"
	 viewBox="0 0 44 44" enable-background="new 0 0 44 44" xml:space="preserve">
<path fill-rule="evenodd" clip-rule="evenodd" d="M43.6,41.8L32.9,31.1c2.9-3.3,4.6-7.6,4.6-12.3C37.5,8.4,29.1,0,18.8,0
	C8.4,0,0,8.4,0,18.8c0,10.3,8.4,18.8,18.8,18.8c4.7,0,9-1.7,12.3-4.6l10.7,10.7c0.3,0.3,0.6,0.4,0.9,0.4c0.3,0,0.7-0.1,0.9-0.4
	C44.1,43.1,44.1,42.3,43.6,41.8z M2.6,18.8c0-8.9,7.2-16.1,16.1-16.1c8.9,0,16.1,7.2,16.1,16.1c0,8.9-7.2,16.1-16.1,16.1
	C9.9,34.9,2.6,27.7,2.6,18.8z"/>
</svg>
