<?xml version="1.0" encoding="iso-8859-1"?>
<!-- Generator: Adobe Illustrator 16.0.0, SVG Export Plug-In . SVG Version: 6.00 Build 0)  -->
<!DOCTYPE svg PUBLIC "-//W3C//DTD SVG 1.1//EN" "http://www.w3.org/Graphics/SVG/1.1/DTD/svg11.dtd">
<svg xmlns="http://www.w3.org/2000/svg" xmlns:xlink="http://www.w3.org/1999/xlink" version="1.1" id="Capa_1" x="0px" y="0px" width="512px" height="512px" viewBox="0 0 33.519 33.519" style="enable-background:new 0 0 33.519 33.519;" xml:space="preserve">
<g>
	<path d="M33.513,17.718c0.133-0.535-2.012-3.83-2.012-3.83s0.455-0.803,0.562-1.232c0.107-0.428,0.002-2.732-1.393-5.357   c-1.393-2.625-4.582-3.563-8.84-3.027c-2.188,0.275-3.91,1.545-5.073,3.064c-1.163-1.52-2.884-2.789-5.072-3.064   c-4.26-0.535-7.448,0.402-8.84,3.027c-1.395,2.625-1.5,4.93-1.393,5.357c0.108,0.43,0.562,1.232,0.562,1.232   s-2.143,3.295-2.01,3.83c0.136,0.537,1.605,0.826,1.605,0.826s0.133,0.372-0.136,1.096c-0.268,0.724,0.499,1.562,0.729,1.855   c0.227,0.292-0.322,1.205-0.136,1.715c0.188,0.509,1.073,1.125,2.089,0.991c1.019-0.135,2.326-0.376,2.78-0.457   c1.024,2.412-2.445,5.646-2.445,5.646h24.531c0,0-3.469-3.234-2.445-5.646c0.453,0.081,1.76,0.322,2.779,0.457   c1.018,0.134,1.902-0.482,2.09-0.991c0.186-0.51-0.363-1.423-0.137-1.715c0.23-0.293,0.998-1.133,0.729-1.855   c-0.268-0.724-0.135-1.096-0.135-1.096S33.376,18.255,33.513,17.718z M22.613,14.904l-0.018,0.001   c-0.084,1.776-0.73,2.771-1.367,3.723c-0.65,0.977-1.971,1.915-2.041,3.755c0.074,0.092,0.834,0.203,0.834,0.33v2.723   c0,0.719-0.877,1.108-1.92,1.276c0.008,0.039,0.02,0.077,0.02,0.117c0,0.462-0.61,0.835-1.363,0.835c-0.75,0-1.36-0.373-1.36-0.835   c0-0.04,0.012-0.078,0.02-0.117c-1.043-0.168-1.92-0.559-1.92-1.276v-2.723c0-0.127,0.759-0.238,0.833-0.33   c-0.069-1.84-1.389-2.778-2.04-3.755c-0.317-0.477-0.638-0.964-0.893-1.552c-0.003-0.008-0.01-0.015-0.015-0.023   c-0.004-0.014-0.008-0.028-0.013-0.042c-0.059-0.138-0.11-0.284-0.161-0.435c-0.011-0.039-0.028-0.08-0.042-0.119   c-0.052-0.182-0.102-0.373-0.141-0.579c-0.028-0.148-0.044-0.305-0.063-0.462c-0.006-0.061-0.018-0.115-0.025-0.178   c-0.02-0.228-0.032-0.463-0.032-0.709c0-3.229,2.626-5.853,5.852-5.853c0.179,0,0.371,0.007,0.565,0.028   c0.052,0.004,0.101,0.014,0.153,0.021c0.02,0.002,0.04,0.004,0.058,0.007c2.862,0.382,5.079,2.831,5.079,5.796V14.904z" fill="#D80027"/>
</g>
<g>
</g>
<g>
</g>
<g>
</g>
<g>
</g>
<g>
</g>
<g>
</g>
<g>
</g>
<g>
</g>
<g>
</g>
<g>
</g>
<g>
</g>
<g>
</g>
<g>
</g>
<g>
</g>
<g>
</g>
</svg>
