<?xml version="1.0" encoding="utf-8"?><svg xmlns="http://www.w3.org/2000/svg" xmlns:xlink="http://www.w3.org/1999/xlink"><symbol viewBox="0 0 11 35" id="arrow-down-long" xmlns="http://www.w3.org/2000/svg"><path fill-rule="evenodd" clip-rule="evenodd" d="M6.5 0v25.9c1.8-1.3 3-1.9 4.5-1.9-2.7 2.8-4.2 6.5-5.5 11-1.3-4.5-2.9-8-5.5-11 1.7.2 2.8.7 4.7 2V0h1.8z"/></symbol><symbol viewBox="0 0 17 17" id="calendar" xmlns="http://www.w3.org/2000/svg"><path clip-rule="evenodd" d="M2.1 2.7V.5c0-.3.3-.5.6-.5s.5.2.5.5v2.1c0 .3-.2.5-.5.5-.3.1-.6-.2-.6-.4zm9.1.5c.3 0 .5-.2.5-.5V.5c0-.3-.2-.5-.5-.5s-.5.2-.5.5v2.1c-.1.3.2.6.5.6zm5.8 9.5c0 2.3-1.9 4.3-4.3 4.3-2.3 0-4.3-1.9-4.3-4.3s1.9-4.2 4.3-4.2 4.3 1.9 4.3 4.2zm-1.1 0c0-1.8-1.4-3.2-3.2-3.2S9.6 11 9.6 12.7c0 1.8 1.4 3.2 3.2 3.2s3.1-1.4 3.1-3.2zM4.2 6.4H2.1v2.1h2.1V6.4zm-2.1 5.3h2.1V9.6H2.1v2.1zm3.2-3.2h2.1V6.4H5.3v2.1zm0 3.2h2.1V9.6H5.3v2.1zm-4.2.9V5.3h11.7v2.1h1.1V3.3c0-.6-.5-1.2-1.2-1.2h-.4v.5c0 .6-.5 1.1-1.1 1.1-.6 0-1.1-.5-1.1-1.1v-.5H3.7v.5c0 .6-.5 1.1-1.1 1.1-.6 0-1.1-.5-1.1-1.1v-.5h-.3C.5 2.1 0 2.6 0 3.3v9.4c0 .6.5 1.2 1.2 1.2h6.3v-1.1H1.2c-.1-.1-.1-.1-.1-.2zm9.5-4.1V6.4H8.5v2.1h2.1zm3.7 4.2h-1.6v-1.6c0-.3-.2-.5-.5-.5s-.5.2-.5.5v2.1c0 .3.2.5.5.5h2.1c.3 0 .5-.2.5-.5.1-.2-.2-.5-.5-.5z"/></symbol><symbol viewBox="0 0 442.533 442.533" id="check" xmlns="http://www.w3.org/2000/svg"><path d="M434.539 98.499l-38.828-38.828c-5.324-5.328-11.799-7.993-19.41-7.993-7.618 0-14.093 2.665-19.417 7.993L169.59 247.248l-83.939-84.225c-5.33-5.33-11.801-7.992-19.412-7.992-7.616 0-14.087 2.662-19.417 7.992L7.994 201.852C2.664 207.181 0 213.654 0 221.269c0 7.609 2.664 14.088 7.994 19.416l103.351 103.349 38.831 38.828c5.327 5.332 11.8 7.994 19.414 7.994 7.611 0 14.084-2.669 19.414-7.994l38.83-38.828L434.539 137.33c5.325-5.33 7.994-11.802 7.994-19.417.004-7.611-2.669-14.084-7.994-19.414z"/></symbol><symbol viewBox="0 0 27 27" id="click" xmlns="http://www.w3.org/2000/svg"><path fill-rule="evenodd" clip-rule="evenodd" d="M23.1 14.5c-2.1 0-3.9-1.7-3.9-3.9 0-2.1 1.7-3.9 3.9-3.9 2.1 0 3.9 1.7 3.9 3.9 0 2.1-1.7 3.9-3.9 3.9zm0-4.9h1.2v-1h-2.1l-.3 2.4c.3-.1.5-.1.7-.1.2 0 .4 0 .5.1.1.1.2.2.2.3 0 .1-.1.2-.2.3-.1.1-.2.1-.4.1-.3 0-.6-.1-.9-.3l-.1 1c.4.2.8.3 1.1.3.5 0 .8-.1 1.1-.4.3-.3.5-.6.5-1.1 0-.4-.1-.7-.4-.9-.2-.2-.5-.4-.9-.4h-.2l.2-.3zm-3.8-3.8c-1.6 0-2.9-1.3-2.9-2.9 0-1.6 1.3-2.9 2.9-2.9 1.6 0 2.9 1.3 2.9 2.9 0 1.6-1.3 2.9-2.9 2.9zm.5-4.5h-1.2v.8h.4v2.5h.9V1.3zm-8.1 4.9l2.7-2.7 1.4 1.4-2.7 2.7-1.4-1.4zm1.8 2.5h3.9v1.9h-3.9V8.7zm3.5 8.9l.1.1c.3.3.3.7 0 1l-6.6 6.6c-1.1 1-2.6 1.7-4.3 1.7C2.8 27 0 24.2 0 20.8v-3.2c0-.7.4-1.3 1-1.7l4.2-2.4c.3-.2.7-.4 1.1-.4.6 0 1.1.3 1.5.7V9.6c0-1.1.9-1.9 1.9-1.9s1.9.9 1.9 1.9v9.2l.7-.7c1.3-1.3 3.2-1.5 4.7-.5zM8.7 1.9h1.9v3.9H8.7V1.9zm-2.9 8.7H1.9V8.7h3.9v1.9zM3.5 4.9l1.4-1.4 2.7 2.7-1.4 1.4-2.7-2.7z"/></symbol><symbol viewBox="0 0 357 357" id="close" xmlns="http://www.w3.org/2000/svg"><path d="M357 35.7L321.3 0 178.5 142.8 35.7 0 0 35.7l142.8 142.8L0 321.3 35.7 357l142.8-142.8L321.3 357l35.7-35.7-142.8-142.8z"/></symbol><symbol viewBox="0 0 61 49" id="comp" xmlns="http://www.w3.org/2000/svg"><path fill-rule="evenodd" clip-rule="evenodd" d="M59.2 40.3H39.1c.8 3.8 2.6 5.7 2.6 5.7.5.5.6 1.3.4 1.9-.3.6-.9 1.1-1.6 1.1H20.6c-.7 0-1.3-.4-1.6-1.1-.3-.6-.1-1.4.4-1.9 0 0 1.8-2 2.6-5.7H1.8c-1 0-1.8-.8-1.8-1.8V1.7C0 .8.8 0 1.8 0h57.5c1 0 1.8.8 1.8 1.7v36.8c-.1 1-.9 1.8-1.9 1.8zM57.5 3.5h-54v33.3h42.2v-.5c0-1 .8-1.8 1.8-1.8s1.8.8 1.8 1.8v.5h1.8v-.5c0-1 .8-1.8 1.8-1.8s1.8.8 1.8 1.8v.5h2.9V3.5zM42.6 17.9h7.2v14h-7.2v-14zM11.2 7.5h38.5v6H11.2v-6zM37.6 32H11.2V18h26.3v14z"/></symbol><symbol viewBox="0 0 35 34" id="corporate" xmlns="http://www.w3.org/2000/svg"><path clip-rule="evenodd" d="M31.8 21.5c-1.6 0-2.9-1.2-3.1-2.7l-3.9-.4c.1-.5.2-1 .2-1.5v-.1l3.9.4c.4-1.2 1.6-2.1 3-2.1 1.7 0 3.2 1.4 3.2 3.2-.1 1.7-1.5 3.2-3.3 3.2zm-6-15.1c-.3 0-.6-.1-.9-.1l-2.8 4.8c-.4-.3-.9-.6-1.4-.8l2.8-4.8c-.6-.6-.9-1.4-.9-2.2C22.6 1.4 24 0 25.8 0 27.5 0 29 1.4 29 3.2c-.1 1.8-1.5 3.2-3.2 3.2zm-2.6 10.5c0 3-2.4 5.5-5.4 5.5-3 0-5.4-2.5-5.4-5.5s2.4-5.5 5.4-5.5c2.9 0 5.4 2.4 5.4 5.5zM12 12.5l-2.1-2c-.5.3-1.1.5-1.7.5C6.5 10.9 5 9.5 5 7.7 5 6 6.5 4.6 8.2 4.6c1.7 0 3.2 1.4 3.2 3.2 0 .6-.2 1.1-.4 1.5l2.1 2c-.4.4-.8.7-1.1 1.2zm-6.2 7.6l4.9-1.7c.1.5.3 1 .5 1.5l-4.9 1.7v.2c0 1.8-1.4 3.2-3.2 3.2C1.4 25 0 23.6 0 21.8c0-1.8 1.4-3.2 3.2-3.2 1.1 0 2 .6 2.6 1.5zM19.4 28l-.9-3.9c.5-.1 1.1-.2 1.6-.4l.9 3.9c1.7.1 3.1 1.5 3.1 3.2 0 1.8-1.4 3.2-3.2 3.2-1.8 0-3.2-1.4-3.2-3.2 0-1.2.7-2.3 1.7-2.8z"/></symbol><symbol viewBox="0 0 512 464" id="crm" xmlns="http://www.w3.org/2000/svg"><path d="M488.5 0h-465C10.6 0 0 10.6 0 23.5v320.7c0 13 10.6 23.5 23.5 23.5h168.9v49.1h-32.6c-8.6 0-15.5 7-15.5 15.5v16c0 8.6 7 15.5 15.5 15.5h192.4c8.6 0 15.5-7 15.5-15.5v-16c0-8.6-7-15.5-15.5-15.5h-32.6v-49.1h168.9c13 0 23.5-10.6 23.5-23.5V23.5C512 10.6 501.4 0 488.5 0zM352.2 431.9c.3 0 .5.2.5.5v16c0 .3-.2.5-.5.5H159.8c-.3 0-.5-.2-.5-.5v-16c0-.3.2-.5.5-.5H264c4.1 0 7.5-3.4 7.5-7.5s-3.4-7.5-7.5-7.5h-56.6v-49.1h97.2v49.1h-8.5c-4.1 0-7.5 3.4-7.5 7.5s3.4 7.5 7.5 7.5h56.1zM497 344.2c0 4.7-3.8 8.5-8.5 8.5h-465c-4.7 0-8.5-3.8-8.5-8.5V23.5c0-4.7 3.8-8.5 8.5-8.5h464.9c4.7 0 8.5 3.8 8.5 8.5v320.7h.1z"/><path d="M472.4 32.1H39.6c-4.1 0-7.5 3.4-7.5 7.5v288.6c0 4.1 3.4 7.5 7.5 7.5h432.9c4.1 0 7.5-3.4 7.5-7.5V39.6c-.1-4.2-3.4-7.5-7.6-7.5zm-297.1 47h89.2v17.1h-89.2V79.1zm-15 241.6H47.1V79.1h113.3v241.6zm0-256.6H47.1v-17h113.3v17zm304.6 256.6H175.3V111.2h289.6v209.5zM279.5 96.2V79.1h81.2v17.1h-81.2zm185.4-32.1h-24.6c-4.1 0-7.5 3.4-7.5 7.5s3.4 7.5 7.5 7.5h24.6v17.1h-89.2V79.1h32.6c4.1 0 7.5-3.4 7.5-7.5s-3.4-7.5-7.5-7.5h-233v-17h289.6v17z"/><path d="M79.6 96.2h-8c-4.1 0-7.5 3.4-7.5 7.5s3.4 7.5 7.5 7.5h8c4.1 0 7.5-3.4 7.5-7.5s-3.3-7.5-7.5-7.5zm56.2 0h-24c-4.1 0-7.5 3.4-7.5 7.5s3.4 7.5 7.5 7.5h24c4.1 0 7.5-3.4 7.5-7.5s-3.4-7.5-7.5-7.5zm-56.2 32.1h-8c-4.1 0-7.5 3.4-7.5 7.5s3.4 7.5 7.5 7.5h8c4.1 0 7.5-3.4 7.5-7.5 0-4.2-3.3-7.5-7.5-7.5zm56.2 0h-24c-4.1 0-7.5 3.4-7.5 7.5s3.4 7.5 7.5 7.5h24c4.1 0 7.5-3.4 7.5-7.5 0-4.2-3.4-7.5-7.5-7.5zm-56.2 32.1h-8c-4.1 0-7.5 3.4-7.5 7.5s3.4 7.5 7.5 7.5h8c4.1 0 7.5-3.4 7.5-7.5 0-4.2-3.3-7.5-7.5-7.5zm56.2 0h-24c-4.1 0-7.5 3.4-7.5 7.5s3.4 7.5 7.5 7.5h24c4.1 0 7.5-3.4 7.5-7.5 0-4.2-3.4-7.5-7.5-7.5zm-56.2 32h-8c-4.1 0-7.5 3.4-7.5 7.5s3.4 7.5 7.5 7.5h8c4.1 0 7.5-3.4 7.5-7.5s-3.3-7.5-7.5-7.5zm56.2 0h-24c-4.1 0-7.5 3.4-7.5 7.5s3.4 7.5 7.5 7.5h24c4.1 0 7.5-3.4 7.5-7.5s-3.4-7.5-7.5-7.5zm-56.2 32.1h-8c-4.1 0-7.5 3.4-7.5 7.5s3.4 7.5 7.5 7.5h8c4.1 0 7.5-3.4 7.5-7.5s-3.3-7.5-7.5-7.5zm56.2 0h-24c-4.1 0-7.5 3.4-7.5 7.5s3.4 7.5 7.5 7.5h24c4.1 0 7.5-3.4 7.5-7.5s-3.4-7.5-7.5-7.5zm304.6-56.1h-7.2c-3.2 0-6 2-7.1 5L404.3 234l-21.8-60.6c-1.1-3-3.9-5-7.1-5h-7.2c-4.1 0-7.5 3.4-7.5 7.5v80.2c0 4.1 3.4 7.5 7.5 7.5s7.5-3.4 7.5-7.5v-57.2l21.2 58.8c.2.9.6 1.8 1.3 2.8 1.4 2.1 3.8 3.2 6.1 3.2 1.2 0 2.4-.3 3.5-.8 1.7-.9 3-2.4 3.6-4.2.4-1 13.1-36.3 21.5-59.7v57.2c0 4.1 3.4 7.5 7.5 7.5s7.5-3.4 7.5-7.5V176c0-4.3-3.4-7.6-7.5-7.6zm-112.5 61.1c11.9-4.5 20.4-16 20.4-29.5 0-17.4-14.2-31.6-31.5-31.6h-32.1c-4.1 0-7.5 3.4-7.5 7.5v80.2c0 4.1 3.4 7.5 7.5 7.5s7.5-3.4 7.5-7.5v-24.6h19.9l14 27.9c1.3 2.6 4 4.1 6.7 4.1 1.1 0 2.3-.3 3.3-.8 3.7-1.9 5.2-6.4 3.4-10.1l-11.6-23.1zm-11.1-13h-24.6v-33.1h24.6c9.1 0 16.5 7.4 16.5 16.6 0 9.1-7.4 16.5-16.5 16.5zM261 239.6c-3.1-2.7-7.8-2.4-10.6.7-4.7 5.3-11.4 8.3-18.4 8.3-13.5 0-24.6-11-24.6-24.6v-16c0-13.5 11-24.6 24.6-24.6 7 0 13.8 3 18.4 8.3 2.7 3.1 7.5 3.4 10.6.7 3.1-2.7 3.4-7.5.7-10.6-7.5-8.5-18.3-13.4-29.7-13.4-21.8 0-39.6 17.8-39.6 39.6v16c0 21.8 17.7 39.6 39.6 39.6 11.3 0 22.2-4.9 29.7-13.4 2.7-3.2 2.4-7.9-.7-10.6z"/></symbol><symbol viewBox="0 0 39 29" id="details" xmlns="http://www.w3.org/2000/svg"><path fill-rule="evenodd" clip-rule="evenodd" d="M39 17.9l-4.2 4.3v-2.4h-5.5V16h5.5v-2.4l4.2 4.3zM24 5.1c-2.1-1.3-4.4-2-7-2-7.8 0-14 6.5-14 14.5 0 3.2 1 6.1 2.7 8.5l-2.1 2.2C1.3 25.3 0 21.6 0 17.5 0 7.9 7.6 0 16.9 0c3.4 0 6.5 1 9.1 2.8L28.2.4l.8 7.2-6.6-.6L24 5.1zm-14 8.2l-2.1-2.2L10 8.9l2.1 2.2c.9-.6 1.9-1 2.9-1.3V6.7h3v3.1c1.1.2 2.1.6 3 1.3l2.1-2.2 2.1 2.2-2.1 2.2c.6.9 1 1.9 1.2 3h3v3.1h-3c-.2 1.1-.6 2.1-1.2 3l2.1 2.2-2.1 2.2-2.1-2.1c-.9.6-1.9 1-3 1.3v3h-3v-3.1c-1.1-.2-2.1-.6-2.9-1.3L10 26.8l-2.1-2.2 2.1-2.2c-.6-.9-1-1.9-1.2-3h-3v-3.1h3c.2-1.1.6-2.1 1.2-3zm6.6 8c1.8 0 3.3-1.5 3.3-3.4s-1.5-3.4-3.3-3.4c-1.8 0-3.3 1.5-3.3 3.4 0 1.8 1.4 3.4 3.3 3.4z"/></symbol><symbol viewBox="0 0 26 24" id="diagram" xmlns="http://www.w3.org/2000/svg"><path fill-rule="evenodd" clip-rule="evenodd" d="M26 18.6c0 .9-.8 1.6-1.7 1.6H1.7c-.9 0-1.6-.7-1.7-1.6V1.9C0 .8.8 0 1.9 0h22.2c1 0 1.9.8 1.9 1.9v16.7zm-14.5-.2c0 .2.2.4.4.4h2.2c.2 0 .4-.2.4-.4v-.3c0-.2-.2-.4-.4-.4h-2.2c-.2 0-.4.2-.4.4v.3zM24.4 1.9c0-.2-.1-.3-.3-.3H1.9c-.2 0-.3.1-.3.3v13.9c0 .2.1.3.3.3h22.2c.2 0 .3-.1.3-.3V1.9zm-6 6.4l.8-.8c0 .3.1.5.1.8h-.9zm-1.6 0l2.1-2.1c.1.2.2.4.2.6l-1.5 1.5h-.8zm-1.7 0l3.2-3.2c.1.2.2.3.3.5l-2.7 2.7h-.8zm-1.2 0v-.4l3.6-3.6.2.2.2.2-3.6 3.6h-.4zm0-2.1l2.6-2.6c.2.1.3.2.5.3L13.9 7v-.8zm0-1.7L15.4 3c.2.1.4.1.6.2l-2.1 2.1v-.8zm0-1.6h.8l-.8.8v-.8zm-1 11.8c-3 0-5.4-2.4-5.4-5.4 0-3 2.4-5.4 5.4-5.4v5.4h5.4c.1 2.9-2.4 5.4-5.4 5.4zm-5.5 7.9c1.2-.2 1.9-.7 2.3-1.2h6.6c.4.5 1 1 2.3 1.2h-.1c.4 0 .7.3.7.7 0 .4-.3.7-.7.7H7.4c-.4 0-.7-.3-.7-.7 0-.4.3-.7.7-.7z"/></symbol><symbol viewBox="0 0 64 52" id="diamond" xmlns="http://www.w3.org/2000/svg"><path fill-rule="evenodd" clip-rule="evenodd" d="M27.8 1.6L29.1 0H14.5L0 16.9h14.7L27.8 1.6zm-9.6 15.3h27.6l-7.5-8.8L32 .7l-9.5 11.1-4.3 5.1zm-18 2.6l27.4 29.1-13.1-29.1H.2zm46.4 0H17.4l14.5 32.3.1.2 13.8-30.8.8-1.7zM36.5 48.6l27.4-29.1H49.5l-13 29.1zM64 16.9L49.5 0H34.9l14.4 16.9H64z"/></symbol><symbol viewBox="0 0 29 26" id="display-lines" xmlns="http://www.w3.org/2000/svg"><path fill-rule="evenodd" clip-rule="evenodd" d="M27.2 21.8H1.8C.8 21.8 0 21 0 20V1.8C0 .8.8 0 1.8 0h25.5c1 0 1.8.8 1.8 1.8V20c-.1 1-.9 1.8-1.9 1.8zm-.4-19.3H2.2v16.3h24.6V2.5zM6 13.1c.2 0 .5.1.7.2L12 9.1v-.4c0-.7.5-1.2 1.2-1.2s1.2.5 1.2 1.2c0 .1 0 .3-.1.4.9.8 2.2 1.8 2.9 2.5.2-.2.4-.3.7-.3.2 0 .4.1.6.2.8-.7 2.1-1.9 3-2.7-.1-.1-.1-.3-.1-.4 0-.7.5-1.2 1.2-1.2s1.2.5 1.2 1.2-.5 1.2-1.2 1.2c-.2 0-.4-.1-.5-.1L19 12.2c0 .1.1.2.1.3 0 .7-.5 1.2-1.2 1.2s-1.2-.5-1.2-1.2v-.2c-1-.8-2.3-1.9-3.1-2.6-.2.1-.4.2-.6.2-.3 0-.5-.1-.7-.2-1.2.9-3.9 3.1-5.4 4.3 0 .1.1.2.1.3 0 .6-.5 1.2-1.2 1.2s-1.2-.5-1.2-1.2c.2-.7.7-1.2 1.4-1.2zm11.8 9.5l3.3 3.4H7.9l3.3-3.4h6.6z"/></symbol><symbol viewBox="0 0 44 44" id="exclusive" xmlns="http://www.w3.org/2000/svg"><path fill-rule="evenodd" clip-rule="evenodd" d="M43.1 42.8h-8c-.4 0-.7-.3-.8-.6l-1 .8c-.9.7-2 1.1-3.2 1.1h-12c-1.6 0-2.9-1.3-2.9-2.9 0-.8.3-1.5.9-2.1-.5-.5-.9-1.3-.9-2.1 0-.2 0-.5.1-.7l-.5-3c-1-.3-2-.7-3-1.2l-3.2 2.4c-.3.2-.8.2-1.1-.1l-3.8-3.8c-.3-.3-.3-.8-.1-1.1L6 26.3c-.5-.9-.9-1.9-1.2-3l-4-.6c-.5-.3-.8-.6-.8-1.1v-5.4c0-.4.3-.8.7-.8l4-.6c.3-1 .7-2 1.2-3L3.6 8.6c-.3-.4-.2-.9.1-1.1l3.8-3.8c.3-.3.8-.3 1.1-.1L11.8 6c.9-.5 1.9-.9 3-1.2l.6-4c.1-.5.4-.8.9-.8h5.4c.4 0 .8.3.8.7l.6 4c1 .3 2 .7 3 1.2l3.2-2.4c.3-.2.8-.2 1.1.1l3.8 3.8c.3.3.3.8.1 1.1L32 11.8c.5.9.9 1.9 1.2 3l4 .6c.4.1.7.4.7.8v5.4c0 .4-.3.8-.7.8l-4 .6c-.2.8-.5 1.6-.9 2.4.2.5.6.9 1 1.3l1.3 1c.2-.1.4-.2.6-.2h8c.5 0 .9.4.9.9V42c-.1.4-.5.8-1 .8zM25.2 21.9v-1.6c0-.8.2-1.5.6-2.1-.2-1.5-.9-3-2-4-2.7-2.7-7.1-2.7-9.8 0-2.7 2.7-2.7 7.1 0 9.8 1 1 2.3 1.7 3.7 1.9h2.6c1.3-.3 2.6-.9 3.5-1.9.6-.7 1.1-1.4 1.4-2.1zm-.9 3.8h.9v-.8l-.2.2c-.2.2-.4.4-.7.6zm8.1-4.2l3.8-.6V17l-3.8-.6c-.3-.1-.6-.3-.7-.6-.3-1.3-.8-2.4-1.5-3.6-.2-.3-.2-.7 0-.9l2.2-3.1-2.8-2.8-3.1 2.2c-.3.2-.7.2-.9 0-1.1-.7-2.3-1.2-3.6-1.5-.3-.1-.6-.4-.6-.7l-.6-3.8H17l-.6 3.8c-.1.3-.3.6-.6.7-1.3.3-2.4.8-3.6 1.5-.3.2-.7.2-.9 0L8.1 5.4 5.4 8.1l2.2 3.1c.2.3.2.7 0 .9-.7 1.1-1.2 2.3-1.5 3.6-.1.3-.4.6-.7.6l-3.7.7v3.9l3.8.6c.3.1.6.3.7.6.3 1.3.8 2.4 1.5 3.6.2.3.2.7 0 .9l-2.2 3.1 2.8 2.8 3.1-2.2c.3-.2.7-.2.9 0 1 .6 2.1 1.1 3.2 1.4V30.9l.1-.1.1-.1.1-.1c-.5-.5-.9-1.3-.9-2.1V27.9c0-.1 0-.1.1-.2 0-.1 0-.1.1-.2 0-.1 0-.1.1-.2v-.1s0-.1.1-.1V27s0-.1.1-.1c-1.1-.4-2-1.1-2.9-1.9-3.4-3.4-3.4-8.9 0-12.2 1.6-1.6 3.8-2.5 6.1-2.5s4.5.9 6.1 2.5c1.1 1.1 1.8 2.4 2.2 3.8.5-.3 1-.4 1.5-.5h.1c-.5-1.7-1.4-3.2-2.6-4.5-4-4-10.6-4-14.6 0-3.2 3.2-3.9 8.2-1.8 12.2.2.4.1.9-.3 1.2-.1.1-.3.1-.4.1-.3 0-.6-.2-.8-.4-1.2-2.2-1.7-4.9-1.3-7.4.4-2.6 1.5-5 3.4-6.9 4.7-4.7 12.3-4.7 17 0 1.7 1.7 2.8 3.8 3.3 6.1.7.5 1.2 1.3 1.2 2.2v3c.5-.1.6-.2.8-.2zm1.9 8.2l-2-1.6c-.8-.6-1.4-1.4-1.7-2.3v-.1l-.3-1.2v-5.8c0-.5-.4-.9-.9-.9H29.1c-.4.1-.8.3-1.1.5l-.1.1-.1.1v.1l-.1.1c-.3.4-.5.9-.5 1.4v6.3c0 .5-.4.9-.9.9H17.6l-.3.3s0 .1-.1.1v.5c0 .7.5 1.2 1.2 1.2h2c.5 0 .9.4.9.9s-.4.9-.9.9h-2c-.7 0-1.2.5-1.2 1.2s.5 1.2 1.2 1.2h2c.5 0 .9.4.9.9s-.4.9-.9.9H18.1c-.3.1-.5.3-.6.5 0 0 0 .1-.1.1v.1c-.1.1-.1.3-.1.5 0 .7.5 1.2 1.2 1.2h2c.5 0 .9.4.9.9s-.4.9-.9.9h-2c-.7 0-1.2.5-1.2 1.2s.5 1.2 1.2 1.2h12c.8 0 1.5-.3 2.1-.7l2-1.5V29.7zm8-.5H36V41h2.3v-6.7c0-.5.4-.9.9-.9s.9.4.9.9V41h2.3V29.2zm-2.4 2.5c0 .1 0 .1-.1.1l-.1.1-.1.1-.1.1h-.8c-.1 0-.1 0-.1-.1l-.1-.1-.1-.1-.1-.1v-.8c0-.1 0-.1.1-.1l.1-.1.1-.1.1-.1h.7c.1 0 .1 0 .1.1l.1.1.1.1.1.1v.6c.2.1.2.1.1.2zM11 25.9c.2 0 .5.1.6.3.3.3.3.9 0 1.2-.2.2-.4.2-.6.2-.2 0-.4-.1-.6-.3-.3-.3-.3-.9 0-1.2.1-.1.3-.2.6-.2zm8-1.5c-3 0-5.5-2.5-5.5-5.5s2.5-5.5 5.5-5.5 5.5 2.5 5.5 5.5-2.5 5.5-5.5 5.5zm0-9.2c-2.1 0-3.8 1.7-3.8 3.8s1.7 3.8 3.8 3.8 3.8-1.7 3.8-3.8-1.8-3.8-3.8-3.8zm1.2 3.8l.5.5c.3.3.3.9 0 1.2-.2.2-.4.3-.6.3-.2 0-.4-.1-.6-.3l-.5-.5-.5.5c-.2.2-.4.3-.6.3s-.4-.1-.6-.3c-.3-.3-.3-.9 0-1.2l.5-.5-.5-.5c-.3-.3-.3-.9 0-1.2.3-.3.9-.3 1.2 0l.5.5.5-.5c.3-.3.9-.3 1.2 0 .3.3.3.9 0 1.2l-.5.5z"/></symbol><symbol viewBox="0 0 39 31" id="fly" xmlns="http://www.w3.org/2000/svg"><path clip-rule="evenodd" d="M39 30.1c0 .5-.4.9-1 .9H2.5c-.5 0-1-.4-1-.9s.4-.9 1-.9H38c.6-.1 1 .3 1 .9zm-27.8-26l3.6 2.4L23.6 3l-9.1-1.6c-.2 0-.4 0-.5.1l-2.5 1c-.3.1-.6.4-.6.8-.1.2 0 .6.3.8zm25.7-2.6C36.4.6 35.5 0 34.5 0c-.3 0-.7.1-1 .2l-8.1 3.2-9.6 3.7L6 10.9 3.6 9.7c-.9-.5-2-.5-3-.2-.3.2-.5.4-.6.7-.1.3 0 .6.2.8l3.5 4.1-.7 2.7c-.1.3 0 .7.3.9.3.2.7.3 1 .2l1.2-.5c.2-.1.3-.2.4-.3l2-2.5 9.7-3.8.4 9.4c0 .3.2.6.4.7.2.1.3.2.5.2.1 0 .2 0 .4-.1l2.7-1.1c.2-.1.4-.3.5-.5L27.7 8l7.8-3c.7-.3 1.2-.8 1.5-1.5.2-.6.2-1.4-.1-2z"/></symbol><symbol viewBox="0 0 612 612" id="full" xmlns="http://www.w3.org/2000/svg"><path d="M609.2 558.5L449.8 399.2c-3.8-3.8-10-3.8-13.8 0l-11.5 11.5-23.2-23.2c39.4-42.8 60.9-97.9 60.9-156.4 0-61.7-24-119.8-67.7-163.4S292.9 0 231.1 0 111.4 24 67.7 67.7 0 169.4 0 231.1s24 119.8 67.7 163.4c43.7 43.7 101.7 67.7 163.4 67.7 58.5 0 113.6-21.6 156.4-60.9l23.2 23.2-11.5 11.5c-3.8 3.8-3.8 10 0 13.8l159.3 159.3c1.9 1.9 4.4 2.9 6.9 2.9s5-1 6.9-2.9l36.8-36.8c3.9-3.8 3.9-10 .1-13.8zM81.5 380.7c-40-40-62-93.1-62-149.6s22-109.7 62-149.6c40-40 93.1-62 149.6-62s109.7 22 149.6 62c40 40 62 93.1 62 149.6s-22 109.7-62 149.6c-40 40-93.1 62-149.6 62s-109.6-22-149.6-62zm483.9 207.7L419.9 442.9l23-23 145.5 145.5-23 23z"/><path d="M231.1 182.3c-26.9 0-48.8 21.9-48.8 48.8s21.9 48.8 48.8 48.8 48.8-21.9 48.8-48.8-21.8-48.8-48.8-48.8zm0 78.1c-16.2 0-29.3-13.1-29.3-29.3s13.1-29.3 29.3-29.3c16.2 0 29.3 13.1 29.3 29.3s-13.1 29.3-29.3 29.3z"/><path d="M310.5 193.2l23.1-23.1c3.4-3.4 3.8-8.7 1-12.6-8.3-11.6-18.3-21.7-29.9-29.9-3.9-2.8-9.2-2.3-12.6 1L269 151.8c-2.8-1.3-5.7-2.5-8.6-3.6v-32.7c0-4.8-3.4-8.8-8.1-9.6-7.1-1.2-14.2-1.8-21.2-1.8s-14.1.6-21.2 1.8c-4.7.8-8.1 4.9-8.1 9.6v32.7c-2.9 1-5.8 2.2-8.6 3.6l-23.1-23.1c-3.4-3.4-8.7-3.8-12.6-1.1-11.6 8.3-21.7 18.3-29.9 29.9-2.8 3.9-2.3 9.2 1.1 12.6l23.1 23.1c-1.3 2.8-2.5 5.7-3.6 8.6h-32.7c-4.8 0-8.8 3.4-9.6 8.1-1.2 7.1-1.8 14.2-1.8 21.2s.6 14.1 1.8 21.1c.8 4.7 4.9 8.1 9.6 8.1h32.7c1 2.9 2.2 5.8 3.6 8.6L128.7 292c-3.4 3.4-3.8 8.7-1 12.6 8.3 11.6 18.3 21.7 29.9 29.9 3.9 2.8 9.2 2.3 12.6-1l23.1-23.1c2.8 1.3 5.7 2.5 8.6 3.6v32.7c0 4.8 3.4 8.8 8.1 9.6 7.1 1.2 14.2 1.8 21.2 1.8s14.1-.6 21.2-1.8c4.7-.8 8.1-4.9 8.1-9.6V314c2.9-1 5.8-2.2 8.6-3.6l23.1 23.1c3.4 3.4 8.7 3.8 12.6 1 11.6-8.3 21.7-18.3 29.9-29.9 2.8-3.9 2.3-9.2-1-12.6l-23.2-23c1.3-2.8 2.5-5.7 3.6-8.6h32.7c4.8 0 8.8-3.4 9.6-8.1 1.2-7.1 1.8-14.2 1.8-21.1 0-7-.6-14.1-1.8-21.1-.8-4.7-4.9-8.1-9.6-8.1H314c-1-3.1-2.2-6-3.5-8.8zm28.1 37.9c0 3.2-.2 6.5-.5 9.8h-31.3c-4.5 0-8.3 3-9.5 7.3-1.6 6.1-4 12.1-7.3 17.6-2.3 3.8-1.6 8.7 1.5 11.9l22.1 22.1c-4.2 5-8.8 9.6-13.8 13.8l-22.1-22.1c-3.2-3.2-8-3.8-11.9-1.5-5.5 3.3-11.5 5.7-17.6 7.3-4.3 1.1-7.3 5-7.3 9.5v31.3c-6.6.6-13 .6-19.5 0v-31.3c0-4.5-3-8.3-7.3-9.5-6.1-1.6-12.1-4-17.6-7.3-3.8-2.3-8.7-1.6-11.9 1.5l-22.1 22.1c-5-4.2-9.6-8.8-13.8-13.8l22.1-22.1c3.2-3.2 3.8-8 1.5-11.9-3.3-5.5-5.7-11.5-7.3-17.6-1.1-4.3-5-7.3-9.5-7.3h-31.3c-.3-3.3-.5-6.5-.5-9.8 0-3.2.2-6.5.5-9.8h31.3c4.5 0 8.3-3 9.5-7.3 1.6-6.1 4-12.1 7.3-17.6 2.3-3.8 1.6-8.7-1.5-11.9l-22.1-22.1c4.2-5 8.8-9.6 13.8-13.8l22.1 22.1c3.2 3.2 8 3.8 11.9 1.5 5.5-3.3 11.5-5.7 17.6-7.3 4.3-1.1 7.3-5 7.3-9.5v-31.3c6.6-.6 13-.6 19.5 0v31.3c0 4.5 3 8.3 7.3 9.5 6.1 1.6 12.1 4 17.6 7.3 3.8 2.3 8.7 1.6 11.9-1.5l22.1-22.1c5 4.2 9.6 8.8 13.8 13.8l-22.1 22.1c-3.2 3.2-3.8 8-1.5 11.9 3.3 5.5 5.7 11.5 7.3 17.6 1.1 4.3 5 7.3 9.5 7.3h31.3c.3 3.3.5 6.6.5 9.8z"/><path d="M371.5 120c-3.4-4.2-9.5-4.9-13.7-1.6-4.2 3.4-4.9 9.5-1.6 13.7 50.3 63.4 45.1 154.5-12.3 211.8-62.2 62.2-163.4 62.2-225.6 0-62.2-62.2-62.2-163.4 0-225.6C175.6 61 266.7 55.7 330.1 106c4.2 3.4 10.4 2.6 13.7-1.6 3.4-4.2 2.6-10.4-1.6-13.7-71.2-56.5-173.4-50.6-237.8 13.8-69.8 69.8-69.8 183.4 0 253.2 34.9 34.9 80.8 52.4 126.6 52.4 45.9 0 91.7-17.5 126.6-52.4 64.5-64.3 70.4-166.5 13.9-237.7z"/></symbol><symbol viewBox="0 0 49 49" id="garanty" xmlns="http://www.w3.org/2000/svg"><path fill-rule="evenodd" clip-rule="evenodd" d="M48.3 6c-.5.1-1.8.4-2.7 1.5-.7.8-.8 1.7-.9 2.2 0 .4-.4.7-.8.7s-.7-.3-.8-.7c0-.5-.2-1.4-.9-2.2-.8-1.2-2.1-1.5-2.6-1.5-.4-.1-.6-.4-.6-.8s.3-.7.7-.8c.5-.1 1.8-.4 2.7-1.5.7-.8.8-1.7.9-2.2-.1-.4.3-.7.7-.7s.7.3.8.7c0 .5.2 1.4.9 2.2.9 1.2 2.2 1.5 2.7 1.5.3.1.6.4.6.8s-.3.7-.7.8zm-3.9-2.1c-.2-.2-.3-.4-.4-.6-.1.2-.3.4-.4.6-.5.6-1 1-1.6 1.4.5.3 1.1.7 1.6 1.4.1.1.3.3.4.5.1-.2.3-.4.4-.6.5-.6 1-1 1.6-1.4-.6-.3-1.1-.7-1.6-1.3zm-4.1 4.8c.2 0 .4.2.5.3.2.2.2.4.1.6l-.8 2.7 2.6 1.2c.2.1.3.3.4.5.1.2 0 .4-.1.6L41.5 17l2.1 1.9c.2.1.3.4.3.6 0 .2-.1.4-.3.6l-2.2 1.8 1.5 2.4c.1.2.1.4.1.6-.1.2-.2.4-.4.5L40 26.6l.8 2.7c.1.2 0 .4-.1.6-.1.2-.3.3-.5.3l-2.8.4v1l.1.1 9.4 9.4c.4.4.2 1.2-.5 1.3l-5.4.5-.5 5.4c-.1.6-.8.9-1.3.5L28.1 37.6c-.1.2-.2.4-.3.5-.3.4-.8.5-1.1.2l-2.1-1.9-2.2 1.8c-.3.3-.8.2-1.1-.1-.3-.1-.3-.2-.4-.4L9.7 48.8c-.4.4-1.2.2-1.3-.5l-.5-5.4-5.4-.5c-.6-.1-.9-.8-.5-1.3l4.6-4.5c.3-.3.8-.3 1.1 0 .3.3.3.8 0 1.1l-3.4 3.4 4.4.4c.4 0 .7.3.7.7l.4 4.4L20 36.4l-.4-.7-2.6 1.2c-.2.1-.4.1-.6 0-.2-.1-.4-.3-.4-.5l-.8-2.7-2.8.4c-.2 0-.4 0-.6-.2l-.1-.1-1.4 1.4c-.1.1-.3.2-.5.2s-.4-.1-.5-.2c-.3-.3-.3-.8 0-1.1l2.2-2.2.1-.1v-1.3l-2.8-.4c-.2 0-.4-.2-.5-.3-.3-.3-.3-.5-.2-.7l.8-2.7-2.6-1.2c-.2-.1-.4-.3-.4-.5-.1-.2 0-.4.1-.6l1.5-2.4-2.1-1.9c-.2-.1-.3-.4-.3-.6 0-.2.1-.4.3-.6l2.2-1.8L6 14.5c-.1-.2-.1-.4-.1-.6.1-.2.2-.4.4-.5l2.6-1.2-.8-2.7c0-.2 0-.5.1-.7.1-.2.3-.3.5-.3l2.8-.4V5.3c0-.2.1-.4.3-.6.2-.1.4-.2.6-.2l2.8.4.8-2.7c.1-.2.2-.4.4-.5.2-.1.4-.1.6 0l2.6 1.2L21.2.5c.1-.2.3-.3.5-.3s.4 0 .6.2l2.1 1.9L26.6.5c.2-.1.4-.2.6-.2.2 0 .4.2.5.3L29.4 3 32 1.8c.2-.1.4-.1.6 0 .2.1.4.3.4.5l.8 2.7 2.8-.4c.2 0 .4 0 .6.2.2.1.3.4.3.6v2.8l2.8.5zm-1.1 37.9l.4-4.4c0-.4.3-.6.7-.7l4.4-.4-7.4-7.4c0 .1-.1.2-.2.3-.2.1-.4.2-.6.2l-2.8-.4-.8 2.7c-.1.2-.2.4-.4.5-.2.1-.4.1-.6 0l-2.6-1.2-.3.5 10.2 10.3zm-2.6-37c-.3 0-.6-.3-.6-.7V6.3l-2.6.4c-.4.1-.7-.2-.8-.5l-.7-2.5-2.4 1.1c-.3.2-.8 0-1-.3l-1.4-2.2-2 1.7c-.3.2-.7.2-1 0l-2-1.7-1.4 2.2c-.2.3-.6.4-1 .3l-2.4-1.1-.7 2.3c-.1.4-.5.6-.8.5l-2.6-.4v2.6c0 .4-.3.7-.7.7l-2.6.5.7 2.5c.1.4-.1.7-.4.9l-2.4 1.1 1.4 2.2c.2.3.1.7-.1 1l-2 1.7L9 21c.3.2.3.7.1 1l-1.4 2.2 2.4 1.1c.3.2.5.5.4.9l-.8 2.5 2.6.4c.4.1.6.4.6.8v2.6l2.6-.4c.4-.1.7.2.8.5l.7 2.5 2.4-1.1c.3-.2.8 0 1 .3l.9 1.4c.1 0 .1.1.2.1.1.1.2.3.2.5l.1.2 2-1.7c.1-.1.3-.2.5-.2s.4.1.5.2l2 1.7 1.4-2.2c.2-.3.6-.4 1-.3l2.4 1.1.8-2.5c.1-.4.5-.6.8-.5l2.6.4v-2.6c0-.4.3-.7.7-.7l2.6-.4-.7-2.5c-.1-.4.1-.7.4-.9l2.4-1.1-1.4-2.2c-.2-.3-.1-.7.1-1l2-1.7-2-1.7c-.3-.2-.3-.7-.1-1l1.4-2.2-2.4-1.1c-.3-.2-.5-.5-.4-.9l.8-2.5-2.6-.4zM24.5 31c-.2 0-.4-.1-.6-.3L13.2 18c-.2-.3-.2-.6-.1-.9l4.3-6.5c.1-.2.4-.3.6-.3h13c.3 0 .5.1.6.3l4.3 6.5c.2.3.2.6-.1.9L25.1 30.8c-.2.1-.4.2-.6.2zm0-4.3l2.3-8.6h-4.5l2.2 8.6zm-1.4.8l-2.5-9.4h-5.5l8 9.4zm-5.2-14.9l-2.6 3.9H20l-2.1-3.9zm1.3-.8l2.1 3.9 2.1-3.9h-4.2zm3.3 4.8h4l-2-3.7-2 3.7zm3.2-4.8l2.1 3.9 2-3.9h-4.1zm5.4.8l-2.1 4h4.7l-2.6-4zm2.7 5.5h-5.5l-2.5 9.4 8-9.4zm5.8 4.2c-.1.4-.5.7-.9.6-.4-.1-.7-.5-.6-.9.2-.9.3-1.8.3-2.7 0-7.6-6.2-13.8-13.8-13.8-7.6 0-13.8 6.2-13.8 13.8 0 7.6 6.2 13.8 13.8 13.8 5.3 0 10.1-2.9 12.4-7.7.2-.4.6-.5 1-.3s.5.6.3 1c-1.3 2.5-3.2 4.6-5.6 6.2-2.5 1.5-5.3 2.4-8.2 2.4-8.5 0-15.4-6.9-15.4-15.3S16 4.1 24.5 4.1 39.9 11 39.9 19.4c0 1-.1 2-.3 2.9zM9.4 6c-.5 0-1.8.3-2.8 1.5-.6.8-.8 1.7-.8 2.2 0 .4-.4.7-.8.7s-.7-.3-.8-.7c0-.5-.2-1.4-.9-2.2C2.5 6.3 1.2 6 .7 6c-.4-.1-.7-.4-.7-.8s.3-.7.7-.8c.5-.1 1.8-.4 2.7-1.5.7-.8.8-1.7.9-2.2 0-.4.3-.7.7-.7.4 0 .7.3.8.7 0 .5.2 1.4.9 2.2.9 1.2 2.2 1.5 2.7 1.5.4.1.6.4.6.8s-.2.7-.6.8zm-4-2.1c-.1-.2-.3-.5-.4-.7-.1.2-.2.5-.4.7-.5.6-1 1-1.6 1.4.5.3 1.1.7 1.6 1.4.2.1.3.3.4.5.1-.2.3-.4.4-.6.5-.6 1-1 1.6-1.4-.5-.3-1.1-.7-1.6-1.3zm14.7 38.7c.5-.1 1.8-.4 2.7-1.5.7-.8.8-1.7.9-2.2 0-.4.4-.7.8-.7s.7.3.8.7c0 .5.2 1.4.9 2.2.9 1.2 2.2 1.5 2.7 1.5.4.1.7.4.7.8s-.3.7-.7.8c-.5.1-1.8.4-2.7 1.5-.7.8-.8 1.7-.9 2.2 0 .4-.4.7-.8.7s-.7-.3-.8-.7c0-.5-.2-1.4-.9-2.2-.9-1.2-2.2-1.5-2.7-1.5-.4-.1-.7-.4-.7-.8.1-.4.4-.7.7-.8zm4 2.2c.2.2.3.4.4.6.1-.2.3-.4.4-.6.5-.6 1-1 1.6-1.4-.5-.3-1.1-.7-1.6-1.4-.2-.2-.3-.4-.4-.6-.1.2-.3.4-.4.6-.5.6-1 1-1.6 1.4.6.3 1.1.7 1.6 1.4z"/></symbol><symbol viewBox="0 0 443 612" id="idea" xmlns="http://www.w3.org/2000/svg"><path d="M396.8 441.2c-5.4 0-9.8 4.4-9.8 9.8v141.5H260c-5.4 0-9.8 4.4-9.8 9.8s4.4 9.8 9.8 9.8h136.7c5.4 0 9.8-4.4 9.8-9.8V450.9c0-5.3-4.3-9.7-9.7-9.7z"/><path d="M441.7 408.1l-36-86.4c-1.5-3.6-5.1-6-9-6H45.2c-3.9 0-7.5 2.4-9 6l-36 86.4c-1.3 3-.9 6.5.9 9.2 1.8 2.7 4.9 4.3 8.1 4.3h26.2v180.6c0 5.4 4.4 9.8 9.8 9.8H221c5.4 0 9.8-4.4 9.8-9.8V374.4l17.2 41.3c1.5 3.6 5.1 6 9 6h175.8c3.3 0 6.3-1.6 8.1-4.3 1.8-2.8 2.1-6.3.8-9.3zm-390-72.8h154.6l-27.8 66.8H23.9l27.8-66.8zM55 592.5V421.6h130c3.9 0 7.5-2.4 9-6l17.2-41.3v218.1H55zm208.5-190.4l-27.8-66.8h154.6l27.8 66.8H263.5zM156 228l5.4 21.7c1.1 4.4 5 7.4 9.5 7.4h100.2c4.5 0 8.4-3.1 9.5-7.4L286 228c36-22.4 58.2-62.2 58.2-104.8C344.2 55.3 288.9 0 221 0S97.8 55.3 97.8 123.3c0 42.6 22.2 82.3 58.2 104.7zm65-208.5c57.2 0 103.7 46.5 103.7 103.7 0 37-20 71.5-52.1 90-2.3 1.3-4 3.5-4.6 6.1l-4.5 18.3h-84.9l-4.5-18.3c-.6-2.6-2.3-4.8-4.6-6.1-32.1-18.5-52.1-53-52.1-90-.1-57.1 46.4-103.7 103.6-103.7zm50.1 257.2H170.9c-5.4 0-9.8 4.4-9.8 9.8s4.4 9.8 9.8 9.8h100.2c5.4 0 9.8-4.4 9.8-9.8-.1-5.4-4.4-9.8-9.8-9.8z"/><path d="M192 210.7c1.1 4.4 5.1 7.4 9.5 7.4.8 0 1.6-.1 2.4-.3 5.2-1.3 8.4-6.6 7.1-11.8l-8.6-34.8h37.4L231 206c-1.3 5.2 1.9 10.5 7.1 11.8.8.2 1.6.3 2.4.3 4.4 0 8.4-3 9.5-7.4l11.6-46.9v-.2c0-.2.1-.4.1-.6 0-.1 0-.3.1-.4v-2.5c0-.2 0-.4-.1-.5 0-.2-.1-.3-.1-.5s-.1-.3-.1-.4c0-.2-.1-.3-.2-.5 0-.1-.1-.3-.1-.4-.1-.2-.1-.3-.2-.5-.1-.1-.1-.2-.2-.3-.1-.2-.2-.3-.3-.5-.1-.1-.1-.2-.2-.3-.1-.1-.2-.3-.3-.4-.1-.1-.2-.2-.3-.4-.1-.1-.2-.2-.3-.4-.1-.1-.2-.2-.3-.4l-.3-.3c-.1-.1-.3-.2-.4-.4l-.3-.3c-.1-.1-.3-.2-.4-.3-.1-.1-.2-.2-.4-.2-.1-.1-.3-.2-.4-.3-.1-.1-.3-.2-.4-.2-.1-.1-.3-.1-.4-.2-.2-.1-.3-.1-.5-.2-.1 0-.2-.1-.4-.1-.2-.1-.4-.1-.6-.2-.1 0-.1 0-.2-.1h-.2c-.2 0-.4-.1-.6-.1-.2 0-.3-.1-.5-.1h-63.4c-3 0-5.8 1.4-7.7 3.8-1.9 2.4-2.5 5.5-1.8 8.4l11.8 46.9z"/></symbol><symbol viewBox="0 0 28 30" id="lamp" xmlns="http://www.w3.org/2000/svg"><path d="M17.3 26.2v.9c0 .7-.5 1.3-1.1 1.4l-.2.8c-.1.4-.5.7-1 .7h-2c-.4 0-.8-.3-.9-.7l-.2-.8c-.7-.1-1.2-.7-1.2-1.4v-.9c0-.5.4-.8.8-.8h5c.5 0 .8.3.8.8zm3.9-11.8c0 2-.8 3.8-2 5.1-.9 1-1.6 2.3-1.8 3.7-.1.6-.6 1-1.2 1h-4.5c-.6 0-1.1-.4-1.2-1-.2-1.4-.8-2.7-1.8-3.7-1.2-1.3-2-3.1-2-5C6.8 10.4 10 7 14 7c3.9 0 7.2 3.3 7.2 7.4zm-6.4-4.5c0-.5-.4-.8-.8-.8-2.9 0-5.2 2.4-5.2 5.3 0 .5.4.8.8.8s.8-.4.8-.8c0-2 1.6-3.7 3.6-3.7.5.1.8-.3.8-.8zM14 4.6c.4 0 .8-.4.8-.8v-3c0-.4-.3-.8-.8-.8s-.8.4-.8.8v2.9c0 .5.4.9.8.9zm-9.5 9.8c0-.5-.4-.8-.8-.8H.8c-.4 0-.8.4-.8.8 0 .5.4.8.8.8h2.8c.5 0 .9-.3.9-.8zm22.7-.8h-2.8c-.4 0-.8.4-.8.8 0 .5.4.8.8.8h2.8c.4 0 .8-.4.8-.8 0-.5-.4-.8-.8-.8zM6.1 21.3l-2 2.1c-.3.3-.3.9 0 1.2.2.2.4.2.6.2.2 0 .4-.1.6-.2l2-2.1c.3-.3.3-.9 0-1.2-.4-.3-.9-.3-1.2 0zM21.3 7.7c.2 0 .4-.1.6-.2l2-2.1c.3-.3.3-.9 0-1.2-.3-.3-.8-.3-1.1 0l-2 2.1c-.3.3-.3.9 0 1.2.1.1.3.2.5.2zM6.1 7.5c.2.2.4.2.6.2.2 0 .4-.1.6-.2.3-.3.3-.9 0-1.2l-2-2.1c-.3-.3-.8-.3-1.1 0-.3.3-.3.9 0 1.2l1.9 2.1zm15.8 13.8c-.3-.3-.8-.3-1.1 0-.3.3-.3.9 0 1.2l2 2.1c.2.2.4.2.6.2.2 0 .4-.1.6-.2.3-.3.3-.9 0-1.2l-2.1-2.1z"/></symbol><symbol viewBox="0 0 13 9" id="letter" xmlns="http://www.w3.org/2000/svg"><path clip-rule="evenodd" d="M6.5 5.4c.1 0 .2 0 .3-.1l.2-.2L13 0H.1l6.2 5.3c0 .1.1.1.2.1zM0 .7v7.5l4.4-3.7L0 .7zm8.6 3.8L13 8.2V.7L8.6 4.5zM7.2 5.7c-.2.2-.4.3-.7.3-.2 0-.5-.1-.6-.3l-1-.9L0 8.9C0 9 0 9 .1 9H13v-.1l-4.8-4-1 .8z"/></symbol><symbol viewBox="0 0 9 13" id="location" xmlns="http://www.w3.org/2000/svg"><path clip-rule="evenodd" d="M8.6 3.8c0-.2-.1-.3-.2-.5C7.6 1.5 5.9.8 4.6.8 2.7.8.7 2 .5 4.6v.8c.1 1.2 1.1 2.5 1.8 3.7.8 1.3 1.5 2.6 2.3 3.9.5-.8 1-1.7 1.4-2.5.1-.2.3-.5.4-.7.1-.2.2-.3.3-.4.8-1.4 2-2.8 2-4.2v-.6c0-.2-.1-.7-.1-.8zm-4 2.7c-.5 0-1.1-.3-1.4-1v-.8c0-1 .8-1.4 1.5-1.4.9 0 1.5.7 1.5 1.6-.1.9-.8 1.6-1.6 1.6z"/></symbol><symbol viewBox="0 0 485.211 485.211" id="mail" xmlns="http://www.w3.org/2000/svg"><path d="M485.211 363.906c0 10.637-2.992 20.498-7.785 29.174L324.225 221.67l151.54-132.584c5.895 9.355 9.446 20.344 9.446 32.219v242.601zM242.606 252.793l210.863-184.5c-8.653-4.737-18.397-7.642-28.908-7.642H60.651c-10.524 0-20.271 2.905-28.889 7.642l210.844 184.5zm58.787-11.162l-48.809 42.734a15.145 15.145 0 0 1-9.978 3.729c-3.57 0-7.125-1.242-9.98-3.729l-48.82-42.736L28.667 415.23c9.299 5.834 20.197 9.329 31.983 9.329h363.911c11.784 0 22.687-3.495 31.983-9.329L301.393 241.631zM9.448 89.085C3.554 98.44 0 109.429 0 121.305v242.602c0 10.637 2.978 20.498 7.789 29.174l153.183-171.44L9.448 89.085z"/></symbol><symbol viewBox="0 0 24 27" id="megafon" xmlns="http://www.w3.org/2000/svg"><path fill-rule="evenodd" clip-rule="evenodd" d="M23.2 7.9h-1.6c-.4 0-.8-.4-.8-.8s.4-.8.8-.8h1.6c.4 0 .8.4.8.8 0 .5-.4.8-.8.8zm-1-5l-1.6 1.6c-.3.3-.8.3-1.1 0-.3-.3-.3-.8 0-1.1L21 1.8c.3-.3.8-.3 1.1 0 .4.3.4.8.1 1.1zm-5.4.3c-.4 0-.8-.4-.8-.8V.8c0-.4.4-.8.8-.8s.8.4.8.8v1.6c0 .4-.3.8-.8.8zm6.4 10.2c-.6.6-1.6.6-2.3 0L10.3 2.9c-.6-.6-.6-1.6 0-2.2.6-.6 1.6-.6 2.3 0l10.6 10.5c.6.6.6 1.6 0 2.2zm-4.1.9c-2.8.6-5.4 2-7.6 3.8l-5.8-5.7c1.8-2.1 3.2-4.8 3.8-7.6l.1-.4 9.9 9.9h-.4zM6.3 23.1c-.9.9-2.4.9-3.3 0L.7 20.9c-.9-.9-.9-2.4 0-3.4l3.9-3.9 5.6 5.6-3.9 3.9zm0-5.6c-.3-.3-.8-.3-1.1 0l-1.1 1.1c-.3.3-.3.8 0 1.1.3.3.8.3 1.1 0l1.1-1.1c.3-.3.3-.8 0-1.1zm6.2 4.9l1.1-1.1c.3-.3.3-.8 0-1.1l-1-1c.4-.3.8-.7 1.3-1l.8.8c.9.9.9 2.4 0 3.4l-1.1 1.1.9.8c.6.6.6 1.6 0 2.2-.6.6-1.6.6-2.3 0L8.6 23l2.3-2.2 1.6 1.6z"/></symbol><symbol viewBox="0 0 512 417" id="menu-services-service-sozdanie-sajtov" xmlns="http://www.w3.org/2000/svg"><path d="M435.7 63.2c-21 0-38 16.8-38 37.5s17.1 37.5 38 37.5c21 0 38-16.8 38-37.5.1-20.7-17-37.5-38-37.5zm0 60.1c-12.7 0-23-10.1-23-22.5s10.3-22.5 23-22.5 23 10.1 23 22.5-10.3 22.5-23 22.5z"/><path d="M478.1 300.4H477c-.4-7.8-2.9-15-6.9-21.1 8-22.1 12.4-45.9 12.4-70.7 0-15.5-1.7-30.5-4.9-45.1 21.1-13.7 34.4-37.3 34.4-62.7 0-18-6.6-35.4-18.5-49-2.7-3.1-7.5-3.4-10.6-.7-3.1 2.7-3.4 7.5-.7 10.6 9.5 10.9 14.8 24.8 14.8 39.1 0 24.7-15.8 47.2-39.3 56.1-1.6.6-2.9 1.7-3.8 3.2l-18.2 31-18.2-31c-.9-1.5-2.2-2.6-3.8-3.2-23.5-8.9-39.3-31.4-39.3-56.1 0-33.1 27.5-60.1 61.3-60.1 6.5 0 12.9 1 19 2.9 3.9 1.3 8.2-.9 9.4-4.9 1.3-3.9-.9-8.2-4.9-9.4-7.6-2.4-15.5-3.7-23.6-3.7-15.5 0-29.9 4.6-41.9 12.4-34-23.9-75.4-38-120-38-89.1 0-165.4 56.2-195.2 135.1-22.3 4.8-39.2 24.4-39.7 48H36c-19.8 0-36 16.1-36 35.9 0 19.8 16.1 35.9 36 35.9h34.4c8.5 37.3 27.1 70.8 52.6 97.5.4.6 1 1.2 1.6 1.6 37.9 38.8 90.8 62.9 149.3 62.9 54.2 0 103.6-20.7 140.7-54.7h63.6c17.1 0 31-13.9 31-31-.1-16.9-14-30.8-31.1-30.8zm-14-128.1c1.8 9.4 2.9 19 3.3 28.7h-20.1l16.8-28.7zm-58.2-2.5l18.3 31.2h-41.6c-.3-17.4-1.7-34.5-4.2-50.9 7.4 8.4 16.8 15.2 27.5 19.7zM382.6 216h84.8c-.7 17.8-3.8 35-9 51.3-6.9-4.7-15.2-7.4-24.1-7.4-15 0-28.9 8-36.5 20.6-3-.9-6.2-1.4-9.4-1.4-4.4 0-8.6.9-12.5 2.4 4-20.8 6.2-42.8 6.7-65.5zm-1-168.2c-8.1 8-14.4 17.9-18.2 28.9-1.5.3-3.1.6-4.6.9-2.1-5-4.3-9.9-6.7-14.5-8.8-17.5-19-31.5-30.1-41.9 21.6 5.4 41.7 14.5 59.6 26.6zM281.3 15.6c21.3 3.6 41.5 22.5 57.4 54.1 1.7 3.3 3.3 6.8 4.8 10.3-19.7 2.8-40.6 4.4-62.2 4.7V15.6zm0 84.1c23.6-.3 46.5-2.2 67.9-5.4 11.2 31 17.6 67.8 18.3 106.7h-86.2V99.7zm-15 0V201H217c-6.2-10.7-17.8-17.9-31.1-17.9h-5c0-.1-.1-.2-.1-.3 2.1-32.1 8.1-62.3 17.5-88.5 21.5 3.3 44.4 5.1 68 5.4zm0-84.1v69.1c-21.6-.3-42.6-1.9-62.2-4.7 1.5-3.5 3.1-7 4.8-10.3 15.9-31.6 36.1-50.5 57.4-54.1zm-40.7 5.5c-11.1 10.4-21.3 24.5-30.1 41.9-2.4 4.7-4.6 9.5-6.7 14.6-16.5-3-31.9-6.9-45.9-11.6 23.2-21.2 51.4-36.9 82.7-44.9zm-94.4 56.6c15.6 5.8 33.2 10.5 52.2 14.1-7.7 22.1-13.1 46.8-16 72.9-6.4-4.7-14.3-7.4-22.8-7.4-4.1 0-8.2.7-12.1 1.9-7.9-13.6-21.9-22.9-37.6-24.8 8.8-21 21.1-40.2 36.3-56.7zM85.8 254.9H118c4.1 0 7.5-3.4 7.5-7.5s-3.4-7.5-7.5-7.5H36c-11.6 0-21-9.4-21-20.9 0-11.5 9.4-20.9 21-20.9h10.8c2.2 0 4.3-1 5.7-2.6 1.4-1.7 2.1-3.9 1.7-6-.3-1.8-.4-3.5-.4-5.3 0-19.4 15.8-35.1 35.2-35.1 14.5 0 27.7 9.1 32.9 22.7.8 2.1 2.4 3.7 4.5 4.4 2.1.7 4.4.5 6.3-.6 3.6-2.1 7.7-3.2 11.9-3.2 11.5 0 21.3 8.2 23.2 19.6.6 3.6 3.7 6.3 7.4 6.3H186c11.6 0 21 9.4 21 20.9 0 11.5-9.4 20.9-21 20.9h-31c-4.1 0-7.5 3.4-7.5 7.5s3.4 7.5 7.5 7.5h12.7c2.9 25.2 8.2 48.9 15.7 70.3-19 3.6-36.6 8.3-52.2 14.1-21.6-23.7-37.5-52.6-45.4-84.6zM143 351c13.9-4.7 29.4-8.6 45.9-11.6 2.1 5 4.3 9.9 6.7 14.6 8.8 17.5 19 31.5 30.1 41.9-31.4-8-59.6-23.7-82.7-44.9zm123.3 50.4c-21.3-3.6-41.5-22.5-57.4-54.1-1.7-3.3-3.3-6.8-4.8-10.3 19.7-2.8 40.6-4.4 62.2-4.7v69.1zm7.5-104.5c-4.1 0-7.5 3.4-7.5 7.5v12.9c-23.6.3-46.5 2.2-67.9 5.4-7.4-20.4-12.7-43.4-15.6-67.7h3.2c19.8 0 36-16.1 36-35.9 0-1-.1-2-.1-3h44.5v47.5c0 4.1 3.4 7.5 7.5 7.5s7.5-3.4 7.5-7.5V216h86.2c-.6 29.9-4.5 58.6-11.3 84.4h-2c-13 0-24.1 8-28.7 19.4-14.3-1.4-29.1-2.2-44.1-2.4v-12.9c-.2-4.2-3.5-7.6-7.7-7.6zm7.5 104.5v-69.1c14.4.2 28.4 1 42 2.3.9 8.3 5 15.6 11.1 20.6-15.1 26.8-33.6 42.9-53.1 46.2zm40.8-5.5c9.4-8.8 18.2-20.3 26-34.3 2 .4 4.1.6 6.2.6h37.1c-20.4 15.6-43.9 27.2-69.3 33.7zm156-48.6H354.2c-8.8 0-16-7.2-16-16s7.2-16 16-16h8.9c3.7 0 6.8-2.6 7.4-6.3 1.5-8.7 9-15.1 17.9-15.1 3.2 0 6.4.9 9.2 2.5 1.9 1.1 4.2 1.3 6.3.6 2.1-.7 3.7-2.3 4.5-4.4 4.1-10.7 14.5-17.9 26-17.9 15.3 0 27.8 12.4 27.8 27.7 0 1.4-.1 2.8-.3 4.2-.3 2.2.3 4.4 1.7 6 1.4 1.7 3.5 2.6 5.7 2.6h8.9c8.8 0 16 7.2 16 16-.1 8.9-7.2 16.1-16.1 16.1z"/></symbol><symbol viewBox="0 0 26 33" id="money" xmlns="http://www.w3.org/2000/svg"><path fill-rule="evenodd" clip-rule="evenodd" d="M24.7 7.6h-3.9v-2h1.8C17 .5 8.2.7 2.8 6.2l-.7.7L.7 5.5l.7-.7C4.6 1.6 8.8 0 13 0c4 0 7.9 1.4 11 4.3V2.4h2v5.1h-1.3zM3.6 16.5c0-2.5 1-4.8 2.6-6.5 1.7-1.8 4.2-3 6.9-3 5.2 0 9.4 4.3 9.4 9.5S18.3 26 13.1 26c-5.3 0-9.5-4.3-9.5-9.5zm10.2 6.1v-.8c0-.3.1-.4.4-.5.6-.2 1.2-.5 1.6-1 1.1-1.4.7-3.4-.9-4.3-.5-.3-1-.5-1.6-.7-.3-.1-.6-.3-.9-.5-.5-.4-.4-1.1.2-1.4.2-.1.4-.1.5-.1.7 0 1.4.1 2 .4.3.2.4.1.5-.2.1-.4.2-.7.3-1.1.1-.2 0-.4-.2-.5-.4-.2-.8-.3-1.3-.4-.6-.1-.6-.1-.6-.7 0-.8 0-.8-.8-.8h-.4c-.4 0-.4.1-.5.5v.5c0 .5 0 .5-.5.7-1.2.4-1.9 1.2-2 2.5-.1 1.1.5 1.9 1.5 2.5.6.4 1.2.6 1.8.8.2.1.5.2.7.4.6.5.5 1.3-.2 1.6-.4.2-.8.2-1.2.2-.6-.1-1.2-.2-1.8-.5-.3-.2-.4-.1-.5.2l-.3.9c0 .4 0 .5.4.7.5.2 1 .4 1.6.5.4.1.4.1.4.5v.6c0 .3.1.4.4.4h.9c.3 0 .5-.1.5-.4zM1.3 25.4h3.8v2H3.3c5.7 5.1 14.4 4.9 19.9-.6l.7-.7 1.4 1.4-.7.7C21.4 31.4 17.2 33 13 33c-4 0-7.9-1.4-11-4.3v1.9H0v-5.2h1.3z"/></symbol><symbol viewBox="0 0 19 30" id="mouse" xmlns="http://www.w3.org/2000/svg"><path d="M9.5 0C4.3 0 0 4.2 0 9.3v11.3C0 25.8 4.3 30 9.5 30s9.5-4.2 9.5-9.4V9.3C19 4.2 14.7 0 9.5 0zm8.4 9.3v.1c-2.5 1.3-5.2 2-8 2v-3c.8-.2 1.4-.9 1.4-1.7V4.3c0-.8-.6-1.5-1.4-1.7V1.1c4.4.2 8 3.8 8 8.2zm-8.4-6c.6 0 1 .5 1 1v2.3c0 .6-.5 1-1 1-.6 0-1-.5-1-1V4.3c0-.5.4-1 1-1zm-.4-2.2v1.5c-.8.2-1.4.9-1.4 1.7v2.3c0 .8.6 1.5 1.4 1.7v3.1c-2.8-.1-5.5-.8-8-2v-.1c0-4.4 3.6-8 8-8.2zm.4 27.8c-4.6 0-8.4-3.7-8.4-8.2V10.3c2.6 1.3 5.5 1.9 8.4 1.9 2.9 0 5.8-.7 8.4-1.9v10.3c0 4.6-3.8 8.3-8.4 8.3z"/></symbol><symbol viewBox="0 0 591 612" id="newspaper" xmlns="http://www.w3.org/2000/svg"><path d="M550.6 39.1h-52.8c-5.4 0-9.8 4.4-9.8 9.8s4.4 9.8 9.8 9.8H516c-3.7 6.1-5.8 13.2-5.8 20.8V541c0 5.4 4.4 9.8 9.8 9.8s9.8-4.4 9.8-9.8V79.4c0-11.5 9.3-20.8 20.8-20.8s20.8 9.3 20.8 20.8V541c0 28.4-23.1 51.4-51.5 51.4s-51.5-23.1-51.5-51.4V9.8c0-5.4-4.4-9.8-9.8-9.8H9.8C4.4 0 0 4.4 0 9.8V541c0 39.1 31.9 71 71 71h449c39.1 0 71-31.8 71-71V79.4c0-22.2-18.1-40.3-40.4-40.3zM71 592.5c-28.4 0-51.5-23.1-51.5-51.4V19.5H449V541c0 20.2 8.5 38.5 22.1 51.4H71z"/><path d="M406.7 52.1H61.9c-5.4 0-9.8 4.4-9.8 9.8v97.7c0 5.4 4.4 9.8 9.8 9.8h344.8c5.4 0 9.8-4.4 9.8-9.8V61.9c-.1-5.4-4.4-9.8-9.8-9.8zm-9.8 97.6H71.7V71.6h325.2v78.1zm9.8 39.1H61.9c-5.4 0-9.8 4.4-9.8 9.8s4.4 9.8 9.8 9.8h344.8c5.4 0 9.8-4.4 9.8-9.8s-4.4-9.8-9.8-9.8zm0 78.1H253.8c-5.4 0-9.8 4.4-9.8 9.8s4.4 9.8 9.8 9.8h152.8c5.4 0 9.8-4.4 9.8-9.8s-4.3-9.8-9.7-9.8zm-192 0H61.9c-5.4 0-9.8 4.4-9.8 9.8s4.4 9.8 9.8 9.8h152.8c5.4 0 9.8-4.4 9.8-9.8s-4.4-9.8-9.8-9.8zm192 39.1H253.8c-5.4 0-9.8 4.4-9.8 9.8s4.4 9.8 9.8 9.8h152.8c5.4 0 9.8-4.4 9.8-9.8s-4.3-9.8-9.7-9.8zm-192 0H61.9c-5.4 0-9.8 4.4-9.8 9.8s4.4 9.8 9.8 9.8h152.8c5.4 0 9.8-4.4 9.8-9.8s-4.4-9.8-9.8-9.8zm192 39.1H253.8c-5.4 0-9.8 4.4-9.8 9.8s4.4 9.8 9.8 9.8h152.8c5.4 0 9.8-4.4 9.8-9.8s-4.3-9.8-9.7-9.8zm0 39H253.8c-5.4 0-9.8 4.4-9.8 9.8s4.4 9.8 9.8 9.8h152.8c5.4 0 9.8-4.4 9.8-9.8s-4.3-9.8-9.7-9.8zm-152.9 58.6h100.7c5.4 0 9.8-4.4 9.8-9.8s-4.4-9.8-9.8-9.8H253.8c-5.4 0-9.8 4.4-9.8 9.8 0 5.5 4.4 9.8 9.8 9.8zm100.7 97.7H253.8c-5.4 0-9.8 4.4-9.8 9.8s4.4 9.8 9.8 9.8h100.7c5.4 0 9.8-4.4 9.8-9.8s-4.4-9.8-9.8-9.8zm52.2-39.1H253.8c-5.4 0-9.8 4.4-9.8 9.8s4.4 9.8 9.8 9.8h152.8c5.4 0 9.8-4.4 9.8-9.8s-4.3-9.8-9.7-9.8zm-192-156.2H61.9c-5.4 0-9.8 4.4-9.8 9.8v195.3c0 5.4 4.4 9.8 9.8 9.8h152.8c5.4 0 9.8-4.4 9.8-9.8V354.8c0-5.4-4.4-9.7-9.8-9.7zM205 540.4H71.7V364.6H205v175.8z"/></symbol><symbol viewBox="0 0 48 56" id="operator" xmlns="http://www.w3.org/2000/svg"><path fill-rule="evenodd" clip-rule="evenodd" d="M3.4 46.3c0-2 1.1-3.2 3.1-3.2s3.1 1.2 3.1 3.2v6.6c0 2-1.1 3.2-3.1 3.2s-3.1-1.2-3.1-3.2v-6.6zm2 6.7c0 .9.4 1.2 1 1.2s1-.3 1-1.2v-6.8c0-.9-.4-1.2-1-1.2s-1 .3-1 1.2V53zm7.2-6.3v9.1h-1.8V43.2h2.5l2.1 7.5v-7.5h1.8v12.6h-2.1l-2.5-9.1zm8.9-3.5h2V54h3.3v1.8h-5.3V43.2zm6.3 0h2v12.6h-2V43.2zm5.2 3.5v9.1h-1.8V43.2h2.5l2.1 7.5v-7.5h1.8v12.6h-2.1L33 46.7zm8.1 1.9h2.8v1.8h-2.8v3.7h3.5v1.8h-5.5V43.3h5.5v1.8h-3.5v3.5zM40.3 17h-.8C37.4 10.9 31.2 6.5 24 6.5c-7.2 0-13.4 4.4-15.4 10.5h-.9c-1.7 0-3.1 1.4-3.1 3.1v3.6c0 1.7 1.4 3 3.1 3h.7c3 11.2 15.1 14.4 15.2 14.4l.3.1.3-.1c.1 0 12.3-3.1 15.2-14.4h.7c1.7 0 3.1-1.4 3.1-3v-3.6c.2-1.7-1.2-3.1-2.9-3.1zm-5.8 14.5h-8.1c-.4-.7-1.2-1.2-2-1.2-1.3 0-2.3 1-2.3 2.3 0 1.3 1 2.3 2.3 2.3 1 0 1.9-.6 2.2-1.5H33c-3.4 3.5-7.7 4.9-8.9 5.3-2.1-.6-13.6-4.6-13.6-17.1V21c3.5-.6 7.6-1.7 9-3.4 0 0 .6 3.1-1.5 4.4 0 0 7.2-1.1 8.5-3.3 0 0 .3 5.7 11 5-.4 3.1-1.5 5.7-3 7.8zm12-12.6C46.1 8.1 36.5 0 24 0S1.9 8.1 1.5 18.9C.6 19.3 0 20.1 0 21v1.6C0 24 1.3 25 2.8 25H4v-5.8c.4-9.5 8.8-16.6 20-16.6s19.6 7.1 19.9 16.6V25h1.2c1.6 0 2.8-1.1 2.8-2.4V21c.1-.9-.5-1.7-1.4-2.1z"/></symbol><symbol viewBox="0 0 16.877 16.877" id="phone" xmlns="http://www.w3.org/2000/svg"><path d="M5.301 5.587L1.404 1.688 2.913.177A.598.598 0 0 1 3.756.17l3.036 3.039a.6.6 0 0 1-.003.848l-.665.664-.619.619a1.705 1.705 0 0 0-.204.247zm3.206 6.351a34.186 34.186 0 0 1-1.844-1.725 34.655 34.655 0 0 1-1.724-1.848c-.45-.52-.538-1.273-.303-1.907l-4-4.001c-.931.957-.812 3.33.208 5.415.438.902 1.006 1.716 1.593 2.49a22.316 22.316 0 0 0 1.906 2.176 21.258 21.258 0 0 0 2.171 1.913c.774.589 1.59 1.153 2.486 1.59 2.088 1.019 4.462 1.131 5.418.199l-4.001-4.001c-.634.235-1.388.148-1.91-.301zm8.195 1.181l-3.036-3.037a.605.605 0 0 0-.848.003h-.002l-.667.666-.615.618a1.866 1.866 0 0 1-.247.205l3.896 3.898c.504-.505 1.007-1.007 1.512-1.51a.594.594 0 0 0 .007-.843z"/></symbol><symbol viewBox="0 0 44 44" id="practice" xmlns="http://www.w3.org/2000/svg"><path fill-rule="evenodd" clip-rule="evenodd" d="M44 28.6C44 37.1 37.1 44 28.6 44s-15.4-6.9-15.4-15.4c0-6.8 4.5-12.8 11-14.7V7.3h-2.6c-1 0-1.8-1-1.8-2.2V.7c0-.4.3-.7.7-.7h16.1c.4 0 .7.3.7.7v4.4c0 1.2-.8 2.2-1.8 2.2H33v6.5c6.5 2 11 8 11 14.8zM35.6 5.9c.1 0 .3-.3.3-.7V1.5H21.3V3h10.3v1.5H21.3v.7c0 .4.2.7.3.7h14zm-3.5 9.3c-.3-.1-.6-.4-.6-.7V7.3h-5.9v7.1c0 .4-.2.7-.6.7-6.2 1.5-10.4 7.1-10.4 13.4 0 7.7 6.2 13.9 13.9 13.9s13.9-6.2 13.9-13.9c.1-6.2-4.2-11.8-10.3-13.3zm4.6 9.7h1.5v1.5h-1.5v-1.5zm-4.4-3.6h1.5v1.5h-1.5v-1.5zm8 7.3c0 6.5-5.3 11.7-11.7 11.7S16.9 35 16.9 28.6c0-.4.3-.7.7-.7h22c.4 0 .7.3.7.7zm-22 .7c.4 5.4 4.8 9.5 10.3 9.5s9.8-4.2 10.3-9.5H18.3zm15.4 1.5h1.5v1.5h-1.5v-1.5zm-2.2 2.9H33v1.5h-1.5v-1.5zm-3.6 2.2h1.5v1.5h-1.5v-1.5zm0-4.4h1.5V33h-1.5v-1.5zm-3.7 2.2h1.5v1.5h-1.5v-1.5zM22 30.8h1.5v1.5H22v-1.5zm6.6-7.3h1.5V25h-1.5v-1.5zm-2.2-5.2h1.5v1.5h-1.5v-1.5zm-3.7 4.4h1.5v1.5h-1.5v-1.5zm-4.4 2.2h1.5v1.5h-1.5v-1.5zM8.8 36.7v1.5H6.6v2.2H5.1V27.1h1.5v2.2h2.2v1.5H6.6V33h2.2v1.5H6.6v2.2h2.2zM1.5 23.5h10.3V25H2.9v16.9c0 .4.3.7.7.7h14.7V44H3.7c-1.2 0-2.2-1-2.2-2.2V24.9H.7c-.4 0-.7-.3-.7-.7v-2.9c0-.4.3-.7.7-.7h12.5V22H1.5v1.5zm9.5-6.6h1.5v1.5H11v-1.5zm-.7-8.1h1.5v1.5h-1.5V8.8zm-3.7 4.4h1.5v1.5H6.6v-1.5zm-2.9 5.1H2.2v-1.5h1.5v1.5zm-.8-11h1.5v1.5H2.9V7.3z"/></symbol><symbol viewBox="0 0 512 512" id="puzzle" xmlns="http://www.w3.org/2000/svg"><path d="M472.4 0H39.6C17.7 0 0 17.7 0 39.6v432.9C0 494.3 17.7 512 39.6 512h432.9c21.8 0 39.6-17.7 39.6-39.6V39.6C512 17.7 494.3 0 472.4 0zM248.5 497H39.6C26 497 15 486 15 472.4V263.5h80.7c13 0 23.5-10.5 23.5-23.5v-16.1c0-9.6-3.9-18.3-10.7-23.9-8.5-7-13.3-17.3-13.3-28.2 0-11.1 4.9-21.4 13.5-28.4s19.9-9.7 31-7.3c14.1 2.9 25.3 14.5 28 28.7 2.5 13.3-2.1 26.4-12.4 35-7 5.9-11 14.6-11 23.9V240c0 13 10.6 23.5 23.5 23.5h80.7v80.7c0 4.7-3.8 8.5-8.5 8.5h-16.4c-4.8 0-9.3-2.1-12.4-5.7-12.1-14.4-30.5-20.9-49.3-17.5-20.1 3.7-36.4 19.7-40.6 39.6-3.3 15.6.5 31.4 10.4 43.6 9.9 12.1 24.4 19.1 40.1 19.1 15.4 0 29.9-6.9 39.8-18.8 2.7-3.3 7.2-5.2 12.3-5.2H240c4.7 0 8.5 3.8 8.5 8.5V497zM497 248.5h-8.5c-4.1 0-7.5 3.4-7.5 7.5s3.4 7.5 7.5 7.5h8.5v208.9c0 13.5-11 24.6-24.6 24.6H263.5v-80.7c0-13-10.5-23.5-23.5-23.5h-16.1c-9.6 0-18.3 3.9-23.9 10.7-7 8.5-17.3 13.3-28.2 13.3-11.1 0-21.4-4.9-28.4-13.5s-9.7-19.9-7.3-31c2.9-14.1 14.5-25.3 28.7-28 13.3-2.5 26.4 2.1 35 12.4 5.9 7 14.6 11 23.8 11H240c13 0 23.5-10.6 23.5-23.5v-80.7h80.7c4.7 0 8.5 3.8 8.5 8.5v16.3c0 4.9-2.1 9.4-5.7 12.4-14.4 12.1-20.9 30.6-17.4 49.3 3.7 20.1 19.7 36.4 39.6 40.6 3.7.8 7.3 1.1 11 1.1 11.8 0 23.3-4 32.6-11.5 12.1-9.9 19.1-24.4 19.1-40.1 0-15.4-6.9-29.9-18.8-39.8-3.3-2.7-5.2-7.3-5.2-12.4v-16c0-4.7 3.8-8.5 8.5-8.5h40.1c4.1 0 7.5-3.4 7.5-7.5s-3.4-7.5-7.5-7.5h-40.1c-13 0-23.5 10.6-23.5 23.5v16c0 9.6 3.9 18.3 10.7 23.9 8.5 7 13.3 17.3 13.3 28.2 0 11.1-4.9 21.4-13.5 28.4s-19.9 9.7-31 7.3c-14.1-2.9-25.3-14.5-28-28.7-2.5-13.3 2.1-26.4 12.4-35 7-5.9 11-14.6 11-23.9V272c0-13-10.6-23.5-23.5-23.5h-80.7v-80.7c0-4.7 3.8-8.5 8.5-8.5h16.3c4.9 0 9.4 2.1 12.4 5.7 12.1 14.4 30.6 20.9 49.3 17.5 20.1-3.7 36.4-19.7 40.6-39.6 3.3-15.6-.5-31.4-10.4-43.6-9.9-12.1-24.4-19.1-40.1-19.1-15.4 0-29.9 6.9-39.8 18.8-2.7 3.3-7.2 5.2-12.3 5.2H272c-4.7 0-8.5-3.8-8.5-8.5V55.6c0-4.1-3.4-7.5-7.5-7.5s-7.5 3.4-7.5 7.5v40.1c0 13 10.5 23.5 23.5 23.5h16.1c9.6 0 18.3-3.9 23.9-10.7 7-8.5 17.3-13.3 28.2-13.3 11.1 0 21.4 4.9 28.4 13.5s9.7 19.9 7.3 31c-2.9 14.1-14.5 25.3-28.7 28-13.3 2.5-26.4-2.1-35-12.4-5.9-7-14.6-11-23.9-11H272c-13 0-23.5 10.6-23.5 23.5v80.7h-80.7c-4.7 0-8.5-3.8-8.5-8.5v-16.3c0-4.9 2.1-9.4 5.7-12.4 14.4-12.1 20.9-30.6 17.5-49.3-3.7-20.1-19.7-36.4-39.6-40.6-15.6-3.2-31.4.5-43.6 10.4-12.1 9.9-19.1 24.4-19.1 40.1 0 15.4 6.9 29.9 18.8 39.8 3.3 2.7 5.2 7.2 5.2 12.3v16c0 4.7-3.8 8.5-8.5 8.5H15V39.6C15 26 26 15 39.6 15h208.9v8.5c0 4.1 3.4 7.5 7.5 7.5s7.5-3.4 7.5-7.5V15h208.9C486 15 497 26 497 39.6v208.9z"/></symbol><symbol viewBox="0 0 54 54" id="round-circle" xmlns="http://www.w3.org/2000/svg"><path fill-rule="evenodd" clip-rule="evenodd" d="M47.6 44.6l3.9 3.9H38.3V35.3l3.8 3.8c4.5-5.2 5.4-12.5 2.6-18.6l7-3.3c4.1 8.9 2.8 19.8-4.1 27.4zm-8.5-32.7c-5.2-4.5-12.5-5.4-18.6-2.6l-3.3-7C26.1-1.8 37-.5 44.6 6.4l3.9-3.9v13.2H35.3l3.8-3.8zM27 16.4c5.8 0 10.6 4.7 10.6 10.6 0 5.8-4.7 10.6-10.6 10.6-5.8 0-10.6-4.7-10.6-10.6 0-5.8 4.8-10.6 10.6-10.6zM9.3 33.5l-7 3.3C-1.8 27.9-.5 17 6.4 9.4L2.5 5.5h13.2v13.2l-3.8-3.8c-4.5 5.3-5.4 12.6-2.6 18.6zm5.6 8.6c5.2 4.5 12.6 5.4 18.6 2.6l3.3 7c-8.9 4.2-19.8 2.8-27.4-4.1l-3.9 3.9V38.3h13.2l-3.8 3.8z"/></symbol><symbol id="service-nastrojka-reklamy" viewBox="0 0 52 54" xmlns="http://www.w3.org/2000/svg"><style>.bfst0{fill-rule:evenodd;clip-rule:evenodd;fill:none}</style><path class="bfst0" d="M50.3 43.3h-.8v7.3c0 1.9-1.5 3.4-3.4 3.4H3.4C1.5 54 0 52.5 0 50.6V24.4c0-1.4.8-2.6 2-3.1v-.7C2 19.1 3.1 18 4.6 18h2L7.7 6.2C7.8 4.9 9 3.9 10.4 4l11.9 1.2c.4 0 .7.4.7.8s-.4.7-.8.7l-12-1.2c-.5-.1-1 .3-1 .9L7.8 20.9h1l.9-9.3c.1-.7.5-1.3 1.2-1.5.9-.3 1.6-.9 2.1-1.7.4-.6 1-.9 1.7-.8l5.9.6c.4 0 .7.4.7.8s-.4.7-.8.7l-5.9-.6c-.1 0-.2 0-.3.1-.7 1.1-1.7 1.9-2.8 2.3-.1 0-.2.1-.2.2l-.9 9.2H14L27.5 1.1c.4-.6.9-.9 1.6-1 .7-.1 1.3 0 1.9.4l15.6 10.7c1.1.8 1.4 2.3.7 3.5L44.8 18h.6c1.4 0 2.6 1.2 2.6 2.6v1c.9.6 1.4 1.6 1.4 2.8v7.3h.8c.9 0 1.7.8 1.7 1.7v8.2c.1.9-.7 1.7-1.6 1.7zM4.6 19.5c-.6 0-1.1.5-1.1 1.1v.4h2.7l.1-1.4H4.6zm41.3-5.8c.3-.4.2-1-.2-1.3L30.1 1.7c-.2-.1-.3-.2-.5-.2h-.2c-.2 0-.5.2-.6.4l-12.9 19h1.2l9.6-14.2c.4-.6 1.1-.9 1.7-.8.9.1 1.8 0 2.6-.5.6-.3 1.3-.3 1.9.1L41 11c.6.4.9 1 .8 1.7-.1.9.1 1.9.5 2.7.3.6.3 1.3-.1 1.9l-2.4 3.5H41l4.9-7.1zM29.1 15c3.3 0 6.1 2.6 6.3 5.9H38l3-4.4c.1-.1.1-.2 0-.3-.6-1.1-.9-2.4-.7-3.6 0-.1 0-.2-.1-.3l-8.1-5.5c-.1-.1-.2-.1-.3 0-1.1.6-2.4.8-3.6.7-.1 0-.2 0-.2.1l-9 13.3h3.9c.1-3.3 2.8-5.9 6.2-5.9zm-4.8 5.9h9.5c-.2-2.4-2.3-4.4-4.8-4.4-2.4.1-4.5 2-4.7 4.4zm22.2-.3c0-.6-.5-1.1-1.1-1.1h-1.6l-1 1.4h3.6v-.3zm1.4 3.8c0-1-.8-1.9-1.9-1.9H3.4c-1 0-1.9.8-1.9 1.9v2.1h46.4v-2.1zm0 3.6H1.5v18.9h4.1c.4 0 .8.3.8.8s-.3.8-.8.8H1.5v2.1c0 1 .8 1.9 1.9 1.9h42.7c1 0 1.9-.8 1.9-1.9v-2.1H10.6c-.4 0-.8-.3-.8-.8s.3-.8.8-.8H48v-3.6h-7.3c-3.2 0-5.8-2.6-5.8-5.8 0-.6.1-1.2.3-1.7.1-.3.2-.5.3-.7V35c.9-1.9 2.9-3.3 5.2-3.3H48V28zm2.6 5.4c0-.1-.1-.2-.2-.2h-9.6c-1.6 0-3 .9-3.8 2.3 0 .1-.1.1-.1.2-.1.1-.1.3-.2.4-.2.5-.3 1-.3 1.5s.1 1 .3 1.5c0 .1.1.3.2.4 0 .1.1.1.1.2.7 1.3 2.1 2.3 3.8 2.3h9.6c.1 0 .2-.1.2-.2v-8.4zm-9.6 7.2c-1.7 0-3.1-1.4-3.1-3.1 0-1.7 1.4-3.1 3.1-3.1 1.7 0 3.1 1.4 3.1 3.1 0 1.7-1.4 3.1-3.1 3.1zm0-4.7c-.9 0-1.6.7-1.6 1.6 0 .9.7 1.6 1.6 1.6.9 0 1.6-.7 1.6-1.6-.1-.9-.8-1.6-1.6-1.6z"/></symbol><symbol id="service-seo-prodvizhenie-s-garantiej" viewBox="0 0 41 32" xmlns="http://www.w3.org/2000/svg"><style>.bgst0{fill-rule:evenodd;clip-rule:evenodd;fill:none}</style><path class="bgst0" d="M38.8 13h-.7c-.3 0-.7-.1-.9-.2l1.6 2c.5.6.8 1.4.8 2.2v13.6c0 .8-.6 1.4-1.4 1.4H36c-.8 0-1.4-.6-1.4-1.4v-3h-28v3c0 .8-.6 1.4-1.4 1.4H2.9c-.8 0-1.4-.6-1.4-1.4V17c0-.8.3-1.6.8-2.2l1.6-2c-.4.2-.7.2-1 .2h-.7C1 13 0 12.1 0 10.9s1-2.1 2.2-2.1h.7c1.1 0 2 .8 2.1 1.8l1.8-5c.4-1.1 1.5-1.9 2.7-1.9h5.2l.4-1.9c.2-1 1.1-1.7 2.1-1.7h6.4c1 0 1.9.7 2.1 1.7l.4 1.9h5.2c1.2 0 2.3.8 2.7 1.9l1.8 5c.2-1 1.1-1.8 2.1-1.8h.7c1.2 0 2.2 1 2.2 2.1s-.8 2.1-2 2.1zM2.9 10.1h-.7c-.4 0-.8.3-.8.8 0 .4.3.8.8.8h.7c.4 0 .8-.3.8-.8 0-.4-.4-.8-.8-.8zm33 20.5h2.2v-3.4c-.4.3-1 .4-1.5.4h-.8v3zm-23.5-4.3h16.2v-1.5H12.4v1.5zm-9.6 4.3s.1 0 0 0H5v-3h-.6c-.6 0-1.1-.2-1.5-.4v3.4zM24.5 2c-.1-.4-.4-.6-.8-.6h-6.4c-.4 0-.7.3-.8.6l-.3 1.7h8.6L24.5 2zm11.1 11h-3.3c-.4 0-.7-.3-.7-.7 0-.4.3-.7.7-.7H35L32.9 6c-.2-.6-.8-1-1.4-1H9.6c-.7 0-1.2.4-1.5 1L6 11.7h18.8c.4 0 .7.3.7.7 0 .4-.3.7-.7.7H5.4l-2.1 2.6c-.3.3-.5.8-.5 1.3v7.7c0 .8.7 1.5 1.5 1.5H11v-1.5c0-.8.6-1.4 1.4-1.4h16.1c.8 0 1.4.6 1.4 1.4v1.5h6.6c.8 0 1.5-.7 1.5-1.5V17c0-.5-.2-1-.5-1.4L35.6 13zm3.2-2.9h-.7c-.4 0-.8.3-.8.8 0 .4.3.8.8.8h.7c.4 0 .8-.3.8-.8 0-.4-.3-.8-.8-.8zm-4.7 11c-1.4 0-2.5-1.1-2.5-2.5s1.1-2.5 2.5-2.5 2.5 1.1 2.5 2.5-1.1 2.5-2.5 2.5zm0-3.7c-.6 0-1.1.5-1.1 1.1 0 .6.5 1.1 1.1 1.1.6 0 1.1-.5 1.1-1.1 0-.6-.5-1.1-1.1-1.1zm-.4 4.5c.8 0 1.4.6 1.4 1.4 0 .8-.6 1.4-1.4 1.4s-1.4-.6-1.4-1.4c0-.8.6-1.4 1.4-1.4zM29.3 13h-1.5c-.4 0-.7-.3-.7-.7 0-.4.3-.7.7-.7h1.5c.4 0 .7.3.7.7 0 .4-.3.7-.7.7zm.2 4.3c.3.3.4.8.3 1.2l-.4 1.5c-.2.6-.7 1.1-1.4 1.1H13c-.7 0-1.2-.4-1.4-1.1l-.4-1.5c-.1-.4 0-.9.3-1.2.3-.3.7-.5 1.1-.5h15.7c.5 0 .9.2 1.2.5zm-16.9.8c0 .1 0 .1 0 0l.3 1.5h15l.4-1.5H12.6zm-5.7 3c-1.4 0-2.5-1.1-2.5-2.5S5.5 16 6.9 16s2.5 1.1 2.5 2.5-1.1 2.6-2.5 2.6zm0-3.7c-.6 0-1.1.5-1.1 1.1 0 .6.5 1.1 1.1 1.1S8 19.1 8 18.5c.1-.6-.4-1.1-1.1-1.1zm.4 4.5c.8 0 1.4.6 1.4 1.4 0 .8-.6 1.4-1.4 1.4-.8 0-1.4-.6-1.4-1.4 0-.8.6-1.4 1.4-1.4z"/></symbol><symbol id="service-smm" viewBox="0 0 45 42" xmlns="http://www.w3.org/2000/svg"><style>.bhst0{fill-rule:evenodd;clip-rule:evenodd;fill:none}</style><path class="bhst0" d="M43.3 35H27.6v5.5h6.8c.4 0 .7.3.7.7 0 .4-.3.7-.7.7H10.6c-.4 0-.7-.3-.7-.7 0-.4.3-.7.7-.7h6.8V35H1.7C.8 35 0 34.3 0 33.3V1.7C0 .8.8 0 1.7 0h41.6c.9 0 1.7.8 1.7 1.7v31.6c0 1-.8 1.7-1.7 1.7zm-24.5 5.6h7.3V35h-7.3v5.6zM43.6 1.7c0-.1-.1-.3-.3-.3H1.7c-.1 0-.3.1-.3.3v31.6c0 .1.1.3.3.3h41.6c.1 0 .3-.1.3-.3V1.7zm-2.3 27.5H3.7c-.4 0-.7-.3-.7-.7s.3-.7.7-.7h37.6c.4 0 .7.3.7.7s-.3.7-.7.7zm-8.2-6.7c-3.2 1.9-6.8 2.9-10.6 2.9-3.7 0-7.4-1-10.6-2.9-3.1-1.8-5.7-4.4-7.5-7.5-.1-.2-.1-.5 0-.7 1.8-3.1 4.4-5.7 7.5-7.5 3.2-1.9 6.8-2.9 10.6-2.9 3.7 0 7.4 1 10.6 2.9 3.1 1.8 5.7 4.4 7.5 7.5.1.2.1.5 0 .7-1.8 3.1-4.4 5.7-7.5 7.5zM5.9 14.6c2.2 3.6 5.5 6.3 9.3 7.9-2.1-2-3.4-4.8-3.4-7.9s1.3-5.9 3.4-7.9c-3.8 1.6-7.1 4.3-9.3 7.9zm16.9-9.3h-.6c-5 .1-9 4.3-9 9.3 0 5 4 9.2 9 9.3h.6c5-.1 9-4.3 9-9.3 0-5-4-9.2-9-9.3zm7 1.4c2.1 2 3.4 4.8 3.4 7.9s-1.3 5.9-3.4 7.9c3.8-1.5 7.1-4.3 9.3-7.9-2.2-3.6-5.5-6.3-9.3-7.9zm-7.3 12.7c-2.6 0-4.8-2.2-4.8-4.8 0-2.6 2.1-4.8 4.8-4.8.7 0 1.3.1 2 .4.4.2.5.6.4 1-.2.4-.6.5-.9.4-.4-.2-.9-.3-1.4-.3-1.8 0-3.3 1.5-3.3 3.4 0 1.8 1.5 3.4 3.3 3.4 1.8 0 3.3-1.5 3.3-3.4 0-.5-.1-.9-.3-1.4-.2-.4 0-.8.4-1 .4-.2.8 0 1 .4.3.6.4 1.3.4 2-.1 2.5-2.3 4.7-4.9 4.7z"/></symbol><symbol id="service-sozdanie-lendingov" viewBox="0 0 40 53" xmlns="http://www.w3.org/2000/svg"><style>.bist0{fill-rule:evenodd;clip-rule:evenodd;fill:none}</style><path class="bist0" d="M40 26.8c0 .8-.3 1.5-.9 2l-.5.5c.9 1.2 1.4 2.7 1.4 4.2 0 2.2-1 4.2-2.6 5.6v2.6h1.8V53h-23V41.7H18v-1.6l-9.5-9.3-.2-.2c-1.1-.7-1.8-1.9-1.8-3.2 0-1.4.8-2.7 2-3.4l-4.3-4.3-3.3-3.3c-1.1-1.1-1.1-2.9 0-4L11.7 1.8c1.1-1.1 3-1.1 4.1 0l3.3 3.3.7.7c.7-.8 1.8-1.3 3-1.3 2.2 0 4 1.8 4 3.9v.5h.5c2.2 0 4 1.8 4 3.9v.5h.5c2.2 0 4 1.8 4 3.9v.5h.5c2.2 0 4 1.8 4 3.9 0 1.1-.5 2.2-1.3 2.9l.5.5c.2.3.5 1 .5 1.8zm-7.9 21.5v3h5.3v-7.8h-7.5c1.3 1.2 2.2 2.9 2.2 4.8zm-14.2 3h12.3v-3c0-2.7-2.2-4.8-4.9-4.8h-7.4v7.8zM8.2 27.4c0 1.2 1 2.2 2.2 2.2h8.8c1.2 0 2.2-1 2.2-2.2 0-1.2-1-2.2-2.2-2.2H9.9c-.9.3-1.7 1.2-1.7 2.2zM14.6 3c-.1-.1-.2-.2-.4-.2h-.9c-.1.1-.3.1-.4.2L2.1 13.7c-.4.4-.4 1.1 0 1.6l2.1 2L16.6 5.1l-2-2.1zm4.3 4.3l-1-1L5.4 18.6l5 5h8.8c2.2 0 4 1.8 4 3.9s-1.8 3.9-4 3.9h-.9l7 6.9c.4.4 1.2.4 1.6 0L37.4 28l.4-.4c.4-.4.4-1.1 0-1.6l-.8-.8-4.4-4.3-.5-.5-3.9-3.8-.5-.6-3.9-3.8-.5-.5-4.4-4.4zm3.9-1.1c-.7 0-1.3.3-1.7.8l3.1 3c.5-.4.8-1 .8-1.7 0-1.2-1-2.1-2.2-2.1zm4.4 4.3c-.7 0-1.3.3-1.7.8l3.1 3c.5-.4.8-1 .8-1.7 0-1.1-1-2.1-2.2-2.1zm4.4 4.3c-.7 0-1.3.3-1.7.8l3.1 3c.5-.4.8-1 .8-1.7 0-1.1-1-2.1-2.2-2.1zm4.4 4.4c-.7 0-1.3.3-1.7.8l3.1 3c.5-.4.8-1 .8-1.7 0-1.1-1-2.1-2.2-2.1zm1.4 11.3l-9.1 8.9c-.6.6-1.3.8-2.1.8-.7 0-1.5-.3-2.1-.8l-8.3-8.1h-4.5l7.8 7.7c.1.1.1.1.2.1l.3.3v2.4h15.9v-3.5l.4-.3c1.5-1.1 2.3-2.7 2.3-4.5 0-1.1-.3-2.1-.8-3zm-8-4.4c1.9 0 3.5 1.6 3.5 3.5s-1.6 3.5-3.5 3.5-3.5-1.6-3.5-3.5 1.6-3.5 3.5-3.5zm0 5.2c1 0 1.8-.8 1.8-1.7 0-1-.8-1.7-1.8-1.7s-1.8.8-1.8 1.7c0 .9.8 1.7 1.8 1.7zM9.4 8.2c.3-.3.9-.3 1.2 0 .3.3.3.9 0 1.2l-1.8 1.7c-.2.2-.4.3-.6.3-.2 0-.5-.1-.6-.3-.3-.3-.3-.9 0-1.2l1.8-1.7zm19.1 39.2c0 1.7-1.4 3-3.1 3-1.7 0-3.1-1.4-3.1-3s1.4-3 3.1-3c1.7-.1 3.1 1.3 3.1 3zm-4.4 0c0 .7.6 1.3 1.3 1.3.7 0 1.3-.6 1.3-1.3 0-.7-.6-1.3-1.3-1.3-.7 0-1.3.5-1.3 1.3z"/></symbol><symbol id="service-sozdanie-sajtov" viewBox="0 0 47 44" xmlns="http://www.w3.org/2000/svg"><style>.bjst0{fill-rule:evenodd;clip-rule:evenodd;fill:none}</style><path class="bjst0" d="M44.6 44H36c-1.3 0-2.3-1.1-2.3-2.4V33h-4.5l1.5 5.7c.2.7 0 1.5-.4 2.1-.4.6-1.1.9-1.9.9h-6.6c0 1.3-1.1 2.4-2.4 2.4H2.3C1.1 44 0 42.9 0 41.6V18.1c0-1.3 1.1-2.4 2.4-2.4V3.9C2.3 1.8 4.1 0 6.3 0h34.5c2.2 0 3.9 1.8 3.9 3.9v17.3c1.3 0 2.4 1.1 2.4 2.4v18.1c-.1 1.2-1.2 2.3-2.5 2.3zm-22.7-3.9h6.6c.2 0 .5-.1.6-.3.1-.2.2-.4.1-.7l-.2-.6h-7.2v1.6zm0-3.2h6.7l-1-3.9h-5.7v3.9zm0-5.5h11.8v-4.7H21.9v4.7zM1.6 41.6c0 .4.4.8.8.8h17.2c.4 0 .8-.4.8-.8V40H1.6v1.6zm0-3.1h18.8V21.2H1.6v17.3zm.7-21.2c-.4 0-.8.4-.8.8v1.6h18.8v-1.6c0-.4-.4-.8-.8-.8H2.3zM43.1 3.9c0-1.3-1.1-2.4-2.4-2.4H6.3C5 1.6 3.9 2.6 3.9 3.9v11.8h15.7c1.3 0 2.4 1.1 2.4 2.4v7.1h11.8v-1.6c0-1.3 1.1-2.4 2.3-2.4h7.1V3.9zm2.3 19.7c0-.4-.4-.8-.8-.8H36c-.4 0-.8.4-.8.8v1.6h10.2v-1.6zm0 3.1H35.2v11.8h10.2V26.7zm0 13.4H35.2v1.6c0 .4.4.8.8.8h8.6c.4 0 .8-.4.8-.8v-1.6zm-3.3-10.5l-3.9 3.9-1.2-1.1 3.9-3.9 1.2 1.1zm1.5 3.2l-3.9 3.9-1.1-1.1 3.9-3.9 1.1 1.1zM27.6 12l4.7-4.7 1.1 1.1-4.7 4.7-1.1-1.1zm-.7-4.7L30 4.2l1.1 1.1L28 8.4l-1.1-1.1zm-6.3 6.3l4.7-4.7 1.1 1.1-4.7 4.7-1.1-1.1zm6.6 1.1l-3.1 3.1-1.1-1.1 3.1-3.1 1.1 1.1zM11.7 3.1h1.6v1.6h-1.6V3.1zm-3.1 0h1.6v1.6H8.6V3.1zm-3.1 0H7v1.6H5.5V3.1zm1.8 31.7l9.4-9.4 1.1 1.1-9.4 9.4-1.1-1.1zm1.5-7.1l4.7-4.7 1.1 1.1-4.6 4.7-1.2-1.1zm-4.7 4.7l3.1-3.1 1.1 1.1-3.1 3.1-1.1-1.1z"/></symbol><symbol viewBox="0 0 32 31" id="shop" xmlns="http://www.w3.org/2000/svg"><path fill-rule="evenodd" clip-rule="evenodd" d="M30.4 17.5c-.1.8-.8 1.5-1.6 1.5H9.9l.3 1.7H27c.9 0 1.7.8 1.7 1.7 0 1-.7 1.7-1.7 1.7H8.7c-.2 0-.4 0-.6-.1-.1 0-.1-.1-.2-.1-.1-.1-.2-.1-.3-.2l-.2-.2c-.1-.1-.1-.2-.2-.3 0-.1-.1-.2-.1-.3 0-.1-.1-.1-.1-.2L4 3.4H1.7C.7 3.4 0 2.7 0 1.7 0 .8.7 0 1.7 0h3.7C6.2 0 6.9.6 7 1.4l.3 2h23c.5 0 .9.2 1.3.6.3.4.5.9.4 1.4l-1.6 12.1zm-8.4-2h5.2l.5-3.4H22v3.4zm-8.3-8.6H7.9l.6 3.5c.1 0 .2-.1.2-.1h5V6.9zm0 5.2h-5l.6 3.4h4.4v-3.4zm6.7-5.2h-5v3.4h5V6.9zm0 5.2h-5v3.4h5v-3.4zM22 6.9v3.4h6l.5-3.4H22zM11.2 25.8c1.4 0 2.5 1.2 2.5 2.6S12.6 31 11.2 31s-2.5-1.2-2.5-2.6 1.1-2.6 2.5-2.6zm15 0c1.4 0 2.5 1.2 2.5 2.6S27.6 31 26.2 31s-2.5-1.2-2.5-2.6 1.1-2.6 2.5-2.6z"/></symbol><symbol viewBox="0 0 11 18" id="slider-control" xmlns="http://www.w3.org/2000/svg"><path fill-rule="evenodd" clip-rule="evenodd" d="M8.9 0L11 2.1 4.2 9l6.8 6.9L8.9 18 0 9l8.9-9z"/></symbol><symbol viewBox="0 0 612 561" id="stats" xmlns="http://www.w3.org/2000/svg"><path d="M335.4 443.9h-58.6c-5.4 0-9.8 4.4-9.8 9.8s4.4 9.8 9.8 9.8h58.6c5.4 0 9.8-4.4 9.8-9.8 0-5.5-4.4-9.8-9.8-9.8z"/><path d="M612 491.7c0-.4-.1-.8-.2-1.2 0-.1 0-.2-.1-.3l-.3-.9c0-.1-.1-.2-.1-.3-.1-.3-.3-.7-.4-1v-.1c0-.1-54.2-102-54.2-102V120.3c0-5.4-4.4-9.8-9.8-9.8s-9.8 4.4-9.8 9.8v258.5H74.9V104.1c0-16.1 13.1-29.3 29.3-29.3h387.5c5.4 0 9.8-4.4 9.8-9.8s-4.4-9.8-9.8-9.8H104.2c-26.9 0-48.8 21.9-48.8 48.8v282L1.2 488c-.1.1-.1.1-.1.2-.2.3-.3.6-.4 1 0 .1-.1.2-.1.3l-.3.9c0 .1 0 .2-.1.3-.1.4-.2.8-.2 1.1 0 .3-.1.7-.1 1v19.5c.1 26.8 22 48.7 48.9 48.7h514.3c26.9 0 48.8-21.9 48.8-48.8v-19.5c.1-.4.1-.7.1-1zM71 398.3h470l45 84.6H26l45-84.6zm492.2 143.2H48.8c-16.2 0-29.3-13.1-29.3-29.3v-9.8h572.9v9.8c.1 16.1-13.1 29.3-29.2 29.3z"/><path d="M550.1 19.5h28.5l-233.1 233-72.2-72.1c-3.8-3.8-10-3.8-13.8 0L97.3 342.6c-3.8 3.8-3.8 10 0 13.8 1.9 1.9 4.4 2.9 6.9 2.9s5-1 6.9-2.9L266.5 201l72.2 72.1c3.8 3.8 10 3.8 13.8 0l240-239.9v28.5c0 5.4 4.4 9.8 9.8 9.8s9.8-4.4 9.8-9.8V9.8c0-5.4-4.4-9.8-9.8-9.8h-52.1c-5.4 0-9.8 4.4-9.8 9.8s4.4 9.7 9.7 9.7z"/></symbol><symbol viewBox="0 0 612 612" id="targeting" xmlns="http://www.w3.org/2000/svg"><path d="M611.1 60.5c-1.9-3.8-6-5.9-10.2-5.2l-52.2 8 8-52.2c.6-4.2-1.5-8.3-5.2-10.2-3.8-1.9-8.3-1.2-11.3 1.8l-60.5 60.5c-1.5 1.5-2.4 3.4-2.7 5.4l-9.6 62.2-34.7 34.7C385 121.2 323.2 96.9 257.6 96.9c-68.9 0-133.5 26.8-182.2 75.4C26.8 220.9 0 285.6 0 354.4S26.8 488 75.4 536.6C124 585.2 188.7 612 257.6 612c68.9 0 133.5-26.8 182.2-75.4 48.6-48.6 75.4-113.3 75.4-182.2 0-54.8-16.9-107-48.9-151.2-3.2-4.4-9.3-5.3-13.6-2.2-4.4 3.2-5.3 9.3-2.2 13.6 29.6 40.8 45.2 89.1 45.2 139.7 0 131.2-106.8 238-238 238s-238-106.8-238-238 106.8-238 238-238c60.4 0 117.3 22.3 161.3 62.9L374.2 224c-32.1-28.8-73.2-44.5-116.6-44.5-96.5 0-175 78.5-175 175s78.5 175 175 175 175-78.5 175-175c0-32.2-8.8-63.7-25.5-91-2.8-4.6-8.8-6.1-13.4-3.3s-6.1 8.8-3.3 13.4c14.8 24.3 22.6 52.2 22.6 80.8 0 85.7-69.7 155.4-155.4 155.4s-155.4-69.7-155.4-155.4S171.9 199 257.6 199c38.2 0 74.4 13.7 102.8 38.8l-44.8 44.8c-16.4-13.3-36.7-20.5-58.1-20.5-50.9 0-92.4 41.4-92.4 92.4 0 50.9 41.4 92.4 92.4 92.4 50.9 0 92.4-41.4 92.4-92.4 0-9.1-1.3-18-3.9-26.7-1.6-5.2-7-8.1-12.2-6.5-5.2 1.6-8.1 7-6.5 12.2 2 6.8 3.1 13.9 3.1 21 0 40.2-32.7 72.8-72.8 72.8s-72.8-32.7-72.8-72.8c0-40.2 32.7-72.8 72.8-72.8 16.2 0 31.5 5.2 44.1 14.9l-51 51c-3.8 3.8-3.8 10 0 13.8 1.9 1.9 4.4 2.9 6.9 2.9s5-1 6.9-2.9l175.2-175.2 41.5-41.5 62.2-9.6c2.1-.3 4-1.3 5.4-2.7l60.5-60.5c3-3.1 3.7-7.7 1.8-11.4zM495.7 74.8l37.2-37.2-5 32.7-37.2 37.2 5-32.7zm41.5 41.5l-32.7 5 37.2-37.2 32.7-5-37.2 37.2z"/></symbol><symbol viewBox="0 0 38 44" id="techsupport" xmlns="http://www.w3.org/2000/svg"><path fill-rule="evenodd" clip-rule="evenodd" d="M0 44l1.5-9.4c.5-2.8 2.5-5.2 5.2-6.1l6-2v-.9h1.4v1.3l1 4.2 2.8-3.4H20l2.8 3.4 1-4.2v-1.3h1.4v.9l6 2c2.7.9 4.7 3.3 5.2 6.1L38 44H0zm9.2-14.9l-2.1.7c-2.2.8-3.8 2.7-4.2 5l-1.3 7.7h4.8l.7-5.5.4-.1c1-.3 1.6-1.2 1.6-2.3v-5.5zm18.2 5.6v-6l-2.3-.8-1.5 6.3-4.2-5.1h-.7l-4.2 5.1-1.5-6.3-2.3.8v6c0 1.5-.8 2.8-2.2 3.5l-.6 4.5h9v-4.8l-1.3-3.4 1.3-.5 1.4 3.7v5.1h1.4v-5.1l1.4-3.7 1.3.5-1.3 3.4v4.8h9l-.6-4.5c-1.3-.7-2.1-2-2.1-3.5zm7.7.1c-.4-2.3-2-4.3-4.2-5l-2.1-.7v5.5c0 1 .7 2 1.6 2.3l.4.1.7 5.5h4.8l-1.2-7.7zm-12.6 3.5h5.6v1.4h-5.6v-1.4zm-12.6 0h5.6v1.4H9.9v-1.4zm21-22.5c-.1 1.7-1.4 3.1-3.1 3.3-.4 1.2-1 2.4-1.9 3.3l-2.7 2.8c-.7.7-1.5 1-2.5 1h-3.3c-.9 0-1.8-.4-2.5-1l-2.7-2.8c-.9-.9-1.6-2.1-1.9-3.3-1.7-.2-3-1.6-3.1-3.3-1.4-.1-2.1-.2-2.2-.2l-.7-.1.1-.7c0-.2.8-3.7 4.3-5.3C9.2 4.1 13.7 0 19 0s9.8 4.1 10.4 9.4c3.5 1.6 4.2 5.2 4.3 5.3l.1.7-.7.1c-.1.1-.8.2-2.2.3zm-1.4.2c-.4 0-.9.1-1.4.1v1.6c.7-.3 1.2-1 1.4-1.7zm-18.2.9c0 1.7.7 3.3 1.8 4.5l2.7 2.8c.4.4.9.6 1.5.6h3.3c.6 0 1.1-.2 1.5-.6l2.7-2.8c1.2-1.2 1.8-2.8 1.8-4.5v-.8c-2.1.1-4.6.2-7.7.2-3.1 0-5.6-.1-7.7-.2v.8zm-1.4.7V16H8.5c.2.7.7 1.4 1.4 1.6zm.1-8.2c.7.1 1.8.3 3.4.4.2-3.9 1.9-6.5 3.3-8-3.5.9-6.2 3.8-6.7 7.6zm9-7.8c-1 .7-3.9 3.2-4.2 8.3H19c1.6 0 3 0 4.2-.1-.3-5-3.2-7.5-4.2-8.2zm2.3.1c1.4 1.5 3 4.1 3.3 8 1.6-.1 2.8-.3 3.4-.4-.5-3.7-3.2-6.6-6.7-7.6zm7.4 9c-.9.2-4.2.7-9.7.7-5.5 0-8.9-.5-9.7-.7-2 .9-3 2.6-3.4 3.6 1.7.2 6.2.6 13.1.6 6.8 0 11.3-.4 13.1-.6-.4-1-1.3-2.7-3.4-3.6z"/></symbol><symbol viewBox="0 0 24 25" id="uplevel" xmlns="http://www.w3.org/2000/svg"><path fill-rule="evenodd" clip-rule="evenodd" d="M21.2 5.3c-1.5 9.6-12 14.7-21 11.6-.3-.1-.2-.5.1-.5C7.6 17.5 14 12.2 15.1 5.3h-3.3l3.1-2.7 3-2.6L21 2.7l3 2.6h-2.8zM3.1 25H0v-7.3c1 .3 2.1.6 3.1.8V25zm4.7-6.5V25H4.7v-6.4h1c.7 0 1.4-.1 2.1-.1zm4.7 6.5H9.4v-6.8c1.1-.2 2.1-.6 3.1-1V25zm4.7 0h-3.1v-8.6c1.1-.6 2.2-1.4 3.1-2.2V25zm4.7-18.9V25h-3.1V12.5c1.5-1.8 2.5-4 3.1-6.4z"/></symbol><symbol viewBox="0 0 44 44" id="uplevel-graph" xmlns="http://www.w3.org/2000/svg"><path fill-rule="evenodd" clip-rule="evenodd" d="M44 41.2V44H0V0h2.8v41.3H44zM19.7 15.3l11.2 2.8 3.9-6.5 3.5 2.1.2-11L28.9 8l3.5 2.1-2.8 4.7-10.8-2.7L7.3 23.8l1.9 1.9 10.5-10.4zm-3.2 23.2H22V18.7l-1.5-.4-4 4v16.2zm-8.3-9.9v9.9h5.5V25.1l-4.5 4.5-1-1zM33 19.9v18.6h5.5V17l-2.8-1.7-2.7 4.6zm-2.8 18.6V20.8l-5.5-1.4v19.1h5.5z"/></symbol><symbol viewBox="0 0 31 31" id="visitka" xmlns="http://www.w3.org/2000/svg"><path fill-rule="evenodd" clip-rule="evenodd" d="M29.9 31H1.1L0 23.3c0-.3.1-.7.3-1 .3-.3.6-.5 1-.5h28.2c.4 0 .8.2 1 .5.3.3.4.7.3 1.1l-.9 7.6zM14.8 19.4c-.2.6-.6 1.1-1 1.4h-3.2c-.4-.4-.8-.9-1.1-1.4h-.1c-.4 0-1-.9-1.1-1.6-.1-.7-.1-1.2.3-1.2h.1c-.2-1.9.2-4.4 3-4.4 2.9 0 3.4 2.5 3.5 4.4h.2c.4 0 .5.5.5 1.2 0 .6-.5 1.6-.9 1.6 0 .1-.1 0-.2 0zm1.8-2.9c-.1-.2-.2-.4-.4-.5-.1-.9-.2-1.6-.5-2.2h8.9c.4 0 .7.4.6.8l-.2 1.2c-.1.4-.4.7-.8.7h-7.6zm-1.3 4.4v-.6s0-.1.1-.1c.6-.2 1.1-.9 1.3-1.6h7.2c.4 0 .6.3.6.7l-.2 1c-.1.3-.4.6-.8.6h-8.2zm12.1-.5l1.3-9.5c0-1.2-1-2.1-2.2-2.1H4.4c-1.2 0-2.2 1-2.2 2.1l1.5 9.6h-2L.3 11c0-2.2 1.8-4 4.1-4h22.2c2.3 0 4.1 1.8 4.1 4l-1.3 9.5h-2zm-2.2-15H5l-.4-1.5c0-.2 0-.3.1-.4.1-.1.3-.2.4-.2H25c.2 0 .3.1.4.2.1.1.1.3.1.4l-.3 1.5zM7 2.1L6.7.6c0-.1 0-.3.1-.4.1-.1.2-.2.4-.2H23c.2 0 .3.1.4.2.1.1.1.3.1.4l-.3 1.5H7z"/></symbol><symbol viewBox="0 0 44 44" id="zoom" xmlns="http://www.w3.org/2000/svg"><path fill-rule="evenodd" clip-rule="evenodd" d="M43.6 41.8L32.9 31.1c2.9-3.3 4.6-7.6 4.6-12.3C37.5 8.4 29.1 0 18.8 0 8.4 0 0 8.4 0 18.8c0 10.3 8.4 18.8 18.8 18.8 4.7 0 9-1.7 12.3-4.6l10.7 10.7c.3.3.6.4.9.4.3 0 .7-.1.9-.4.5-.6.5-1.4 0-1.9zm-41-23c0-8.9 7.2-16.1 16.1-16.1 8.9 0 16.1 7.2 16.1 16.1 0 8.9-7.2 16.1-16.1 16.1-8.8 0-16.1-7.2-16.1-16.1z"/></symbol></svg>