<?xml version="1.0" encoding="utf-8"?>
<!-- Generator: Adobe Illustrator 18.1.1, SVG Export Plug-In . SVG Version: 6.00 Build 0)  -->
<svg version="1.1" fill="#ffffff" id="Layer_1" xmlns="http://www.w3.org/2000/svg" xmlns:xlink="http://www.w3.org/1999/xlink" x="0px" y="0px"
	 viewBox="0 0 26 24" enable-background="new 0 0 26 24" xml:space="preserve">
<path fill-rule="evenodd" clip-rule="evenodd" d="M26,18.6c0,0.9-0.8,1.6-1.7,1.6h-8h-0.5h-5.8H9.3H1.7c-0.9,0-1.6-0.7-1.7-1.6v0
	c0,0,0,0,0,0v-0.1c0,0,0,0,0,0v-2.5c0,0,0,0,0,0V1.9C0,0.8,0.8,0,1.9,0h22.2c1,0,1.9,0.8,1.9,1.9v13.6L26,18.6z M11.5,18.4
	c0,0.2,0.2,0.4,0.4,0.4h2.2c0.2,0,0.4-0.2,0.4-0.4v-0.3c0-0.2-0.2-0.4-0.4-0.4h-2.2c-0.2,0-0.4,0.2-0.4,0.4V18.4z M24.4,1.9
	c0-0.2-0.1-0.3-0.3-0.3H1.9c-0.2,0-0.3,0.1-0.3,0.3v13.9c0,0.2,0.1,0.3,0.3,0.3h22.2c0.2,0,0.3-0.1,0.3-0.3V1.9z M18.4,8.3l0.8-0.8
	c0,0.3,0.1,0.5,0.1,0.8l0,0H18.4z M16.8,8.3l2.1-2.1c0.1,0.2,0.2,0.4,0.2,0.6l-1.5,1.5H16.8z M15.1,8.3l3.2-3.2
	c0.1,0.2,0.2,0.3,0.3,0.5l-2.7,2.7H15.1z M13.9,8.3V7.9l3.6-3.6c0.1,0.1,0.1,0.1,0.2,0.2c0.1,0.1,0.1,0.1,0.2,0.2l-3.6,3.6H13.9z
	 M13.9,6.2l2.6-2.6c0.2,0.1,0.3,0.2,0.5,0.3L13.9,7V6.2z M13.9,4.5l1.5-1.5c0.2,0.1,0.4,0.1,0.6,0.2l-2.1,2.1V4.5z M13.9,2.9
	L13.9,2.9c0.3,0,0.5,0,0.8,0l-0.8,0.8V2.9z M12.9,14.7c-3,0-5.4-2.4-5.4-5.4c0-3,2.4-5.4,5.4-5.4v5.4h5.4
	C18.4,12.2,15.9,14.7,12.9,14.7z M7.4,22.6L7.4,22.6c1.2-0.2,1.9-0.7,2.3-1.2h6.6c0.4,0.5,1,1,2.3,1.2h-0.1c0.4,0,0.7,0.3,0.7,0.7
	c0,0.4-0.3,0.7-0.7,0.7H7.4c-0.4,0-0.7-0.3-0.7-0.7C6.7,22.9,7,22.6,7.4,22.6z"/>
</svg>
