<?xml version="1.0" encoding="utf-8"?>
<!-- Generator: Adobe Illustrator 18.1.1, SVG Export Plug-In . SVG Version: 6.00 Build 0)  -->
<svg version="1.1" fill="#29549b" id="Layer_1" xmlns="http://www.w3.org/2000/svg" xmlns:xlink="http://www.w3.org/1999/xlink" x="0px" y="0px"
	 viewBox="0 0 44 44" enable-background="new 0 0 44 44" xml:space="preserve">
<path fill-rule="evenodd" clip-rule="evenodd" d="M43.1,42.8h-8c-0.4,0-0.7-0.3-0.8-0.6l-1,0.8c-0.9,0.7-2,1.1-3.2,1.1h-12
	c-1.6,0-2.9-1.3-2.9-2.9c0-0.8,0.3-1.5,0.9-2.1c-0.5-0.5-0.9-1.3-0.9-2.1c0-0.2,0-0.5,0.1-0.7l-0.5-3c-1-0.3-2-0.7-3-1.2l-3.2,2.4
	c-0.3,0.2-0.8,0.2-1.1-0.1l-3.8-3.8c-0.3-0.3-0.3-0.8-0.1-1.1l2.4-3.2c-0.5-0.9-0.9-1.9-1.2-3l-4-0.6C0.3,22.4,0,22.1,0,21.6v-5.4
	c0-0.4,0.3-0.8,0.7-0.8l4-0.6c0.3-1,0.7-2,1.2-3L3.6,8.6C3.3,8.2,3.4,7.7,3.7,7.5l3.8-3.8c0.3-0.3,0.8-0.3,1.1-0.1l3.2,2.4
	c0.9-0.5,1.9-0.9,3-1.2l0.6-4C15.5,0.3,15.8,0,16.3,0h5.4c0.4,0,0.8,0.3,0.8,0.7l0.6,4c1,0.3,2,0.7,3,1.2l3.2-2.4
	c0.3-0.2,0.8-0.2,1.1,0.1l3.8,3.8c0.3,0.3,0.3,0.8,0.1,1.1L32,11.8c0.5,0.9,0.9,1.9,1.2,3l4,0.6c0.4,0.1,0.7,0.4,0.7,0.8v5.4
	c0,0.4-0.3,0.8-0.7,0.8l-4,0.6c-0.2,0.8-0.5,1.6-0.9,2.4c0.2,0.5,0.6,0.9,1,1.3l1.3,1c0.2-0.1,0.4-0.2,0.6-0.2h8
	c0.5,0,0.9,0.4,0.9,0.9v13.6C44,42.4,43.6,42.8,43.1,42.8z M25.2,21.9v-1.6c0-0.8,0.2-1.5,0.6-2.1c-0.2-1.5-0.9-3-2-4
	c-2.7-2.7-7.1-2.7-9.8,0c-2.7,2.7-2.7,7.1,0,9.8c1,1,2.3,1.7,3.7,1.9c0.1,0,0.2,0,0.4,0h2.2c1.3-0.3,2.6-0.9,3.5-1.9
	C24.4,23.3,24.9,22.6,25.2,21.9z M24.3,25.7h0.9v-0.8c-0.1,0.1-0.1,0.1-0.2,0.2C24.8,25.3,24.6,25.5,24.3,25.7z M32.4,21.5l3.8-0.6
	V17l-3.8-0.6c-0.3-0.1-0.6-0.3-0.7-0.6c-0.3-1.3-0.8-2.4-1.5-3.6c-0.2-0.3-0.2-0.7,0-0.9l2.2-3.1l-2.8-2.8l-3.1,2.2
	c-0.3,0.2-0.7,0.2-0.9,0c-1.1-0.7-2.3-1.2-3.6-1.5c-0.3-0.1-0.6-0.4-0.6-0.7l-0.6-3.8H17l-0.6,3.8c-0.1,0.3-0.3,0.6-0.6,0.7
	c-1.3,0.3-2.4,0.8-3.6,1.5c-0.3,0.2-0.7,0.2-0.9,0L8.1,5.4L5.4,8.1l2.2,3.1c0.2,0.3,0.2,0.7,0,0.9c-0.7,1.1-1.2,2.3-1.5,3.6
	c-0.1,0.3-0.4,0.6-0.7,0.6L1.7,17v3.9l3.8,0.6c0.3,0.1,0.6,0.3,0.7,0.6c0.3,1.3,0.8,2.4,1.5,3.6c0.2,0.3,0.2,0.7,0,0.9l-2.2,3.1
	l2.8,2.8l3.1-2.2c0.3-0.2,0.7-0.2,0.9,0c1,0.6,2.1,1.1,3.2,1.4c0,0,0,0,0,0c0,0,0,0,0-0.1c0,0,0,0,0-0.1c0,0,0,0,0-0.1
	c0,0,0,0,0-0.1c0,0,0,0,0-0.1c0,0,0,0,0-0.1c0,0,0,0,0-0.1c0,0,0,0,0-0.1c0,0,0,0,0,0c0,0,0,0,0.1-0.1c0,0,0,0,0,0c0,0,0,0,0.1-0.1
	c0,0,0,0,0,0c0,0,0.1-0.1,0.1-0.1c-0.5-0.5-0.9-1.3-0.9-2.1c0-0.1,0-0.1,0-0.2c0,0,0,0,0,0c0-0.1,0-0.1,0-0.2c0,0,0,0,0,0
	c0-0.1,0-0.1,0-0.2c0,0,0,0,0,0c0-0.1,0-0.1,0.1-0.2c0,0,0,0,0,0c0-0.1,0-0.1,0.1-0.2c0,0,0,0,0,0c0-0.1,0-0.1,0.1-0.2
	c0,0,0,0,0-0.1c0,0,0-0.1,0.1-0.1c0,0,0-0.1,0-0.1c0,0,0-0.1,0.1-0.1c0,0,0,0,0,0c-1.1-0.4-2-1.1-2.9-1.9c-3.4-3.4-3.4-8.9,0-12.2
	c1.6-1.6,3.8-2.5,6.1-2.5s4.5,0.9,6.1,2.5c1.1,1.1,1.8,2.4,2.2,3.8c0.5-0.3,1-0.4,1.5-0.5c0,0,0,0,0,0c0,0,0,0,0.1,0
	c-0.5-1.7-1.4-3.2-2.6-4.5c-4-4-10.6-4-14.6,0c-3.2,3.2-3.9,8.2-1.8,12.2c0.2,0.4,0.1,0.9-0.3,1.2c-0.1,0.1-0.3,0.1-0.4,0.1
	c-0.3,0-0.6-0.2-0.8-0.4c-1.2-2.2-1.7-4.9-1.3-7.4c0.4-2.6,1.5-5,3.4-6.9c4.7-4.7,12.3-4.7,17,0c1.7,1.7,2.8,3.8,3.3,6.1
	c0.7,0.5,1.2,1.3,1.2,2.2v3C32.1,21.6,32.2,21.5,32.4,21.5z M34.3,29.7l-2-1.6c-0.8-0.6-1.4-1.4-1.7-2.3c0,0,0-0.1,0-0.1
	c-0.1-0.4-0.2-0.8-0.3-1.2c0,0,0,0,0,0c0-0.1,0-0.2,0-0.2c0,0,0,0,0-0.1c0-0.1,0-0.2,0-0.3v-5.2c0-0.5-0.4-0.9-0.9-0.9
	c0,0-0.1,0-0.1,0c0,0,0,0,0,0c0,0-0.1,0-0.1,0c0,0,0,0,0,0c0,0-0.1,0-0.1,0c0,0,0,0,0,0c-0.4,0.1-0.8,0.3-1.1,0.5c0,0,0,0,0,0
	c0,0,0,0-0.1,0.1c0,0,0,0,0,0c0,0,0,0-0.1,0.1c0,0,0,0,0,0c0,0,0,0,0,0.1c0,0-0.1,0.1-0.1,0.1c0,0,0,0,0,0c-0.3,0.4-0.5,0.9-0.5,1.4
	v1.8v4.5c0,0.5-0.4,0.9-0.9,0.9h-5.7h-2.3c-0.1,0-0.2,0-0.2,0c0,0,0,0-0.1,0c0,0,0,0-0.1,0c0,0,0,0,0,0c0,0,0,0-0.1,0c0,0,0,0,0,0
	c0,0-0.1,0-0.1,0c0,0,0,0,0,0c0,0-0.1,0-0.1,0c0,0,0,0,0,0c-0.1,0.1-0.2,0.2-0.3,0.3c0,0,0,0,0,0c0,0,0,0.1-0.1,0.1c0,0,0,0,0,0
	c0,0,0,0,0,0.1c0,0,0,0,0,0c0,0,0,0,0,0.1c0,0,0,0,0,0c0,0,0,0,0,0.1c0,0,0,0,0,0c0,0,0,0,0,0.1c0,0,0,0,0,0c0,0,0,0.1,0,0.1
	c0,0.7,0.5,1.2,1.2,1.2h2c0.5,0,0.9,0.4,0.9,0.9c0,0.5-0.4,0.9-0.9,0.9h-2c0,0,0,0,0,0c-0.7,0-1.2,0.5-1.2,1.2
	c0,0.7,0.5,1.2,1.2,1.2h2c0.5,0,0.9,0.4,0.9,0.9c0,0.5-0.4,0.9-0.9,0.9h-2c0,0-0.1,0-0.1,0c0,0,0,0,0,0c0,0-0.1,0-0.1,0c0,0,0,0,0,0
	c0,0-0.1,0-0.1,0c0,0,0,0,0,0c-0.3,0.1-0.5,0.3-0.6,0.5c0,0,0,0,0,0c0,0,0,0.1-0.1,0.1c0,0,0,0,0,0c0,0,0,0.1,0,0.1c0,0,0,0,0,0
	c-0.1,0.1-0.1,0.3-0.1,0.5c0,0.7,0.5,1.2,1.2,1.2c0,0,0,0,0,0h2c0.5,0,0.9,0.4,0.9,0.9c0,0.5-0.4,0.9-0.9,0.9h-2
	c-0.7,0-1.2,0.5-1.2,1.2c0,0.7,0.5,1.2,1.2,1.2h12c0.8,0,1.5-0.3,2.1-0.7l2-1.5l0,0V29.7z M42.3,29.2H36v0v11.2v0.6h2.3v-6.7
	c0-0.5,0.4-0.9,0.9-0.9c0.5,0,0.9,0.4,0.9,0.9v6.7h2.3V29.2z M39.9,31.7c0,0.1,0,0.1-0.1,0.1c0,0-0.1,0.1-0.1,0.1
	c0,0-0.1,0.1-0.1,0.1c0,0-0.1,0.1-0.1,0.1c-0.1,0-0.1,0-0.2,0c-0.1,0-0.1,0-0.2,0c-0.1,0-0.1,0-0.2,0c-0.1,0-0.1,0-0.2,0
	c-0.1,0-0.1,0-0.1-0.1c0,0-0.1-0.1-0.1-0.1c0,0-0.1-0.1-0.1-0.1c0,0-0.1-0.1-0.1-0.1c0-0.1,0-0.1,0-0.2c0-0.1,0-0.1,0-0.2
	c0-0.1,0-0.1,0-0.2c0-0.1,0-0.1,0-0.2c0-0.1,0-0.1,0.1-0.1c0,0,0.1-0.1,0.1-0.1c0,0,0.1-0.1,0.1-0.1c0,0,0.1-0.1,0.1-0.1
	c0.1,0,0.1,0,0.2,0c0.1,0,0.2,0,0.3,0c0.1,0,0.1,0,0.2,0c0.1,0,0.1,0,0.1,0.1c0,0,0.1,0.1,0.1,0.1c0,0,0.1,0.1,0.1,0.1
	c0,0,0.1,0.1,0.1,0.1c0,0.1,0,0.1,0,0.2c0,0.1,0,0.1,0,0.2c0,0.1,0,0.1,0,0.2C40,31.6,40,31.6,39.9,31.7z M11,25.9
	c0.2,0,0.5,0.1,0.6,0.3c0.3,0.3,0.3,0.9,0,1.2c-0.2,0.2-0.4,0.2-0.6,0.2c-0.2,0-0.4-0.1-0.6-0.3c-0.3-0.3-0.3-0.9,0-1.2
	C10.5,26,10.7,25.9,11,25.9z M19,24.4c-3,0-5.5-2.5-5.5-5.5s2.5-5.5,5.5-5.5c3,0,5.5,2.5,5.5,5.5S22,24.4,19,24.4z M19,15.2
	c-2.1,0-3.8,1.7-3.8,3.8s1.7,3.8,3.8,3.8s3.8-1.7,3.8-3.8S21,15.2,19,15.2z M20.2,19l0.5,0.5c0.3,0.3,0.3,0.9,0,1.2
	c-0.2,0.2-0.4,0.3-0.6,0.3c-0.2,0-0.4-0.1-0.6-0.3L19,20.2l-0.5,0.5c-0.2,0.2-0.4,0.3-0.6,0.3s-0.4-0.1-0.6-0.3
	c-0.3-0.3-0.3-0.9,0-1.2l0.5-0.5l-0.5-0.5c-0.3-0.3-0.3-0.9,0-1.2c0.3-0.3,0.9-0.3,1.2,0l0.5,0.5l0.5-0.5c0.3-0.3,0.9-0.3,1.2,0
	c0.3,0.3,0.3,0.9,0,1.2L20.2,19z"/>
</svg>
