<?xml version="1.0" encoding="utf-8"?>
<!-- Generator: Adobe Illustrator 18.1.1, SVG Export Plug-In . SVG Version: 6.00 Build 0)  -->
<svg version="1.1" fill="3b64a6" id="Layer_1" xmlns="http://www.w3.org/2000/svg" xmlns:xlink="http://www.w3.org/1999/xlink" x="0px" y="0px"
	 viewBox="0 0 49 49" enable-background="new 0 0 49 49" xml:space="preserve">
<path fill-rule="evenodd" clip-rule="evenodd" d="M48.3,6c-0.5,0.1-1.8,0.4-2.7,1.5c-0.7,0.8-0.8,1.7-0.9,2.2c0,0.4-0.4,0.7-0.8,0.7
	s-0.7-0.3-0.8-0.7c0-0.5-0.2-1.4-0.9-2.2C41.4,6.3,40.1,6,39.6,6C39.2,5.9,39,5.6,39,5.2c0-0.4,0.3-0.7,0.7-0.8
	c0.5-0.1,1.8-0.4,2.7-1.5c0.7-0.8,0.8-1.7,0.9-2.2C43.2,0.3,43.6,0,44,0s0.7,0.3,0.8,0.7c0,0.5,0.2,1.4,0.9,2.2
	c0.9,1.2,2.2,1.5,2.7,1.5C48.7,4.5,49,4.8,49,5.2C49,5.6,48.7,5.9,48.3,6z M44.4,3.9c-0.2-0.2-0.3-0.4-0.4-0.6
	c-0.1,0.2-0.3,0.4-0.4,0.6h0c-0.5,0.6-1,1-1.6,1.4c0.5,0.3,1.1,0.7,1.6,1.4C43.7,6.8,43.9,7,44,7.2c0.1-0.2,0.3-0.4,0.4-0.6
	c0.5-0.6,1-1,1.6-1.4C45.4,4.9,44.9,4.5,44.4,3.9z M40.3,8.7c0.2,0,0.4,0.2,0.5,0.3C41,9.2,41,9.4,40.9,9.6l-0.8,2.7l2.6,1.2
	c0.2,0.1,0.3,0.3,0.4,0.5c0.1,0.2,0,0.4-0.1,0.6L41.5,17l2.1,1.9c0.2,0.1,0.3,0.4,0.3,0.6c0,0.2-0.1,0.4-0.3,0.6l-2.2,1.8l1.5,2.4
	c0.1,0.2,0.1,0.4,0.1,0.6c-0.1,0.2-0.2,0.4-0.4,0.5l-2.6,1.2l0.8,2.7c0.1,0.2,0,0.4-0.1,0.6c-0.1,0.2-0.3,0.3-0.5,0.3l-2.8,0.4l0,1
	c0,0,0.1,0.1,0.1,0.1l9.4,9.4c0.4,0.4,0.2,1.2-0.5,1.3l-5.4,0.5l-0.5,5.4c-0.1,0.6-0.8,0.9-1.3,0.5L28.1,37.6
	c-0.1,0.2-0.2,0.4-0.3,0.5c-0.3,0.4-0.8,0.5-1.1,0.2l-2.1-1.9l-2.2,1.8c-0.3,0.3-0.8,0.2-1.1-0.1C21,38,21,37.9,20.9,37.7L9.7,48.8
	c-0.4,0.4-1.2,0.2-1.3-0.5l-0.5-5.4l-5.4-0.5c-0.6-0.1-0.9-0.8-0.5-1.3l4.6-4.5c0.3-0.3,0.8-0.3,1.1,0c0.3,0.3,0.3,0.8,0,1.1
	l-3.4,3.4l4.4,0.4c0.4,0,0.7,0.3,0.7,0.7l0.4,4.4L20,36.4l-0.4-0.7L17,36.9c-0.2,0.1-0.4,0.1-0.6,0c-0.2-0.1-0.4-0.3-0.4-0.5
	l-0.8-2.7l-2.8,0.4c-0.2,0-0.4,0-0.6-0.2c0,0-0.1-0.1-0.1-0.1l-1.4,1.4c-0.1,0.1-0.3,0.2-0.5,0.2c-0.2,0-0.4-0.1-0.5-0.2
	c-0.3-0.3-0.3-0.8,0-1.1l2.2-2.2c0,0,0.1-0.1,0.1-0.1l0-1.3l-2.8-0.4c-0.2,0-0.4-0.2-0.5-0.3C8,29.5,8,29.3,8.1,29.1l0.8-2.7
	l-2.6-1.2c-0.2-0.1-0.4-0.3-0.4-0.5c-0.1-0.2,0-0.4,0.1-0.6l1.5-2.4l-2.1-1.9c-0.2-0.1-0.3-0.4-0.3-0.6c0-0.2,0.1-0.4,0.3-0.6
	l2.2-1.8L6,14.5c-0.1-0.2-0.1-0.4-0.1-0.6c0.1-0.2,0.2-0.4,0.4-0.5l2.6-1.2L8.1,9.5C8.1,9.3,8.1,9,8.2,8.8c0.1-0.2,0.3-0.3,0.5-0.3
	l2.8-0.4l0-2.8c0-0.2,0.1-0.4,0.3-0.6c0.2-0.1,0.4-0.2,0.6-0.2l2.8,0.4l0.8-2.7c0.1-0.2,0.2-0.4,0.4-0.5c0.2-0.1,0.4-0.1,0.6,0
	l2.6,1.2l1.6-2.4c0.1-0.2,0.3-0.3,0.5-0.3c0.2,0,0.4,0,0.6,0.2l2.1,1.9l2.2-1.8c0.2-0.1,0.4-0.2,0.6-0.2c0.2,0,0.4,0.2,0.5,0.3
	L29.4,3L32,1.8c0.2-0.1,0.4-0.1,0.6,0C32.8,1.9,33,2.1,33,2.3L33.8,5l2.8-0.4c0.2,0,0.4,0,0.6,0.2c0.2,0.1,0.3,0.4,0.3,0.6l0,2.8
	L40.3,8.7z M39.2,46.6l0.4-4.4c0-0.4,0.3-0.6,0.7-0.7l4.4-0.4l-7.4-7.4c0,0.1-0.1,0.2-0.2,0.3c-0.2,0.1-0.4,0.2-0.6,0.2l-2.8-0.4
	l-0.8,2.7c-0.1,0.2-0.2,0.4-0.4,0.5c-0.2,0.1-0.4,0.1-0.6,0l-2.6-1.2l-0.3,0.5L39.2,46.6z M36.6,9.6C36.3,9.6,36,9.3,36,8.9l0-2.6
	l-2.6,0.4c-0.4,0.1-0.7-0.2-0.8-0.5l-0.7-2.5l-2.4,1.1c-0.3,0.2-0.8,0-1-0.3l-1.4-2.2l-2,1.7c-0.3,0.2-0.7,0.2-1,0l-2-1.7l-1.4,2.2
	c-0.2,0.3-0.6,0.4-1,0.3l-2.4-1.1L16.6,6c-0.1,0.4-0.5,0.6-0.8,0.5l-2.6-0.4l0,2.6c0,0.4-0.3,0.7-0.7,0.7L9.9,9.9l0.7,2.5
	c0.1,0.4-0.1,0.7-0.4,0.9l-2.4,1.1l1.4,2.2c0.2,0.3,0.1,0.7-0.1,1l-2,1.7L9,21c0.3,0.2,0.3,0.7,0.1,1l-1.4,2.2l2.4,1.1
	c0.3,0.2,0.5,0.5,0.4,0.9l-0.8,2.5l2.6,0.4c0.4,0.1,0.6,0.4,0.6,0.8l0,2.6l2.6-0.4c0.4-0.1,0.7,0.2,0.8,0.5l0.7,2.5l2.4-1.1
	c0.3-0.2,0.8,0,1,0.3l0.9,1.4c0.1,0,0.1,0.1,0.2,0.1c0.1,0.1,0.2,0.3,0.2,0.5l0.1,0.2l2-1.7c0.1-0.1,0.3-0.2,0.5-0.2
	c0.2,0,0.4,0.1,0.5,0.2l2,1.7l1.4-2.2c0.2-0.3,0.6-0.4,1-0.3l2.4,1.1l0.8-2.5c0.1-0.4,0.5-0.6,0.8-0.5l2.6,0.4l0-2.6
	c0-0.4,0.3-0.7,0.7-0.7l2.6-0.4l-0.7-2.5c-0.1-0.4,0.1-0.7,0.4-0.9l2.4-1.1l-1.4-2.2c-0.2-0.3-0.1-0.7,0.1-1l2-1.7l-2-1.7
	c-0.3-0.2-0.3-0.7-0.1-1l1.4-2.2l-2.4-1.1c-0.3-0.2-0.5-0.5-0.4-0.9l0.8-2.5L36.6,9.6z M24.5,31c-0.2,0-0.4-0.1-0.6-0.3L13.2,18
	c-0.2-0.3-0.2-0.6-0.1-0.9l4.3-6.5c0.1-0.2,0.4-0.3,0.6-0.3h13c0.3,0,0.5,0.1,0.6,0.3l4.3,6.5c0.2,0.3,0.2,0.6-0.1,0.9L25.1,30.8
	C24.9,30.9,24.7,31,24.5,31z M24.5,26.7l2.3-8.6h-4.5L24.5,26.7z M23.1,27.5l-2.5-9.4h-5.5L23.1,27.5z M17.9,12.6l-2.6,3.9H20
	L17.9,12.6z M19.2,11.8l2.1,3.9l2.1-3.9H19.2z M22.5,16.6h4l-2-3.7L22.5,16.6z M25.7,11.8l2.1,3.9l2-3.9H25.7z M31.1,12.6l-2.1,4
	h4.7L31.1,12.6z M33.8,18.1h-5.5l-2.5,9.4L33.8,18.1z M39.6,22.3c-0.1,0.4-0.5,0.7-0.9,0.6c-0.4-0.1-0.7-0.5-0.6-0.9
	c0.2-0.9,0.3-1.8,0.3-2.7c0-7.6-6.2-13.8-13.8-13.8c-7.6,0-13.8,6.2-13.8,13.8c0,7.6,6.2,13.8,13.8,13.8c5.3,0,10.1-2.9,12.4-7.7
	c0.2-0.4,0.6-0.5,1-0.3c0.4,0.2,0.5,0.6,0.3,1c-1.3,2.5-3.2,4.6-5.6,6.2c-2.5,1.5-5.3,2.4-8.2,2.4c-8.5,0-15.4-6.9-15.4-15.3
	S16,4.1,24.5,4.1s15.4,6.9,15.4,15.3C39.9,20.4,39.8,21.4,39.6,22.3z M9.4,6C8.9,6,7.6,6.3,6.6,7.5C6,8.3,5.8,9.2,5.8,9.7
	c0,0.4-0.4,0.7-0.8,0.7c-0.4,0-0.7-0.3-0.8-0.7c0-0.5-0.2-1.4-0.9-2.2C2.5,6.3,1.2,6,0.7,6C0.3,5.9,0,5.6,0,5.2
	c0-0.4,0.3-0.7,0.7-0.8c0.5-0.1,1.8-0.4,2.7-1.5c0.7-0.8,0.8-1.7,0.9-2.2C4.3,0.3,4.6,0,5,0c0.4,0,0.7,0.3,0.8,0.7
	c0,0.5,0.2,1.4,0.9,2.2c0.9,1.2,2.2,1.5,2.7,1.5C9.8,4.5,10,4.8,10,5.2C10,5.6,9.8,5.9,9.4,6z M5.4,3.9L5.4,3.9
	C5.3,3.7,5.1,3.4,5,3.2C4.9,3.4,4.8,3.7,4.6,3.9c-0.5,0.6-1,1-1.6,1.4c0.5,0.3,1.1,0.7,1.6,1.4C4.8,6.8,4.9,7,5,7.2
	C5.1,7,5.3,6.8,5.4,6.6c0.5-0.6,1-1,1.6-1.4C6.5,4.9,5.9,4.5,5.4,3.9z M20.1,42.6c0.5-0.1,1.8-0.4,2.7-1.5c0.7-0.8,0.8-1.7,0.9-2.2
	c0-0.4,0.4-0.7,0.8-0.7c0.4,0,0.7,0.3,0.8,0.7c0,0.5,0.2,1.4,0.9,2.2c0.9,1.2,2.2,1.5,2.7,1.5c0.4,0.1,0.7,0.4,0.7,0.8
	c0,0.4-0.3,0.7-0.7,0.8c-0.5,0.1-1.8,0.4-2.7,1.5c-0.7,0.8-0.8,1.7-0.9,2.2c0,0.4-0.4,0.7-0.8,0.7c-0.4,0-0.7-0.3-0.8-0.7
	c0-0.5-0.2-1.4-0.9-2.2c-0.9-1.2-2.2-1.5-2.7-1.5c-0.4-0.1-0.7-0.4-0.7-0.8C19.5,43,19.8,42.7,20.1,42.6z M24.1,44.8
	c0.2,0.2,0.3,0.4,0.4,0.6c0.1-0.2,0.3-0.4,0.4-0.6c0.5-0.6,1-1,1.6-1.4c-0.5-0.3-1.1-0.7-1.6-1.4h0c-0.2-0.2-0.3-0.4-0.4-0.6
	c-0.1,0.2-0.3,0.4-0.4,0.6c-0.5,0.6-1,1-1.6,1.4C23.1,43.7,23.6,44.1,24.1,44.8z"/>
</svg>
