<?xml version="1.0" encoding="utf-8"?>
<!-- Generator: Adobe Illustrator 18.1.1, SVG Export Plug-In . SVG Version: 6.00 Build 0)  -->
<svg version="1.1" fill="#29549b" id="Layer_1" xmlns="http://www.w3.org/2000/svg" xmlns:xlink="http://www.w3.org/1999/xlink" x="0px" y="0px"
	 viewBox="0 0 48 56" enable-background="new 0 0 48 56" xml:space="preserve">
<path fill-rule="evenodd" clip-rule="evenodd" d="M3.4,46.3c0-2,1.1-3.2,3.1-3.2c2,0,3.1,1.2,3.1,3.2v6.6c0,2-1.1,3.2-3.1,3.2
	c-2,0-3.1-1.2-3.1-3.2V46.3z M5.4,53c0,0.9,0.4,1.2,1,1.2c0.6,0,1-0.3,1-1.2v-6.8c0-0.9-0.4-1.2-1-1.2c-0.6,0-1,0.3-1,1.2V53z
	 M12.6,46.7v9.1h-1.8V43.2h2.5l2.1,7.5v-7.5h1.8v12.6h-2.1L12.6,46.7z M21.5,43.2h2V54h3.3v1.8h-5.3L21.5,43.2L21.5,43.2z
	 M27.8,43.2h2v12.6h-2V43.2z M33,46.7v9.1h-1.8V43.2h2.5l2.1,7.5v-7.5h1.8v12.6h-2.1L33,46.7z M41.1,48.6h2.8v1.8h-2.8v3.7h3.5v1.8
	h-5.5V43.3h5.5v1.8h-3.5V48.6z M40.3,17h-0.8C37.4,10.9,31.2,6.5,24,6.5c-7.2,0-13.4,4.4-15.4,10.5H7.7c-1.7,0-3.1,1.4-3.1,3.1v3.6
	c0,1.7,1.4,3,3.1,3h0.7c3,11.2,15.1,14.4,15.2,14.4l0.3,0.1l0.3-0.1c0.1,0,12.3-3.1,15.2-14.4h0.7c1.7,0,3.1-1.4,3.1-3v-3.6
	C43.4,18.4,42,17,40.3,17z M34.5,31.5h-8.1c-0.4-0.7-1.2-1.2-2-1.2c-1.3,0-2.3,1-2.3,2.3c0,1.3,1,2.3,2.3,2.3c1,0,1.9-0.6,2.2-1.5
	h6.4c-3.4,3.5-7.7,4.9-8.9,5.3c-2.1-0.6-13.6-4.6-13.6-17.1c0-0.2,0-0.4,0-0.6c3.5-0.6,7.6-1.7,9-3.4c0,0,0.6,3.1-1.5,4.4
	c0,0,7.2-1.1,8.5-3.3c0,0,0.3,5.7,11,5C37.1,26.8,36,29.4,34.5,31.5z M46.5,18.9C46.1,8.1,36.5,0,24,0C11.5,0,1.9,8.1,1.5,18.9
	C0.6,19.3,0,20.1,0,21v1.6c0,1.4,1.3,2.4,2.8,2.4h1.2v-1.6v-3.2v-1C4.4,9.7,12.8,2.6,24,2.6c11.2,0,19.6,7.1,19.9,16.6v1v3.2v1.6
	h1.2c1.6,0,2.8-1.1,2.8-2.4V21C48,20.1,47.4,19.3,46.5,18.9z"/>
</svg>
