<?xml version="1.0" encoding="utf-8"?>
<!-- Generator: Adobe Illustrator 18.1.1, SVG Export Plug-In . SVG Version: 6.00 Build 0)  -->
<svg version="1.1" fill="#3b64a6" id="Layer_1" xmlns="http://www.w3.org/2000/svg" xmlns:xlink="http://www.w3.org/1999/xlink" x="0px" y="0px"
	 viewBox="0 0 44 44" enable-background="new 0 0 44 44" xml:space="preserve">
<path fill-rule="evenodd" clip-rule="evenodd" d="M44,28.6C44,37.1,37.1,44,28.6,44c-8.5,0-15.4-6.9-15.4-15.4
	c0-6.8,4.5-12.8,11-14.7V7.3h-2.6c-1,0-1.8-1-1.8-2.2V0.7c0-0.4,0.3-0.7,0.7-0.7h16.1c0.4,0,0.7,0.3,0.7,0.7v4.4
	c0,1.2-0.8,2.2-1.8,2.2H33v6.5C39.5,15.8,44,21.8,44,28.6z M35.6,5.9c0.1,0,0.3-0.3,0.3-0.7V1.5H21.3v1.5h10.3v1.5H21.3v0.7
	c0,0.4,0.2,0.7,0.3,0.7h3.4h7.3H35.6z M32.1,15.2c-0.3-0.1-0.6-0.4-0.6-0.7V7.3h-5.9v7.1c0,0.4-0.2,0.7-0.6,0.7
	c-6.2,1.5-10.4,7.1-10.4,13.4c0,7.7,6.2,13.9,13.9,13.9c7.7,0,13.9-6.2,13.9-13.9C42.5,22.3,38.2,16.7,32.1,15.2z M36.7,24.9h1.5
	v1.5h-1.5V24.9z M32.3,21.3h1.5v1.5h-1.5V21.3z M40.3,28.6c0,6.5-5.3,11.7-11.7,11.7s-11.7-5.3-11.7-11.7c0-0.4,0.3-0.7,0.7-0.7h22
	C40,27.9,40.3,28.2,40.3,28.6z M18.3,29.3c0.4,5.4,4.8,9.5,10.3,9.5s9.8-4.2,10.3-9.5H18.3z M33.7,30.8h1.5v1.5h-1.5V30.8z
	 M31.5,33.7H33v1.5h-1.5V33.7z M27.9,35.9h1.5v1.5h-1.5V35.9z M27.9,31.5h1.5V33h-1.5V31.5z M24.2,33.7h1.5v1.5h-1.5V33.7z M22,30.8
	h1.5v1.5H22V30.8z M28.6,23.5h1.5v1.5h-1.5V23.5z M26.4,18.3h1.5v1.5h-1.5V18.3z M22.7,22.7h1.5v1.5h-1.5V22.7z M18.3,24.9h1.5v1.5
	h-1.5V24.9z M8.8,36.7v1.5H6.6v2.2H5.1V27.1h1.5v2.2h2.2v1.5H6.6V33h2.2v1.5H6.6v2.2H8.8z M1.5,23.5h10.3v1.5H2.9v16.9
	c0,0.4,0.3,0.7,0.7,0.7h14.7V44H3.7c-1.2,0-2.2-1-2.2-2.2V24.9H0.7c-0.4,0-0.7-0.3-0.7-0.7v-2.9c0-0.4,0.3-0.7,0.7-0.7h12.5V22H1.5
	V23.5z M11,16.9h1.5v1.5H11V16.9z M10.3,8.8h1.5v1.5h-1.5V8.8z M6.6,13.2h1.5v1.5H6.6V13.2z M3.7,18.3H2.2v-1.5h1.5V18.3z M2.9,7.3
	h1.5v1.5H2.9V7.3z"/>
</svg>
