<?xml version="1.0" encoding="utf-8"?>
<!-- Generator: Adobe Illustrator 20.1.0, SVG Export Plug-In . SVG Version: 6.00 Build 0)  -->
<svg version="1.1" fill="#ffffff"  id="Layer_1" xmlns="http://www.w3.org/2000/svg" xmlns:xlink="http://www.w3.org/1999/xlink" x="0px" y="0px"
	 viewBox="0 0 52 54" style="enable-background:new 0 0 52 54;" xml:space="preserve">
<style type="text/css">
	.st0{fill-rule:evenodd;clip-rule:evenodd;}
</style>
<path class="st0" d="M50.3,43.3h-0.8v7.3c0,1.9-1.5,3.4-3.4,3.4H3.4C1.5,54,0,52.5,0,50.6V24.4c0-1.4,0.8-2.6,2-3.1v-0.7
	C2,19.1,3.1,18,4.6,18h2L7.7,6.2C7.8,4.9,9,3.9,10.4,4l11.9,1.2c0.4,0,0.7,0.4,0.7,0.8c0,0.4-0.4,0.7-0.8,0.7L10.2,5.5
	c-0.5-0.1-1,0.3-1,0.9L7.8,20.9h1l0.9-9.3c0.1-0.7,0.5-1.3,1.2-1.5c0.9-0.3,1.6-0.9,2.1-1.7c0.4-0.6,1-0.9,1.7-0.8l5.9,0.6
	c0.4,0,0.7,0.4,0.7,0.8c0,0.4-0.4,0.7-0.8,0.7l-5.9-0.6c-0.1,0-0.2,0-0.3,0.1c-0.7,1.1-1.7,1.9-2.8,2.3c-0.1,0-0.2,0.1-0.2,0.2
	l-0.9,9.2H14L27.5,1.1c0.4-0.6,0.9-0.9,1.6-1c0.7-0.1,1.3,0,1.9,0.4l15.6,10.7c1.1,0.8,1.4,2.3,0.7,3.5L44.8,18h0.6
	c1.4,0,2.6,1.2,2.6,2.6v1c0.9,0.6,1.4,1.6,1.4,2.8v7.3h0.8c0.9,0,1.7,0.8,1.7,1.7v8.2C52,42.5,51.2,43.3,50.3,43.3z M4.6,19.5
	c-0.6,0-1.1,0.5-1.1,1.1v0.4h2.7l0.1-1.4H4.6z M45.9,13.7c0.3-0.4,0.2-1-0.2-1.3L30.1,1.7c-0.2-0.1-0.3-0.2-0.5-0.2
	c-0.1,0-0.1,0-0.2,0c-0.2,0-0.5,0.2-0.6,0.4l-12.9,19h1.2l9.6-14.2c0.4-0.6,1.1-0.9,1.7-0.8c0.9,0.1,1.8,0,2.6-0.5
	c0.6-0.3,1.3-0.3,1.9,0.1l8.1,5.5c0.6,0.4,0.9,1,0.8,1.7c-0.1,0.9,0.1,1.9,0.5,2.7c0.3,0.6,0.3,1.3-0.1,1.9l-2.4,3.5H41L45.9,13.7z
	 M29.1,15c3.3,0,6.1,2.6,6.3,5.9H38l3-4.4c0.1-0.1,0.1-0.2,0-0.3c-0.6-1.1-0.9-2.4-0.7-3.6c0-0.1,0-0.2-0.1-0.3l-8.1-5.5
	c-0.1-0.1-0.2-0.1-0.3,0c-1.1,0.6-2.4,0.8-3.6,0.7c0,0,0,0,0,0c-0.1,0-0.2,0-0.2,0.1c0,0,0,0,0,0l-9,13.3h3.9
	C23,17.6,25.7,15,29.1,15z M24.3,20.9h9.5c-0.2-2.4-2.3-4.4-4.8-4.4C26.6,16.6,24.5,18.5,24.3,20.9z M46.5,20.6
	c0-0.6-0.5-1.1-1.1-1.1h-1.6l-1,1.4h3.2c0.1,0,0.3,0,0.4,0V20.6z M47.9,24.4c0-1-0.8-1.9-1.9-1.9H3.4c-1,0-1.9,0.8-1.9,1.9v2.1h46.4
	V24.4z M47.9,28H1.5v18.9h4.1c0.4,0,0.8,0.3,0.8,0.8s-0.3,0.8-0.8,0.8H1.5v2.1c0,1,0.8,1.9,1.9,1.9h42.7c1,0,1.9-0.8,1.9-1.9v-2.1
	H10.6c-0.4,0-0.8-0.3-0.8-0.8s0.3-0.8,0.8-0.8h37.4v-3.6h-7.3h0c-3.2,0-5.8-2.6-5.8-5.8c0-0.6,0.1-1.2,0.3-1.7c0,0,0,0,0,0
	c0.1-0.3,0.2-0.5,0.3-0.7c0,0,0,0,0-0.1c0,0,0,0,0,0c0.9-1.9,2.9-3.3,5.2-3.3h0h7.3V28z M50.5,33.4c0-0.1-0.1-0.2-0.2-0.2h-9.6
	c-1.6,0-3,0.9-3.8,2.3c0,0.1-0.1,0.1-0.1,0.2c-0.1,0.1-0.1,0.3-0.2,0.4c-0.2,0.5-0.3,1-0.3,1.5c0,0.5,0.1,1,0.3,1.5
	c0,0.1,0.1,0.3,0.2,0.4c0,0.1,0.1,0.1,0.1,0.2c0.7,1.3,2.1,2.3,3.8,2.3h9.6c0.1,0,0.2-0.1,0.2-0.2V33.4z M40.9,40.6
	c-1.7,0-3.1-1.4-3.1-3.1c0-1.7,1.4-3.1,3.1-3.1c1.7,0,3.1,1.4,3.1,3.1C44,39.2,42.6,40.6,40.9,40.6z M40.9,35.9
	c-0.9,0-1.6,0.7-1.6,1.6c0,0.9,0.7,1.6,1.6,1.6c0.9,0,1.6-0.7,1.6-1.6C42.4,36.6,41.7,35.9,40.9,35.9z"/>
</svg>
