<?xml version="1.0" encoding="utf-8"?>
<!-- Generator: Adobe Illustrator 20.1.0, SVG Export Plug-In . SVG Version: 6.00 Build 0)  -->
<svg version="1.1" fill="#ffffff"  id="Layer_1" xmlns="http://www.w3.org/2000/svg" xmlns:xlink="http://www.w3.org/1999/xlink" x="0px" y="0px"
	 viewBox="0 0 40 53" style="enable-background:new 0 0 40 53;" xml:space="preserve">
<style type="text/css">
	.st0{fill-rule:evenodd;clip-rule:evenodd;}
</style>
<path class="st0" d="M40,26.8c0,0.8-0.3,1.5-0.9,2l-0.5,0.5c0.9,1.2,1.4,2.7,1.4,4.2c0,2.2-1,4.2-2.6,5.6v2.6h1.8V53h-7.1H16.2V41.7
	h1.8v-1.6l-9.5-9.3c-0.1-0.1-0.1-0.1-0.2-0.2c-1.1-0.7-1.8-1.9-1.8-3.2c0-1.4,0.8-2.7,2-3.4l-4.3-4.3l-3.3-3.3c-1.1-1.1-1.1-2.9,0-4
	L11.7,1.8c1.1-1.1,3-1.1,4.1,0l3.3,3.3l0.7,0.7c0.7-0.8,1.8-1.3,3-1.3c2.2,0,4,1.8,4,3.9c0,0.2,0,0.3,0,0.5c0.2,0,0.3,0,0.5,0
	c2.2,0,4,1.8,4,3.9c0,0.2,0,0.3,0,0.5c0.2,0,0.3,0,0.5,0c2.2,0,4,1.8,4,3.9c0,0.2,0,0.3,0,0.5c0.2,0,0.3,0,0.5,0c2.2,0,4,1.8,4,3.9
	c0,1.1-0.5,2.2-1.3,2.9l0.5,0.5C39.7,25.3,40,26,40,26.8z M32.1,48.3v3h5.3v-7.8h-7.5C31.2,44.7,32.1,46.4,32.1,48.3z M17.9,51.3
	h12.3v-3c0-2.7-2.2-4.8-4.9-4.8h-7.4V51.3z M8.2,27.4c0,1.2,1,2.2,2.2,2.2h3.7h2.5h2.6c1.2,0,2.2-1,2.2-2.2c0-1.2-1-2.2-2.2-2.2
	h-8.8c0,0-0.1,0-0.1,0l-0.4,0C9,25.5,8.2,26.4,8.2,27.4z M14.6,3c-0.1-0.1-0.2-0.2-0.4-0.2c-0.1,0-0.1,0-0.2,0c-0.2,0-0.3,0-0.5,0
	c-0.1,0-0.1,0-0.2,0c-0.1,0.1-0.3,0.1-0.4,0.2L2.1,13.7c-0.4,0.4-0.4,1.1,0,1.6l2.1,2L16.6,5.1L14.6,3z M18.9,7.3l-1-1L5.4,18.6l5,5
	h8.8c2.2,0,4,1.8,4,3.9s-1.8,3.9-4,3.9h-0.9l7,6.9c0.4,0.4,1.2,0.4,1.6,0l10.5-10.3l0.4-0.4c0.4-0.4,0.4-1.1,0-1.6l-0.8-0.8
	l-4.4-4.3l-0.5-0.5l-3.9-3.8L27.7,16l-3.9-3.8l-0.5-0.5L18.9,7.3z M22.8,6.2c-0.7,0-1.3,0.3-1.7,0.8l3.1,3C24.7,9.6,25,9,25,8.3
	C25,7.1,24,6.2,22.8,6.2z M27.2,10.5c-0.7,0-1.3,0.3-1.7,0.8l3.1,3c0.5-0.4,0.8-1,0.8-1.7C29.4,11.5,28.4,10.5,27.2,10.5z
	 M31.6,14.8c-0.7,0-1.3,0.3-1.7,0.8l3.1,3c0.5-0.4,0.8-1,0.8-1.7C33.8,15.8,32.8,14.8,31.6,14.8z M36,19.2c-0.7,0-1.3,0.3-1.7,0.8
	l3.1,3c0.5-0.4,0.8-1,0.8-1.7C38.2,20.2,37.2,19.2,36,19.2z M37.4,30.5l-9.1,8.9c-0.6,0.6-1.3,0.8-2.1,0.8c-0.7,0-1.5-0.3-2.1-0.8
	l-8.3-8.1h-4.5l7.8,7.7c0.1,0.1,0.1,0.1,0.2,0.1l0.3,0.3v2.4h5.7h10.2v-3.5l0.4-0.3c1.5-1.1,2.3-2.7,2.3-4.5
	C38.2,32.4,37.9,31.4,37.4,30.5z M29.4,26.1c1.9,0,3.5,1.6,3.5,3.5c0,1.9-1.6,3.5-3.5,3.5c-1.9,0-3.5-1.6-3.5-3.5
	C25.9,27.7,27.5,26.1,29.4,26.1z M29.4,31.3c1,0,1.8-0.8,1.8-1.7c0-1-0.8-1.7-1.8-1.7c-1,0-1.8,0.8-1.8,1.7
	C27.6,30.5,28.4,31.3,29.4,31.3z M9.4,8.2c0.3-0.3,0.9-0.3,1.2,0c0.3,0.3,0.3,0.9,0,1.2l-1.8,1.7c-0.2,0.2-0.4,0.3-0.6,0.3
	c-0.2,0-0.5-0.1-0.6-0.3c-0.3-0.3-0.3-0.9,0-1.2L9.4,8.2z M28.5,47.4c0,1.7-1.4,3-3.1,3c-1.7,0-3.1-1.4-3.1-3s1.4-3,3.1-3
	C27.1,44.3,28.5,45.7,28.5,47.4z M24.1,47.4c0,0.7,0.6,1.3,1.3,1.3c0.7,0,1.3-0.6,1.3-1.3c0-0.7-0.6-1.3-1.3-1.3
	C24.7,46.1,24.1,46.6,24.1,47.4z"/>
</svg>
