<?xml version="1.0" encoding="utf-8"?>
<!-- Generator: Adobe Illustrator 18.1.1, SVG Export Plug-In . SVG Version: 6.00 Build 0)  -->
<svg version="1.1" id="Layer_1" xmlns="http://www.w3.org/2000/svg" xmlns:xlink="http://www.w3.org/1999/xlink" x="0px" y="0px"
	 viewBox="0 0 32 31" enable-background="new 0 0 32 31" xml:space="preserve">
<path fill-rule="evenodd" clip-rule="evenodd" fill="#28539b" d="M30.4,17.5c-0.1,0.8-0.8,1.5-1.6,1.5H9.9l0.3,1.7H27
	c0.9,0,1.7,0.8,1.7,1.7c0,1-0.7,1.7-1.7,1.7c0,0-18.3,0-18.3,0c-0.2,0-0.4,0-0.6-0.1C8,24,8,23.9,7.9,23.9c-0.1-0.1-0.2-0.1-0.3-0.2
	c-0.1-0.1-0.1-0.1-0.2-0.2c-0.1-0.1-0.1-0.2-0.2-0.3c0-0.1-0.1-0.2-0.1-0.3c0-0.1-0.1-0.1-0.1-0.2L4,3.4H1.7C0.7,3.4,0,2.7,0,1.7
	C0,0.8,0.7,0,1.7,0h3.7C6.2,0,6.9,0.6,7,1.4l0.3,2h23c0.5,0,0.9,0.2,1.3,0.6c0.3,0.4,0.5,0.9,0.4,1.4L30.4,17.5z M22,15.5h5.2
	l0.5-3.4H22V15.5z M13.7,6.9H7.9l0.6,3.5c0.1,0,0.2-0.1,0.2-0.1h5V6.9z M13.7,12.1h-5l0.6,3.4h4.4V12.1z M20.4,6.9h-5v3.4h5V6.9z
	 M20.4,12.1h-5v3.4h5V12.1z M22,6.9v3.4H28l0.5-3.4H22z M11.2,25.8c1.4,0,2.5,1.2,2.5,2.6S12.6,31,11.2,31c-1.4,0-2.5-1.2-2.5-2.6
	S9.8,25.8,11.2,25.8z M26.2,25.8c1.4,0,2.5,1.2,2.5,2.6S27.6,31,26.2,31c-1.4,0-2.5-1.2-2.5-2.6S24.8,25.8,26.2,25.8z"/>
</svg>
