<?xml version="1.0" encoding="utf-8"?>
<!-- Generator: Adobe Illustrator 18.1.1, SVG Export Plug-In . SVG Version: 6.00 Build 0)  -->
<svg version="1.1" id="Layer_1" xmlns="http://www.w3.org/2000/svg" xmlns:xlink="http://www.w3.org/1999/xlink" x="0px" y="0px"
	 viewBox="0 0 612 561" enable-background="new 0 0 612 561" xml:space="preserve">
<path  fill="#2b559a" d="M335.4,443.9h-58.6c-5.4,0-9.8,4.4-9.8,9.8c0,5.4,4.4,9.8,9.8,9.8h58.6c5.4,0,9.8-4.4,9.8-9.8
	C345.2,448.2,340.8,443.9,335.4,443.9z"/>
<path  fill="#2b559a" d="M612,491.7c0-0.4-0.1-0.8-0.2-1.2c0-0.1,0-0.2-0.1-0.3c-0.1-0.3-0.2-0.6-0.3-0.9c0-0.1-0.1-0.2-0.1-0.3
	c-0.1-0.3-0.3-0.7-0.4-1c0,0,0,0,0-0.1c0-0.1-54.2-102-54.2-102V120.3c0-5.4-4.4-9.8-9.8-9.8c-5.4,0-9.8,4.4-9.8,9.8v258.5H74.9
	V104.1c0-16.1,13.1-29.3,29.3-29.3h387.5c5.4,0,9.8-4.4,9.8-9.8c0-5.4-4.4-9.8-9.8-9.8H104.2c-26.9,0-48.8,21.9-48.8,48.8v282
	L1.2,488c-0.1,0.1-0.1,0.1-0.1,0.2c-0.2,0.3-0.3,0.6-0.4,1c0,0.1-0.1,0.2-0.1,0.3c-0.1,0.3-0.2,0.6-0.3,0.9c0,0.1,0,0.2-0.1,0.3
	c-0.1,0.4-0.2,0.8-0.2,1.1c0,0.3-0.1,0.7-0.1,1v19.5C0,539.1,21.9,561,48.8,561h514.3c26.9,0,48.8-21.9,48.8-48.8v-19.5
	C612,492.3,612,492,612,491.7z M71,398.3h470l45,84.6H26L71,398.3z M563.2,541.5H48.8c-16.2,0-29.3-13.1-29.3-29.3v-9.8h572.9v9.8
	C592.5,528.3,579.3,541.5,563.2,541.5z"/>
<path  fill="#2b559a" d="M550.1,19.5h28.5l-233.1,233l-72.2-72.1c-3.8-3.8-10-3.8-13.8,0L97.3,342.6c-3.8,3.8-3.8,10,0,13.8
	c1.9,1.9,4.4,2.9,6.9,2.9s5-1,6.9-2.9l155.4-155.4l72.2,72.1c3.8,3.8,10,3.8,13.8,0l240-239.9v28.5c0,5.4,4.4,9.8,9.8,9.8
	c5.4,0,9.8-4.4,9.8-9.8V9.8c0-5.4-4.4-9.8-9.8-9.8h-52.1c-5.4,0-9.8,4.4-9.8,9.8S544.8,19.5,550.1,19.5z"/>
</svg>
