<?xml version="1.0" encoding="utf-8"?>
<!-- Generator: Adobe Illustrator 18.1.1, SVG Export Plug-In . SVG Version: 6.00 Build 0)  -->
<svg version="1.1" fill="#3b64a6" id="Layer_1" xmlns="http://www.w3.org/2000/svg" xmlns:xlink="http://www.w3.org/1999/xlink" x="0px" y="0px"
	 viewBox="0 0 24 25" enable-background="new 0 0 24 25" xml:space="preserve">
<path fill-rule="evenodd" clip-rule="evenodd" d="M21.2,5.3C19.7,14.9,9.2,20,0.2,16.9c-0.3-0.1-0.2-0.5,0.1-0.5
	C7.6,17.5,14,12.2,15.1,5.3h-3.3l3.1-2.7L17.9,0l3.1,2.7L24,5.3H21.2z M3.1,25H0v-7.3c1,0.3,2.1,0.6,3.1,0.8V25z M7.8,18.5V25H4.7
	v-6.4c0.3,0,0.6,0,1,0C6.4,18.6,7.1,18.5,7.8,18.5z M12.5,25H9.4v-6.8c1.1-0.2,2.1-0.6,3.1-1V25z M17.2,25h-3.1v-8.6
	c1.1-0.6,2.2-1.4,3.1-2.2V25z M21.9,6.1V25h-3.1V12.5C20.3,10.7,21.3,8.5,21.9,6.1L21.9,6.1z"/>
</svg>
