<?xml version="1.0" encoding="utf-8"?>
<!-- Generator: Adobe Illustrator 18.1.1, SVG Export Plug-In . SVG Version: 6.00 Build 0)  -->
<svg version="1.1" fill="#29549b" id="Layer_1" xmlns="http://www.w3.org/2000/svg" xmlns:xlink="http://www.w3.org/1999/xlink" x="0px" y="0px"
	 viewBox="0 0 44 44" enable-background="new 0 0 44 44" xml:space="preserve">
<path fill-rule="evenodd" clip-rule="evenodd" d="M44,41.2V44H0V0h2.8v41.3H44z M19.7,15.3l11.2,2.8l3.9-6.5l3.5,2.1l0.2-11
	l-9.6,5.3l3.5,2.1l-2.8,4.7l-10.8-2.7L7.3,23.8l1.9,1.9L19.7,15.3z M16.5,38.5H22V18.7l-1.5-0.4l-4,4V38.5z M8.2,28.6v9.9h5.5V25.1
	l-4.5,4.5L8.2,28.6z M33,19.9v18.6h5.5V17l-2.8-1.7L33,19.9z M30.2,38.5V20.8l-5.5-1.4v19.1H30.2z"/>
</svg>
