<?xml version="1.0" encoding="utf-8"?>
<!-- Generator: Adobe Illustrator 18.1.1, SVG Export Plug-In . SVG Version: 6.00 Build 0)  -->
<svg version="1.1" id="Layer_1" xmlns="http://www.w3.org/2000/svg" xmlns:xlink="http://www.w3.org/1999/xlink" x="0px" y="0px"
	 viewBox="0 0 31 31" enable-background="new 0 0 31 31" xml:space="preserve">
<path fill-rule="evenodd" fill="#28539b" clip-rule="evenodd" d="M29.9,31H1.1L0,23.3C0,23,0.1,22.6,0.3,22.3c0.3-0.3,0.6-0.5,1-0.5
	h28.2c0.4,0,0.8,0.2,1,0.5c0.3,0.3,0.4,0.7,0.3,1.1L29.9,31z M14.8,19.4c-0.2,0.6-0.6,1.1-1,1.4h-3.2c-0.4-0.4-0.8-0.9-1.1-1.4
	c0,0-0.1,0-0.1,0c-0.4,0-1-0.9-1.1-1.6c-0.1-0.7-0.1-1.2,0.3-1.2c0,0,0.1,0,0.1,0c-0.2-1.9,0.2-4.4,3-4.4c2.9,0,3.4,2.5,3.5,4.4
	c0.1,0,0.1,0,0.2,0c0.4,0,0.5,0.5,0.5,1.2c0,0.6-0.5,1.6-0.9,1.6C15,19.5,14.9,19.4,14.8,19.4z M16.6,16.5c-0.1-0.2-0.2-0.4-0.4-0.5
	c-0.1-0.9-0.2-1.6-0.5-2.2h8.9c0.4,0,0.7,0.4,0.6,0.8L25,15.8c-0.1,0.4-0.4,0.7-0.8,0.7H16.6z M15.3,20.9l0-0.6c0,0,0-0.1,0.1-0.1
	c0.6-0.2,1.1-0.9,1.3-1.6h7.2c0.4,0,0.6,0.3,0.6,0.7l-0.2,1c-0.1,0.3-0.4,0.6-0.8,0.6v0H15.3z M27.4,20.4l1.3-9.5
	c0-1.2-1-2.1-2.2-2.1H4.4c-1.2,0-2.2,1-2.2,2.1l1.5,9.6H1.7L0.3,11c0-2.2,1.8-4,4.1-4h22.2c2.3,0,4.1,1.8,4.1,4l-1.3,9.5H27.4z
	 M25.2,5.4L25.2,5.4L5,5.4L4.6,3.9c0-0.2,0-0.3,0.1-0.4c0.1-0.1,0.3-0.2,0.4-0.2H25c0.2,0,0.3,0.1,0.4,0.2c0.1,0.1,0.1,0.3,0.1,0.4
	L25.2,5.4z M7,2.1L6.7,0.6c0-0.1,0-0.3,0.1-0.4C6.9,0.1,7,0,7.2,0H23c0.2,0,0.3,0.1,0.4,0.2c0.1,0.1,0.1,0.3,0.1,0.4l-0.3,1.5H7z"/>
</svg>
