<?xml version="1.0" encoding="utf-8"?>
<!-- Generator: Adobe Illustrator 18.1.1, SVG Export Plug-In . SVG Version: 6.00 Build 0)  -->
<svg version="1.1" id="Layer_1" xmlns="http://www.w3.org/2000/svg" xmlns:xlink="http://www.w3.org/1999/xlink" x="0px" y="0px"
	 viewBox="0 0 39 29" enable-background="new 0 0 39 29" xml:space="preserve">
<path fill-rule="evenodd" clip-rule="evenodd" d="M39,17.9l-4.2,4.3v-2.4h-5.5V16h5.5v-2.4L39,17.9z M24,5.1c-2.1-1.3-4.4-2-7-2
	C9.2,3.1,3,9.6,3,17.6c0,3.2,1,6.1,2.7,8.5l-2.1,2.2C1.3,25.3,0,21.6,0,17.5C0,7.9,7.6,0,16.9,0c3.4,0,6.5,1,9.1,2.8l2.2-2.4L29,7.6
	l-6.6-0.6L24,5.1z M10,13.3l-2.1-2.2L10,8.9l2.1,2.2c0.9-0.6,1.9-1,2.9-1.3V6.7h3v3.1c1.1,0.2,2.1,0.6,3,1.3l2.1-2.2l2.1,2.2
	l-2.1,2.2c0.6,0.9,1,1.9,1.2,3h3v3.1h-3c-0.2,1.1-0.6,2.1-1.2,3l2.1,2.2l-2.1,2.2L21,24.7c-0.9,0.6-1.9,1-3,1.3V29h-3v-3.1
	c-1.1-0.2-2.1-0.6-2.9-1.3L10,26.8l-2.1-2.2l2.1-2.2c-0.6-0.9-1-1.9-1.2-3h-3v-3.1h3C9,15.2,9.4,14.2,10,13.3z M16.6,21.3
	c1.8,0,3.3-1.5,3.3-3.4c0-1.9-1.5-3.4-3.3-3.4c-1.8,0-3.3,1.5-3.3,3.4C13.3,19.7,14.7,21.3,16.6,21.3z"/>
</svg>
