<?xml version="1.0" encoding="utf-8"?>
<!-- Generator: Adobe Illustrator 18.1.1, SVG Export Plug-In . SVG Version: 6.00 Build 0)  -->
<svg version="1.1" id="Layer_1" xmlns="http://www.w3.org/2000/svg" xmlns:xlink="http://www.w3.org/1999/xlink" x="0px" y="0px"
	 viewBox="0 0 28 30" enable-background="new 0 0 28 30" xml:space="preserve">
<path d="M17.3,26.2v0.9c0,0.7-0.5,1.3-1.1,1.4L16,29.3C15.9,29.7,15.5,30,15,30H13c-0.4,0-0.8-0.3-0.9-0.7l-0.2-0.8
	c-0.7-0.1-1.2-0.7-1.2-1.4v-0.9c0-0.5,0.4-0.8,0.8-0.8h5C17,25.4,17.3,25.7,17.3,26.2z M21.2,14.4c0,2-0.8,3.8-2,5.1
	c-0.9,1-1.6,2.3-1.8,3.7c-0.1,0.6-0.6,1-1.2,1h-4.5c-0.6,0-1.1-0.4-1.2-1c-0.2-1.4-0.8-2.7-1.8-3.7c-1.2-1.3-2-3.1-2-5
	C6.8,10.4,10,7,14,7C17.9,7,21.2,10.3,21.2,14.4z M14.8,9.9c0-0.5-0.4-0.8-0.8-0.8c-2.9,0-5.2,2.4-5.2,5.3c0,0.5,0.4,0.8,0.8,0.8
	c0.4,0,0.8-0.4,0.8-0.8c0-2,1.6-3.7,3.6-3.7C14.5,10.8,14.8,10.4,14.8,9.9z M14,4.6c0.4,0,0.8-0.4,0.8-0.8V0.8C14.8,0.4,14.5,0,14,0
	c-0.5,0-0.8,0.4-0.8,0.8v2.9C13.2,4.2,13.6,4.6,14,4.6z M4.5,14.4c0-0.5-0.4-0.8-0.8-0.8H0.8c-0.4,0-0.8,0.4-0.8,0.8
	c0,0.5,0.4,0.8,0.8,0.8h2.8C4.1,15.2,4.5,14.9,4.5,14.4z M27.2,13.6h-2.8c-0.4,0-0.8,0.4-0.8,0.8c0,0.5,0.4,0.8,0.8,0.8h2.8
	c0.4,0,0.8-0.4,0.8-0.8C28,13.9,27.6,13.6,27.2,13.6z M6.1,21.3l-2,2.1c-0.3,0.3-0.3,0.9,0,1.2c0.2,0.2,0.4,0.2,0.6,0.2
	c0.2,0,0.4-0.1,0.6-0.2l2-2.1c0.3-0.3,0.3-0.9,0-1.2C6.9,21,6.4,21,6.1,21.3z M21.3,7.7c0.2,0,0.4-0.1,0.6-0.2l2-2.1
	c0.3-0.3,0.3-0.9,0-1.2c-0.3-0.3-0.8-0.3-1.1,0l-2,2.1c-0.3,0.3-0.3,0.9,0,1.2C20.9,7.6,21.1,7.7,21.3,7.7z M6.1,7.5
	c0.2,0.2,0.4,0.2,0.6,0.2c0.2,0,0.4-0.1,0.6-0.2c0.3-0.3,0.3-0.9,0-1.2l-2-2.1c-0.3-0.3-0.8-0.3-1.1,0c-0.3,0.3-0.3,0.9,0,1.2
	L6.1,7.5z M21.9,21.3c-0.3-0.3-0.8-0.3-1.1,0c-0.3,0.3-0.3,0.9,0,1.2l2,2.1c0.2,0.2,0.4,0.2,0.6,0.2c0.2,0,0.4-0.1,0.6-0.2
	c0.3-0.3,0.3-0.9,0-1.2L21.9,21.3z"/>
</svg>
