<?xml version="1.0" encoding="utf-8"?>
<!-- Generator: Adobe Illustrator 18.1.1, SVG Export Plug-In . SVG Version: 6.00 Build 0)  -->
<svg version="1.1" id="Layer_1" xmlns="http://www.w3.org/2000/svg" xmlns:xlink="http://www.w3.org/1999/xlink" x="0px" y="0px"
	 viewBox="0 0 13 9" enable-background="new 0 0 13 9" xml:space="preserve">
<path fill-rule="evenodd" clip-rule="evenodd" fill="none" d="M6.5,5.4L6.5,5.4c0.1,0,0.2,0,0.3-0.1l0,0c0,0,0,0,0,0l0.2-0.2L13,0
	c0,0,0,0-0.1,0H0.1c0,0,0,0,0,0l6.2,5.3C6.3,5.4,6.4,5.4,6.5,5.4z M0,0.7v7.5l4.4-3.7L0,0.7z M8.6,4.5L13,8.2V0.7L8.6,4.5z M7.2,5.7
	C7,5.9,6.8,6,6.5,6C6.3,6,6,5.9,5.9,5.7l-1-0.9L0,8.9v0C0,9,0,9,0.1,9h12.9C13,9,13,9,13,8.9v0l-4.8-4L7.2,5.7z"/>
</svg>
