<?xml version="1.0" encoding="utf-8"?>
<!-- Generator: Adobe Illustrator 18.1.1, SVG Export Plug-In . SVG Version: 6.00 Build 0)  -->
<svg version="1.1" id="Layer_1" xmlns="http://www.w3.org/2000/svg" xmlns:xlink="http://www.w3.org/1999/xlink" x="0px" y="0px"
	 viewBox="0 0 24 27" enable-background="new 0 0 24 27" xml:space="preserve">
<path fill-rule="evenodd" clip-rule="evenodd" d="M23.2,7.9h-1.6c-0.4,0-0.8-0.4-0.8-0.8c0-0.4,0.4-0.8,0.8-0.8h1.6
	c0.4,0,0.8,0.4,0.8,0.8C24,7.6,23.6,7.9,23.2,7.9z M22.2,2.9l-1.6,1.6c-0.3,0.3-0.8,0.3-1.1,0c-0.3-0.3-0.3-0.8,0-1.1L21,1.8
	c0.3-0.3,0.8-0.3,1.1,0C22.5,2.1,22.5,2.6,22.2,2.9z M16.8,3.2c-0.4,0-0.8-0.4-0.8-0.8V0.8C16,0.4,16.4,0,16.8,0
	c0.4,0,0.8,0.4,0.8,0.8v1.6C17.6,2.8,17.3,3.2,16.8,3.2z M23.2,13.4c-0.6,0.6-1.6,0.6-2.3,0L10.3,2.9c-0.6-0.6-0.6-1.6,0-2.2
	c0.6-0.6,1.6-0.6,2.3,0l10.6,10.5C23.8,11.8,23.8,12.8,23.2,13.4z M19.1,14.3c-2.8,0.6-5.4,2-7.6,3.8l-5.8-5.7
	c1.8-2.1,3.2-4.8,3.8-7.6l0.1-0.4l9.9,9.9L19.1,14.3z M6.3,23.1C5.4,24,3.9,24,3,23.1l-2.3-2.2c-0.9-0.9-0.9-2.4,0-3.4l3.9-3.9
	l5.6,5.6L6.3,23.1z M6.3,17.5c-0.3-0.3-0.8-0.3-1.1,0l-1.1,1.1c-0.3,0.3-0.3,0.8,0,1.1c0.3,0.3,0.8,0.3,1.1,0l1.1-1.1
	C6.6,18.3,6.6,17.8,6.3,17.5z M12.5,22.4l1.1-1.1c0.3-0.3,0.3-0.8,0-1.1l-1-1c0.4-0.3,0.8-0.7,1.3-1l0.8,0.8c0.9,0.9,0.9,2.4,0,3.4
	l-1.1,1.1l0.9,0.8c0.6,0.6,0.6,1.6,0,2.2c-0.6,0.6-1.6,0.6-2.3,0l-3.6-3.5l2.3-2.2L12.5,22.4z"/>
</svg>
