<?xml version="1.0" encoding="utf-8"?>
<!-- Generator: Adobe Illustrator 18.1.1, SVG Export Plug-In . SVG Version: 6.00 Build 0)  -->
<svg version="1.1" id="Layer_1" xmlns="http://www.w3.org/2000/svg" xmlns:xlink="http://www.w3.org/1999/xlink" x="0px" y="0px"
	 viewBox="0 0 591 612" enable-background="new 0 0 591 612" xml:space="preserve">
<path fill="none" d="M550.6,39.1h-52.8c-5.4,0-9.8,4.4-9.8,9.8s4.4,9.8,9.8,9.8H516c-3.7,6.1-5.8,13.2-5.8,20.8V541
	c0,5.4,4.4,9.8,9.8,9.8c5.4,0,9.8-4.4,9.8-9.8V79.4c0-11.5,9.3-20.8,20.8-20.8c11.5,0,20.8,9.3,20.8,20.8V541
	c0,28.4-23.1,51.4-51.5,51.4s-51.5-23.1-51.5-51.4V9.8c0-5.4-4.4-9.8-9.8-9.8H9.8C4.4,0,0,4.4,0,9.8V541c0,39.1,31.9,71,71,71h449
	c39.1,0,71-31.8,71-71V79.4C591,57.2,572.9,39.1,550.6,39.1z M71,592.5c-28.4,0-51.5-23.1-51.5-51.4V19.5H449V541
	c0,20.2,8.5,38.5,22.1,51.4H71z"/>
<path fill="none" d="M406.7,52.1H61.9c-5.4,0-9.8,4.4-9.8,9.8v97.7c0,5.4,4.4,9.8,9.8,9.8h344.8c5.4,0,9.8-4.4,9.8-9.8V61.9
	C416.4,56.5,412.1,52.1,406.7,52.1z M396.9,149.7H71.7V71.6h325.2V149.7z"/>
<path fill="none" d="M406.7,188.8H61.9c-5.4,0-9.8,4.4-9.8,9.8s4.4,9.8,9.8,9.8h344.8c5.4,0,9.8-4.4,9.8-9.8
	S412.1,188.8,406.7,188.8z"/>
<path fill="none" d="M406.7,266.9H253.8c-5.4,0-9.8,4.4-9.8,9.8c0,5.4,4.4,9.8,9.8,9.8h152.8c5.4,0,9.8-4.4,9.8-9.8
	C416.4,271.3,412.1,266.9,406.7,266.9z"/>
<path fill="none" d="M214.7,266.9H61.9c-5.4,0-9.8,4.4-9.8,9.8c0,5.4,4.4,9.8,9.8,9.8h152.8c5.4,0,9.8-4.4,9.8-9.8
	C224.5,271.3,220.1,266.9,214.7,266.9z"/>
<path fill="none" d="M406.7,306H253.8c-5.4,0-9.8,4.4-9.8,9.8c0,5.4,4.4,9.8,9.8,9.8h152.8c5.4,0,9.8-4.4,9.8-9.8
	C416.4,310.4,412.1,306,406.7,306z"/>
<path fill="none" d="M214.7,306H61.9c-5.4,0-9.8,4.4-9.8,9.8c0,5.4,4.4,9.8,9.8,9.8h152.8c5.4,0,9.8-4.4,9.8-9.8
	C224.5,310.4,220.1,306,214.7,306z"/>
<path fill="none" d="M406.7,345.1H253.8c-5.4,0-9.8,4.4-9.8,9.8s4.4,9.8,9.8,9.8h152.8c5.4,0,9.8-4.4,9.8-9.8
	S412.1,345.1,406.7,345.1z"/>
<path fill="none" d="M406.7,384.1H253.8c-5.4,0-9.8,4.4-9.8,9.8s4.4,9.8,9.8,9.8h152.8c5.4,0,9.8-4.4,9.8-9.8
	S412.1,384.1,406.7,384.1z"/>
<path fill="none" d="M253.8,442.7h100.7c5.4,0,9.8-4.4,9.8-9.8c0-5.4-4.4-9.8-9.8-9.8H253.8c-5.4,0-9.8,4.4-9.8,9.8
	C244,438.4,248.4,442.7,253.8,442.7z"/>
<path fill="none" d="M354.5,540.4H253.8c-5.4,0-9.8,4.4-9.8,9.8c0,5.4,4.4,9.8,9.8,9.8h100.7c5.4,0,9.8-4.4,9.8-9.8
	C364.3,544.8,359.9,540.4,354.5,540.4z"/>
<path fill="none" d="M406.7,501.3H253.8c-5.4,0-9.8,4.4-9.8,9.8s4.4,9.8,9.8,9.8h152.8c5.4,0,9.8-4.4,9.8-9.8
	S412.1,501.3,406.7,501.3z"/>
<path fill="none" d="M214.7,345.1H61.9c-5.4,0-9.8,4.4-9.8,9.8v195.3c0,5.4,4.4,9.8,9.8,9.8h152.8c5.4,0,9.8-4.4,9.8-9.8V354.8
	C224.5,349.4,220.1,345.1,214.7,345.1z M205,540.4H71.7V364.6H205L205,540.4L205,540.4z"/>
</svg>
