<?xml version="1.0" encoding="utf-8"?>
<!-- Generator: Adobe Illustrator 20.1.0, SVG Export Plug-In . SVG Version: 6.00 Build 0)  -->
<svg version="1.1" id="Layer_1" xmlns="http://www.w3.org/2000/svg" xmlns:xlink="http://www.w3.org/1999/xlink" x="0px" y="0px"
	 viewBox="0 0 45 42" style="enable-background:new 0 0 45 42;" xml:space="preserve">
<style type="text/css">
	.st0{fill-rule:evenodd;clip-rule:evenodd;fill:none;}
</style>
<path class="st0" d="M43.3,35H27.6v5.5h6.8c0.4,0,0.7,0.3,0.7,0.7c0,0.4-0.3,0.7-0.7,0.7H10.6c-0.4,0-0.7-0.3-0.7-0.7
	c0-0.4,0.3-0.7,0.7-0.7h6.8V35H1.7C0.8,35,0,34.3,0,33.3V1.7C0,0.8,0.8,0,1.7,0h41.6C44.2,0,45,0.8,45,1.7v31.6
	C45,34.3,44.2,35,43.3,35z M18.8,40.6h7.3V35h-7.3V40.6z M43.6,1.7c0-0.1-0.1-0.3-0.3-0.3H1.7c-0.1,0-0.3,0.1-0.3,0.3v31.6
	c0,0.1,0.1,0.3,0.3,0.3h41.6c0.1,0,0.3-0.1,0.3-0.3V1.7z M41.3,29.2H3.7c-0.4,0-0.7-0.3-0.7-0.7s0.3-0.7,0.7-0.7h37.6
	c0.4,0,0.7,0.3,0.7,0.7S41.7,29.2,41.3,29.2z M33.1,22.5c-3.2,1.9-6.8,2.9-10.6,2.9c-3.7,0-7.4-1-10.6-2.9c-3.1-1.8-5.7-4.4-7.5-7.5
	c-0.1-0.2-0.1-0.5,0-0.7c1.8-3.1,4.4-5.7,7.5-7.5c3.2-1.9,6.8-2.9,10.6-2.9c3.7,0,7.4,1,10.6,2.9c3.1,1.8,5.7,4.4,7.5,7.5
	c0.1,0.2,0.1,0.5,0,0.7C38.8,18.1,36.2,20.7,33.1,22.5z M5.9,14.6c2.2,3.6,5.5,6.3,9.3,7.9c-2.1-2-3.4-4.8-3.4-7.9s1.3-5.9,3.4-7.9
	C11.4,8.3,8.1,11,5.9,14.6z M22.8,5.3c-0.1,0-0.2,0-0.3,0c-0.1,0-0.2,0-0.3,0c-5,0.1-9,4.3-9,9.3c0,5,4,9.2,9,9.3c0.1,0,0.2,0,0.3,0
	c0.1,0,0.2,0,0.3,0c5-0.1,9-4.3,9-9.3C31.8,9.6,27.8,5.4,22.8,5.3z M29.8,6.7c2.1,2,3.4,4.8,3.4,7.9s-1.3,5.9-3.4,7.9
	c3.8-1.5,7.1-4.3,9.3-7.9C36.9,11,33.6,8.3,29.8,6.7z M22.5,19.4c-2.6,0-4.8-2.2-4.8-4.8c0-2.6,2.1-4.8,4.8-4.8c0.7,0,1.3,0.1,2,0.4
	c0.4,0.2,0.5,0.6,0.4,1c-0.2,0.4-0.6,0.5-0.9,0.4c-0.4-0.2-0.9-0.3-1.4-0.3c-1.8,0-3.3,1.5-3.3,3.4c0,1.8,1.5,3.4,3.3,3.4
	c1.8,0,3.3-1.5,3.3-3.4c0-0.5-0.1-0.9-0.3-1.4c-0.2-0.4,0-0.8,0.4-1c0.4-0.2,0.8,0,1,0.4c0.3,0.6,0.4,1.3,0.4,2
	C27.3,17.2,25.1,19.4,22.5,19.4z"/>
</svg>
