<?xml version="1.0" encoding="utf-8"?>
<!-- Generator: Adobe Illustrator 20.1.0, SVG Export Plug-In . SVG Version: 6.00 Build 0)  -->
<svg version="1.1" id="Layer_1" xmlns="http://www.w3.org/2000/svg" xmlns:xlink="http://www.w3.org/1999/xlink" x="0px" y="0px"
	 viewBox="0 0 47 44" style="enable-background:new 0 0 47 44;" xml:space="preserve">
<style type="text/css">
	.st0{fill-rule:evenodd;clip-rule:evenodd;fill:none;}
</style>
<path class="st0" d="M44.6,44H36c-1.3,0-2.3-1.1-2.3-2.4V33h-4.5l1.5,5.7c0.2,0.7,0,1.5-0.4,2.1c-0.4,0.6-1.1,0.9-1.9,0.9h-6.6
	c0,1.3-1.1,2.4-2.4,2.4H2.3C1.1,44,0,42.9,0,41.6V18.1c0-1.3,1.1-2.4,2.4-2.4V3.9C2.3,1.8,4.1,0,6.3,0h34.5c2.2,0,3.9,1.8,3.9,3.9
	v17.3c1.3,0,2.4,1.1,2.4,2.4v18.1C47,42.9,45.9,44,44.6,44z M21.9,40.1h6.6c0.2,0,0.5-0.1,0.6-0.3c0.1-0.2,0.2-0.4,0.1-0.7l-0.2-0.6
	h-7.2V40.1z M21.9,36.9h6.7L27.6,33h-5.7V36.9z M21.9,31.4h11.8v-4.7H21.9V31.4z M1.6,41.6c0,0.4,0.4,0.8,0.8,0.8h17.2
	c0.4,0,0.8-0.4,0.8-0.8v-1.6H1.6V41.6z M1.6,38.5h18.8V21.2H1.6V38.5z M2.3,17.3c-0.4,0-0.8,0.4-0.8,0.8v1.6h18.8v-1.6
	c0-0.4-0.4-0.8-0.8-0.8H2.3z M43.1,3.9c0-1.3-1.1-2.4-2.4-2.4H6.3C5,1.6,3.9,2.6,3.9,3.9v11.8h15.7c1.3,0,2.4,1.1,2.4,2.4v7.1h11.8
	v-1.6c0-1.3,1.1-2.4,2.3-2.4h7.1V3.9z M45.4,23.6c0-0.4-0.4-0.8-0.8-0.8H36c-0.4,0-0.8,0.4-0.8,0.8v1.6h10.2V23.6z M45.4,26.7H35.2
	v11.8h10.2V26.7z M45.4,40.1H35.2v1.6c0,0.4,0.4,0.8,0.8,0.8h8.6c0.4,0,0.8-0.4,0.8-0.8V40.1z M42.1,29.6l-3.9,3.9L37,32.4l3.9-3.9
	L42.1,29.6z M43.6,32.8l-3.9,3.9l-1.1-1.1l3.9-3.9L43.6,32.8z M27.6,12l4.7-4.7l1.1,1.1l-4.7,4.7L27.6,12z M26.9,7.3L30,4.2l1.1,1.1
	L28,8.4L26.9,7.3z M20.6,13.6l4.7-4.7l1.1,1.1l-4.7,4.7L20.6,13.6z M27.2,14.7l-3.1,3.1l-1.1-1.1l3.1-3.1L27.2,14.7z M11.7,3.1h1.6
	v1.6h-1.6V3.1z M8.6,3.1h1.6v1.6H8.6V3.1z M5.5,3.1H7v1.6H5.5V3.1z M7.3,34.8l9.4-9.4l1.1,1.1l-9.4,9.4L7.3,34.8z M8.8,27.7l4.7-4.7
	l1.1,1.1L10,28.8L8.8,27.7z M4.1,32.4l3.1-3.1l1.1,1.1l-3.1,3.1L4.1,32.4z"/>
</svg>
