<?xml version="1.0" encoding="utf-8"?>
<!-- Generator: Adobe Illustrator 20.1.0, SVG Export Plug-In . SVG Version: 6.00 Build 0)  -->
<svg version="1.1" id="Layer_1" xmlns="http://www.w3.org/2000/svg" xmlns:xlink="http://www.w3.org/1999/xlink" x="0px" y="0px"
	 viewBox="0 0 41 32" style="enable-background:new 0 0 41 32;" xml:space="preserve">
<style type="text/css">
	.st0{fill-rule:evenodd;clip-rule:evenodd;fill:none;}
</style>
<path class="st0" d="M38.8,13h-0.7c-0.3,0-0.7-0.1-0.9-0.2l1.6,2c0.5,0.6,0.8,1.4,0.8,2.2v13.6c0,0.8-0.6,1.4-1.4,1.4h-2.2
	c-0.8,0-1.4-0.6-1.4-1.4v-3h-28v3c0,0.8-0.6,1.4-1.4,1.4H2.9c-0.8,0-1.4-0.6-1.4-1.4V17c0-0.8,0.3-1.6,0.8-2.2l1.6-2
	C3.5,13,3.2,13,2.9,13H2.2C1,13,0,12.1,0,10.9s1-2.1,2.2-2.1h0.7c1.1,0,2,0.8,2.1,1.8l1.8-5c0.4-1.1,1.5-1.9,2.7-1.9h5.2l0.4-1.9
	c0.2-1,1.1-1.7,2.1-1.7h6.4c1,0,1.9,0.7,2.1,1.7l0.4,1.9h5.2c1.2,0,2.3,0.8,2.7,1.9l1.8,5c0.2-1,1.1-1.8,2.1-1.8h0.7
	c1.2,0,2.2,1,2.2,2.1S40,13,38.8,13z M2.9,10.1H2.2c-0.4,0-0.8,0.3-0.8,0.8c0,0.4,0.3,0.8,0.8,0.8h0.7c0.4,0,0.8-0.3,0.8-0.8
	C3.7,10.5,3.3,10.1,2.9,10.1z M35.9,30.6C35.9,30.6,35.9,30.6,35.9,30.6l2.2,0c0,0,0,0,0,0h0v-3.4c-0.4,0.3-1,0.4-1.5,0.4h-0.8V30.6
	z M12.4,26.3h16.2h0v-1.5c0,0,0,0,0,0H12.4c0,0,0,0,0,0V26.3z M2.8,30.6C2.8,30.6,2.9,30.6,2.8,30.6l2.2,0c0,0,0,0,0,0l0,0v-3H4.4
	c-0.6,0-1.1-0.2-1.5-0.4V30.6z M24.5,2c-0.1-0.4-0.4-0.6-0.8-0.6h-6.4c-0.4,0-0.7,0.3-0.8,0.6l-0.3,1.7h8.6L24.5,2z M35.6,13h-3.3
	c-0.4,0-0.7-0.3-0.7-0.7c0-0.4,0.3-0.7,0.7-0.7h2.7L32.9,6c-0.2-0.6-0.8-1-1.4-1H9.6C8.9,5,8.4,5.4,8.1,6l-2.1,5.7h18.8
	c0.4,0,0.7,0.3,0.7,0.7c0,0.4-0.3,0.7-0.7,0.7H5.4l-2.1,2.6C3,16,2.8,16.5,2.8,17v7.7c0,0.8,0.7,1.5,1.5,1.5H11v-1.5
	c0-0.8,0.6-1.4,1.4-1.4h16.1c0.8,0,1.4,0.6,1.4,1.4v1.5h6.6c0.8,0,1.5-0.7,1.5-1.5V17c0-0.5-0.2-1-0.5-1.4L35.6,13z M38.8,10.1h-0.7
	c-0.4,0-0.8,0.3-0.8,0.8c0,0.4,0.3,0.8,0.8,0.8h0.7c0.4,0,0.8-0.3,0.8-0.8C39.6,10.5,39.3,10.1,38.8,10.1z M34.1,21.1
	c-1.4,0-2.5-1.1-2.5-2.5s1.1-2.5,2.5-2.5c1.4,0,2.5,1.1,2.5,2.5S35.5,21.1,34.1,21.1z M34.1,17.4c-0.6,0-1.1,0.5-1.1,1.1
	c0,0.6,0.5,1.1,1.1,1.1c0.6,0,1.1-0.5,1.1-1.1C35.2,17.9,34.7,17.4,34.1,17.4z M33.7,21.9c0.8,0,1.4,0.6,1.4,1.4
	c0,0.8-0.6,1.4-1.4,1.4s-1.4-0.6-1.4-1.4C32.3,22.5,32.9,21.9,33.7,21.9z M29.3,13h-1.5c-0.4,0-0.7-0.3-0.7-0.7
	c0-0.4,0.3-0.7,0.7-0.7h1.5c0.4,0,0.7,0.3,0.7,0.7C30,12.7,29.7,13,29.3,13z M29.5,17.3c0.3,0.3,0.4,0.8,0.3,1.2L29.4,20
	c-0.2,0.6-0.7,1.1-1.4,1.1H13c-0.7,0-1.2-0.4-1.4-1.1l-0.4-1.5c-0.1-0.4,0-0.9,0.3-1.2c0.3-0.3,0.7-0.5,1.1-0.5h15.7
	C28.8,16.8,29.2,17,29.5,17.3z M12.6,18.1C12.6,18.1,12.6,18.1,12.6,18.1C12.6,18.2,12.6,18.2,12.6,18.1l0.3,1.5c0,0,0,0,0,0h15
	c0,0,0,0,0,0l0.4-1.5c0,0,0,0,0,0c0,0,0,0,0,0H12.6z M6.9,21.1c-1.4,0-2.5-1.1-2.5-2.5S5.5,16,6.9,16c1.4,0,2.5,1.1,2.5,2.5
	S8.3,21.1,6.9,21.1z M6.9,17.4c-0.6,0-1.1,0.5-1.1,1.1c0,0.6,0.5,1.1,1.1,1.1s1.1-0.5,1.1-1.1C8.1,17.9,7.6,17.4,6.9,17.4z
	 M7.3,21.9c0.8,0,1.4,0.6,1.4,1.4c0,0.8-0.6,1.4-1.4,1.4c-0.8,0-1.4-0.6-1.4-1.4C5.9,22.5,6.5,21.9,7.3,21.9z"/>
</svg>
