<?xml version="1.0" encoding="utf-8"?>
<!-- Generator: Adobe Illustrator 18.1.1, SVG Export Plug-In . SVG Version: 6.00 Build 0)  -->
<svg version="1.1" id="Layer_1" xmlns="http://www.w3.org/2000/svg" xmlns:xlink="http://www.w3.org/1999/xlink" x="0px" y="0px"
	 viewBox="0 0 612 612" enable-background="new 0 0 612 612" xml:space="preserve">
<path fill="none" d="M611.1,60.5c-1.9-3.8-6-5.9-10.2-5.2l-52.2,8l8-52.2c0.6-4.2-1.5-8.3-5.2-10.2c-3.8-1.9-8.3-1.2-11.3,1.8
	l-60.5,60.5c-1.5,1.5-2.4,3.4-2.7,5.4l-9.6,62.2l-34.7,34.7c-47.7-44.3-109.5-68.6-175.1-68.6c-68.9,0-133.5,26.8-182.2,75.4
	C26.8,220.9,0,285.6,0,354.4S26.8,488,75.4,536.6C124,585.2,188.7,612,257.6,612c68.9,0,133.5-26.8,182.2-75.4
	c48.6-48.6,75.4-113.3,75.4-182.2c0-54.8-16.9-107-48.9-151.2c-3.2-4.4-9.3-5.3-13.6-2.2c-4.4,3.2-5.3,9.3-2.2,13.6
	c29.6,40.8,45.2,89.1,45.2,139.7c0,131.2-106.8,238-238,238s-238-106.8-238-238s106.8-238,238-238c60.4,0,117.3,22.3,161.3,62.9
	L374.2,224c-32.1-28.8-73.2-44.5-116.6-44.5c-96.5,0-175,78.5-175,175s78.5,175,175,175s175-78.5,175-175c0-32.2-8.8-63.7-25.5-91
	c-2.8-4.6-8.8-6.1-13.4-3.3c-4.6,2.8-6.1,8.8-3.3,13.4c14.8,24.3,22.6,52.2,22.6,80.8c0,85.7-69.7,155.4-155.4,155.4
	c-85.7,0-155.4-69.7-155.4-155.4c0-85.7,69.7-155.4,155.4-155.4c38.2,0,74.4,13.7,102.8,38.8l-44.8,44.8
	c-16.4-13.3-36.7-20.5-58.1-20.5c-50.9,0-92.4,41.4-92.4,92.4c0,50.9,41.4,92.4,92.4,92.4c50.9,0,92.4-41.4,92.4-92.4
	c0-9.1-1.3-18-3.9-26.7c-1.6-5.2-7-8.1-12.2-6.5c-5.2,1.6-8.1,7-6.5,12.2c2,6.8,3.1,13.9,3.1,21c0,40.2-32.7,72.8-72.8,72.8
	s-72.8-32.7-72.8-72.8c0-40.2,32.7-72.8,72.8-72.8c16.2,0,31.5,5.2,44.1,14.9l-51,51c-3.8,3.8-3.8,10,0,13.8
	c1.9,1.9,4.4,2.9,6.9,2.9c2.5,0,5-1,6.9-2.9l175.2-175.2c0.1-0.1,41.5-41.5,41.5-41.5l62.2-9.6c2.1-0.3,4-1.3,5.4-2.7l60.5-60.5
	C612.3,68.8,613,64.2,611.1,60.5z M495.7,74.8l37.2-37.2l-5,32.7l-37.2,37.2L495.7,74.8z M537.2,116.3l-32.7,5l37.2-37.2l32.7-5
	L537.2,116.3z"/>
</svg>
