<?xml version="1.0" encoding="utf-8"?>
<!-- Generator: Adobe Illustrator 18.1.1, SVG Export Plug-In . SVG Version: 6.00 Build 0)  -->
<svg version="1.1" id="Layer_1" xmlns="http://www.w3.org/2000/svg" xmlns:xlink="http://www.w3.org/1999/xlink" x="0px" y="0px"
	 viewBox="0 0 38 44" enable-background="new 0 0 38 44" xml:space="preserve">
<path fill-rule="evenodd" clip-rule="evenodd" d="M0,44l1.5-9.4C2,31.8,4,29.4,6.7,28.5l6-2v-0.9h1.4v1.3l1,4.2l2.8-3.4H20l2.8,3.4
	l1-4.2v-1.3h1.4v0.9l6,2c2.7,0.9,4.7,3.3,5.2,6.1L38,44H0z M9.2,29.1l-2.1,0.7c-2.2,0.8-3.8,2.7-4.2,5l-1.3,7.7h4.8l0.7-5.5l0.4-0.1
	c1-0.3,1.6-1.2,1.6-2.3V29.1z M27.4,34.7v-6l-2.3-0.8l-1.5,6.3l-4.2-5.1h-0.7l-4.2,5.1l-1.5-6.3l-2.3,0.8v6c0,1.5-0.8,2.8-2.2,3.5
	l-0.6,4.5h9v-4.8l-1.3-3.4l1.3-0.5l1.4,3.7v5.1h1.4v-5.1l1.4-3.7l1.3,0.5l-1.3,3.4v4.8h9l-0.6-4.5C28.2,37.5,27.4,36.2,27.4,34.7z
	 M35.1,34.8c-0.4-2.3-2-4.3-4.2-5l-2.1-0.7v5.5c0,1,0.7,2,1.6,2.3l0.4,0.1l0.7,5.5h4.8L35.1,34.8z M22.5,38.3h5.6v1.4h-5.6V38.3z
	 M9.9,38.3h5.6v1.4H9.9V38.3z M30.9,15.8c-0.1,1.7-1.4,3.1-3.1,3.3c-0.4,1.2-1,2.4-1.9,3.3l-2.7,2.8c-0.7,0.7-1.5,1-2.5,1h-3.3
	c-0.9,0-1.8-0.4-2.5-1l-2.7-2.8c-0.9-0.9-1.6-2.1-1.9-3.3c-1.7-0.2-3-1.6-3.1-3.3c-1.4-0.1-2.1-0.2-2.2-0.2l-0.7-0.1l0.1-0.7
	c0-0.2,0.8-3.7,4.3-5.3C9.2,4.1,13.7,0,19,0s9.8,4.1,10.4,9.4c3.5,1.6,4.2,5.2,4.3,5.3l0.1,0.7l-0.7,0.1
	C33,15.6,32.3,15.7,30.9,15.8z M29.5,16c-0.4,0-0.9,0.1-1.4,0.1v0.9c0,0.2,0,0.5,0,0.7C28.8,17.4,29.3,16.7,29.5,16z M11.3,16.9
	c0,1.7,0.7,3.3,1.8,4.5l2.7,2.8c0.4,0.4,0.9,0.6,1.5,0.6h3.3c0.6,0,1.1-0.2,1.5-0.6l2.7-2.8c1.2-1.2,1.8-2.8,1.8-4.5v-0.8
	c-2.1,0.1-4.6,0.2-7.7,0.2c-3.1,0-5.6-0.1-7.7-0.2V16.9z M9.9,17.6c0-0.2,0-0.5,0-0.7v-0.9C9.4,16,9,16,8.5,16
	C8.7,16.7,9.2,17.4,9.9,17.6z M10,9.4c0.7,0.1,1.8,0.3,3.4,0.4c0.2-3.9,1.9-6.5,3.3-8C13.2,2.7,10.5,5.6,10,9.4z M19,1.6
	c-1,0.7-3.9,3.2-4.2,8.3C16,9.9,17.4,9.9,19,9.9c1.6,0,3,0,4.2-0.1C22.9,4.8,20,2.3,19,1.6z M21.3,1.7c1.4,1.5,3,4.1,3.3,8
	c1.6-0.1,2.8-0.3,3.4-0.4C27.5,5.6,24.8,2.7,21.3,1.7z M28.7,10.7c-0.9,0.2-4.2,0.7-9.7,0.7c-5.5,0-8.9-0.5-9.7-0.7
	c-2,0.9-3,2.6-3.4,3.6c1.7,0.2,6.2,0.6,13.1,0.6c6.8,0,11.3-0.4,13.1-0.6C31.7,13.3,30.8,11.6,28.7,10.7z"/>
</svg>
