<?xml version="1.0" encoding="utf-8"?>
<!-- Generator: Adobe Illustrator 18.1.1, SVG Export Plug-In . SVG Version: 6.00 Build 0)  -->
<svg version="1.1" id="Layer_1" xmlns="http://www.w3.org/2000/svg" xmlns:xlink="http://www.w3.org/1999/xlink" x="0px" y="0px"
	 viewBox="0 0 35 34" enable-background="new 0 0 35 34" xml:space="preserve">
<path fill-rule="evenodd" clip-rule="evenodd" fill="none" d="M31.8,21.5c-1.6,0-2.9-1.2-3.1-2.7l-3.9-0.4c0.1-0.5,0.2-1,0.2-1.5
	c0,0,0-0.1,0-0.1l3.9,0.4c0.4-1.2,1.6-2.1,3-2.1c1.7,0,3.2,1.4,3.2,3.2C35,20,33.6,21.5,31.8,21.5z M25.8,6.4
	c-0.3,0-0.6-0.1-0.9-0.1l-2.8,4.8c-0.4-0.3-0.9-0.6-1.4-0.8l2.8-4.8c-0.6-0.6-0.9-1.4-0.9-2.2C22.6,1.4,24,0,25.8,0
	c1.7,0,3.2,1.4,3.2,3.2C28.9,5,27.5,6.4,25.8,6.4z M23.2,16.9c0,3-2.4,5.5-5.4,5.5c-3,0-5.4-2.5-5.4-5.5s2.4-5.5,5.4-5.5
	C20.7,11.4,23.2,13.8,23.2,16.9z M12,12.5l-2.1-2c-0.5,0.3-1.1,0.5-1.7,0.5C6.5,10.9,5,9.5,5,7.7C5,6,6.5,4.6,8.2,4.6
	c1.7,0,3.2,1.4,3.2,3.2c0,0.6-0.2,1.1-0.4,1.5l2.1,2C12.7,11.7,12.3,12,12,12.5z M5.8,20.1l4.9-1.7c0.1,0.5,0.3,1,0.5,1.5l-4.9,1.7
	c0,0.1,0,0.1,0,0.2c0,1.8-1.4,3.2-3.2,3.2C1.4,25,0,23.6,0,21.8c0-1.8,1.4-3.2,3.2-3.2C4.3,18.6,5.2,19.2,5.8,20.1z M19.4,28
	l-0.9-3.9c0.5-0.1,1.1-0.2,1.6-0.4l0.9,3.9c1.7,0.1,3.1,1.5,3.1,3.2c0,1.8-1.4,3.2-3.2,3.2c-1.8,0-3.2-1.4-3.2-3.2
	C17.7,29.6,18.4,28.5,19.4,28z"/>
</svg>
