<?xml version="1.0" encoding="utf-8"?>
<!-- Generator: Adobe Illustrator 18.1.1, SVG Export Plug-In . SVG Version: 6.00 Build 0)  -->
<svg version="1.1" id="Layer_1" xmlns="http://www.w3.org/2000/svg" xmlns:xlink="http://www.w3.org/1999/xlink" x="0px" y="0px"
	 viewBox="0 0 39 31" enable-background="new 0 0 39 31" xml:space="preserve">
<path fill-rule="evenodd" clip-rule="evenodd" fill="none" d="M39,30.1c0,0.5-0.4,0.9-1,0.9H2.5c-0.5,0-1-0.4-1-0.9
	c0-0.5,0.4-0.9,1-0.9H38C38.6,29.1,39,29.5,39,30.1z M11.2,4.1l3.6,2.4L23.6,3l-9.1-1.6c-0.2,0-0.4,0-0.5,0.1l-2.5,1
	c-0.3,0.1-0.6,0.4-0.6,0.8C10.8,3.5,10.9,3.9,11.2,4.1z M36.9,1.5C36.4,0.6,35.5,0,34.5,0c-0.3,0-0.7,0.1-1,0.2l-8.1,3.2h0l-9.6,3.7
	l0,0l-9.8,3.8L3.6,9.7c-0.9-0.5-2-0.5-3-0.2C0.3,9.7,0.1,9.9,0,10.2c-0.1,0.3,0,0.6,0.2,0.8l3.5,4.1L3,17.8c-0.1,0.3,0,0.7,0.3,0.9
	c0.3,0.2,0.7,0.3,1,0.2l1.2-0.5c0.2-0.1,0.3-0.2,0.4-0.3l2-2.5l9.7-3.8l0.4,9.4c0,0.3,0.2,0.6,0.4,0.7c0.2,0.1,0.3,0.2,0.5,0.2
	c0.1,0,0.2,0,0.4-0.1l2.7-1.1c0.2-0.1,0.4-0.3,0.5-0.5L27.7,8l7.8-3c0.7-0.3,1.2-0.8,1.5-1.5C37.2,2.9,37.2,2.1,36.9,1.5z"/>
</svg>
