<?xml version="1.0" encoding="utf-8"?>
<!-- Generator: Adobe Illustrator 18.1.1, SVG Export Plug-In . SVG Version: 6.00 Build 0)  -->
<svg version="1.1" id="Layer_1" xmlns="http://www.w3.org/2000/svg" xmlns:xlink="http://www.w3.org/1999/xlink" x="0px" y="0px"
	 viewBox="0 0 9 13" enable-background="new 0 0 9 13" xml:space="preserve">
<path fill-rule="evenodd" clip-rule="evenodd" fill="none" d="M8.6,3.8c0-0.2-0.1-0.3-0.2-0.5C7.6,1.5,5.9,0.8,4.6,0.8
	C2.7,0.8,0.7,2,0.5,4.6v0.5c0,0,0,0.2,0,0.3c0.1,1.2,1.1,2.5,1.8,3.7c0.8,1.3,1.5,2.6,2.3,3.9c0.5-0.8,1-1.7,1.4-2.5
	c0.1-0.2,0.3-0.5,0.4-0.7c0.1-0.2,0.2-0.3,0.3-0.4c0.8-1.4,2-2.8,2-4.2V4.6C8.7,4.4,8.6,3.9,8.6,3.8z M4.6,6.5c-0.5,0-1.1-0.3-1.4-1
	c0-0.1,0-0.4,0-0.4V4.7c0-1,0.8-1.4,1.5-1.4c0.9,0,1.5,0.7,1.5,1.6C6.1,5.8,5.4,6.5,4.6,6.5z"/>
</svg>
