<?xml version="1.0" encoding="utf-8"?>
<!-- Generator: Adobe Illustrator 18.1.1, SVG Export Plug-In . SVG Version: 6.00 Build 0)  -->
<svg version="1.1" id="Layer_1" xmlns="http://www.w3.org/2000/svg" xmlns:xlink="http://www.w3.org/1999/xlink" x="0px" y="0px"
	 viewBox="0 0 19 30" enable-background="new 0 0 19 30" xml:space="preserve">
<path fill="none" d="M9.5,0C4.3,0,0,4.2,0,9.3v11.3C0,25.8,4.3,30,9.5,30c5.2,0,9.5-4.2,9.5-9.4V9.3C19,4.2,14.7,0,9.5,0z M17.9,9.3
	v0.1c-2.5,1.3-5.2,2-8,2V8.4c0.8-0.2,1.4-0.9,1.4-1.7V4.3c0-0.8-0.6-1.5-1.4-1.7V1.1C14.3,1.3,17.9,4.9,17.9,9.3z M9.5,3.3
	c0.6,0,1,0.5,1,1v2.3c0,0.6-0.5,1-1,1c-0.6,0-1-0.5-1-1V4.3C8.5,3.8,8.9,3.3,9.5,3.3z M9.1,1.1v1.5C8.3,2.8,7.7,3.5,7.7,4.3v2.3
	c0,0.8,0.6,1.5,1.4,1.7v3.1c-2.8-0.1-5.5-0.8-8-2V9.3C1.1,4.9,4.7,1.3,9.1,1.1z M9.5,28.9c-4.6,0-8.4-3.7-8.4-8.2V10.3
	c2.6,1.3,5.5,1.9,8.4,1.9c2.9,0,5.8-0.7,8.4-1.9v10.3C17.9,25.2,14.1,28.9,9.5,28.9z"/>
</svg>
